<?xml version="1.0" encoding="UTF-8" standalone="no"?>
<!-- Created with Inkscape (http://www.inkscape.org/) -->

<svg
   width="13.229171mm"
   height="13.22917mm"
   viewBox="0 0 13.229171 13.22917"
   version="1.1"
   id="svg5"
   xml:space="preserve"
   sodipodi:docname="add-yellow.svg"
   inkscape:version="1.2 (dc2aedaf03, 2022-05-15)"
   xmlns:inkscape="http://www.inkscape.org/namespaces/inkscape"
   xmlns:sodipodi="http://sodipodi.sourceforge.net/DTD/sodipodi-0.dtd"
   xmlns="http://www.w3.org/2000/svg"
   xmlns:svg="http://www.w3.org/2000/svg"><sodipodi:namedview
     id="namedview7"
     pagecolor="#ffffff"
     bordercolor="#666666"
     borderopacity="1.0"
     inkscape:showpageshadow="2"
     inkscape:pageopacity="0.0"
     inkscape:pagecheckerboard="0"
     inkscape:deskcolor="#d1d1d1"
     inkscape:document-units="mm"
     showgrid="false"
     inkscape:zoom="1"
     inkscape:cx="126"
     inkscape:cy="137"
     inkscape:window-width="1600"
     inkscape:window-height="831"
     inkscape:window-x="1920"
     inkscape:window-y="107"
     inkscape:window-maximized="1"
     inkscape:current-layer="layer1" /><defs
     id="defs2" /><g
     inkscape:label="Layer 1"
     inkscape:groupmode="layer"
     id="layer1"
     transform="translate(181.30848,2.6893493)"><path
       style="fill:#ffcc00;stroke-width:0.0281925"
       d="m -175.20877,10.513995 c -2.6109,-0.200688 -4.87452,-1.9476476 -5.73409,-4.4252993 -0.54959,-1.584142 -0.47752,-3.3135421 0.20222,-4.8528459 0.56587,-1.28142279 1.57706,-2.3876212 2.82404,-3.089347 1.27644,-0.7183111 2.86645,-0.9940774 4.30957,-0.7474404 0.85975,0.1469364 1.75486,0.4929478 2.49402,0.9640749 0.50406,0.3212835 1.22757,0.97499594 1.59057,1.43711744 1.29004,1.64230356 1.746,3.74381336 1.24284,5.72816676 -0.31024,1.2234892 -0.91456,2.2651537 -1.82551,3.1466283 -1.12819,1.0916781 -2.54195,1.7207232 -4.13821,1.8412702 -0.42145,0.03183 -0.52435,0.03158 -0.96545,-0.0023 z m 0.73369,-3.0282668 c 0.12333,-0.051488 0.24629,-0.1620332 0.31183,-0.2803472 0.0411,-0.07423 0.0486,-0.2428212 0.0609,-1.3810254 l 0.0141,-1.2964731 1.29725,-0.014092 c 1.41951,-0.01542 1.3734,-0.00981 1.5425,-0.1877271 0.21515,-0.2263679 0.21515,-0.5819143 0,-0.8082821 -0.1691,-0.1779182 -0.12299,-0.1723067 -1.5425,-0.1877271 l -1.29725,-0.014092 -0.0141,-1.296473 c -0.0154,-1.41867101 -0.01,-1.37258982 -0.18784,-1.54158966 -0.2265,-0.21502063 -0.58226,-0.21502063 -0.80876,0 -0.17803,0.16899984 -0.17241,0.12291865 -0.18784,1.54158966 l -0.0141,1.296473 -1.29725,0.014092 c -1.41951,0.01542 -1.3734,0.00981 -1.5425,0.1877271 -0.21515,0.2263678 -0.21515,0.5819142 0,0.8082821 0.1691,0.1779181 0.12299,0.1723066 1.5425,0.1877271 l 1.29725,0.014092 0.0141,1.2964731 c 0.0154,1.418677 0.01,1.3726708 0.18784,1.54153 0.16636,0.1578063 0.41739,0.2060303 0.62384,0.1198426 z"
       id="path486" /></g></svg>
