<?xml version="1.0" encoding="UTF-8" standalone="no"?>
<!-- Created with Inkscape (http://www.inkscape.org/) -->

<svg
   width="15.875mm"
   height="15.875mm"
   viewBox="0 0 15.875 15.875"
   version="1.1"
   id="svg5"
   xml:space="preserve"
   inkscape:version="1.2 (dc2aedaf03, 2022-05-15)"
   sodipodi:docname="add.svg"
   xmlns:inkscape="http://www.inkscape.org/namespaces/inkscape"
   xmlns:sodipodi="http://sodipodi.sourceforge.net/DTD/sodipodi-0.dtd"
   xmlns="http://www.w3.org/2000/svg"
   xmlns:svg="http://www.w3.org/2000/svg"><sodipodi:namedview
     id="namedview7"
     pagecolor="#ffffff"
     bordercolor="#666666"
     borderopacity="1.0"
     inkscape:showpageshadow="2"
     inkscape:pageopacity="0.0"
     inkscape:pagecheckerboard="0"
     inkscape:deskcolor="#d1d1d1"
     inkscape:document-units="mm"
     showgrid="false"
     inkscape:zoom="0.86426146"
     inkscape:cx="59.588449"
     inkscape:cy="62.481092"
     inkscape:window-width="1600"
     inkscape:window-height="831"
     inkscape:window-x="1920"
     inkscape:window-y="107"
     inkscape:window-maximized="1"
     inkscape:current-layer="layer1" /><defs
     id="defs2" /><g
     inkscape:label="Layer 1"
     inkscape:groupmode="layer"
     id="layer1"
     transform="translate(-33.511584,-32.671707)"><g
       id="g462"
       transform="matrix(0.12333537,0,0,0.1233603,29.37842,28.641315)"><rect
         style="opacity:1;fill:#ffffff;stroke-width:1.32292"
         id="rect370"
         width="84.342491"
         height="86.222847"
         x="55.93623"
         y="52.143196" /><g
         id="g248"
         transform="translate(0.02773756,0.03970724)"><path
           style="fill:#daebc2;stroke-width:0.251485"
           d="m 90.112313,161.18643 c 0.242054,-0.0633 0.638144,-0.0633 0.880198,0 0.242054,0.0633 0.04401,0.11501 -0.440099,0.11501 -0.484109,0 -0.682153,-0.0518 -0.440099,-0.11501 z m 14.334657,0 c 0.24205,-0.0633 0.63814,-0.0633 0.88019,0 0.24206,0.0633 0.044,0.11501 -0.4401,0.11501 -0.4841,0 -0.68215,-0.0518 -0.44009,-0.11501 z m -17.713988,-0.24992 c 0.181539,-0.0727 0.398445,-0.0637 0.482014,0.0198 0.08357,0.0836 -0.06497,0.14301 -0.330075,0.13209 -0.292967,-0.0121 -0.352557,-0.0717 -0.151939,-0.15194 z m 21.627718,0 c 0.18154,-0.0727 0.39845,-0.0637 0.48202,0.0198 0.0836,0.0836 -0.065,0.14301 -0.33008,0.13209 -0.29296,-0.0121 -0.35255,-0.0717 -0.15194,-0.15194 z m 3.26931,-0.25149 c 0.18154,-0.0726 0.39845,-0.0637 0.48201,0.0198 0.0836,0.0836 -0.065,0.143 -0.33007,0.13208 -0.29297,-0.0121 -0.35256,-0.0717 -0.15194,-0.15194 z m -77.6419,-47.75708 c 0.01207,-0.29297 0.07166,-0.35256 0.151939,-0.15194 0.07265,0.18154 0.06371,0.39845 -0.01985,0.48202 -0.08357,0.0836 -0.143004,-0.065 -0.132085,-0.33008 z m 127.50297,0 c 0.0121,-0.29297 0.0716,-0.35256 0.15193,-0.15194 0.0727,0.18154 0.0637,0.39845 -0.0198,0.48202 -0.0836,0.0836 -0.143,-0.065 -0.13208,-0.33008 z M 33.549837,104.27266 c 0,-1.03738 0.04439,-1.46176 0.09865,-0.94307 0.05426,0.51869 0.05426,1.36745 0,1.88614 -0.05426,0.51869 -0.09865,0.0943 -0.09865,-0.94307 z m 128.506873,0.12574 c 10e-4,-0.96822 0.0466,-1.33349 0.10101,-0.81172 0.0544,0.52178 0.0535,1.31396 -0.002,1.7604 -0.0556,0.44645 -0.1001,0.0195 -0.099,-0.94868 z M 58.88514,98.090318 c 0.01207,-0.292968 0.07166,-0.352557 0.151937,-0.15194 0.07265,0.18154 0.06371,0.398448 -0.01984,0.482014 -0.08357,0.08357 -0.143005,-0.06497 -0.132085,-0.330074 z M 33.523631,96.225136 c 0,-0.484109 0.05175,-0.682154 0.11501,-0.440099 0.06326,0.242054 0.06326,0.638143 0,0.880198 -0.06325,0.242054 -0.11501,0.04401 -0.11501,-0.440099 z m 128.508909,0 c 0,-0.484109 0.0517,-0.682154 0.11501,-0.440099 0.0633,0.242054 0.0633,0.638143 0,0.880198 -0.0633,0.242054 -0.11501,0.04401 -0.11501,-0.440099 z M 33.736625,90.294279 c 0.01207,-0.292968 0.07166,-0.352557 0.151939,-0.15194 0.07265,0.181539 0.06371,0.398445 -0.01985,0.482014 -0.08357,0.08357 -0.143004,-0.06497 -0.132085,-0.330074 z m 38.125563,-0.544632 c 3.344583,-0.03959 8.889831,-0.03963 12.322771,-8.5e-5 3.432941,0.03955 0.696463,0.07194 -6.081061,0.07199 -6.777525,4.6e-5 -9.586294,-0.03231 -6.24171,-0.0719 z m 37.740222,4.6e-5 c 2.80092,-0.04047 7.38423,-0.04047 10.18515,0 2.80091,0.04047 0.50926,0.07359 -5.09257,0.07359 -5.60184,0 -7.89349,-0.03311 -5.09258,-0.07359 z m 51.88867,-2.221751 c 0.0121,-0.292967 0.0716,-0.352557 0.15193,-0.15194 0.0727,0.18154 0.0637,0.398446 -0.0198,0.482014 -0.0836,0.08357 -0.143,-0.06497 -0.13208,-0.330074 z M 48.680137,45.173653 c 0.25035,-0.276634 0.511766,-0.50297 0.580924,-0.50297 0.06916,0 -0.07909,0.226336 -0.329439,0.50297 -0.25035,0.276633 -0.511766,0.50297 -0.580924,0.50297 -0.06916,0 0.07909,-0.226337 0.329439,-0.50297 z m 98.055313,-0.06287 -0.47908,-0.565842 0.56584,0.479076 c 0.31121,0.263492 0.56584,0.518121 0.56584,0.565842 0,0.201251 -0.20239,0.05268 -0.6526,-0.479076 z M 83.71516,33.433544 c 0.181539,-0.07265 0.398445,-0.06371 0.482014,0.01985 0.08357,0.08357 -0.06497,0.143004 -0.330074,0.132084 -0.292968,-0.01207 -0.352557,-0.07166 -0.15194,-0.151938 z m 27.91485,0 c 0.18154,-0.07265 0.39845,-0.06371 0.48201,0.01985 0.0836,0.08357 -0.065,0.143004 -0.33007,0.132084 -0.29297,-0.01207 -0.35256,-0.07166 -0.15194,-0.151938 z M 86.732982,33.182058 c 0.181539,-0.07265 0.398445,-0.06371 0.482014,0.01985 0.08357,0.08357 -0.06497,0.143005 -0.330075,0.132085 -0.292967,-0.01207 -0.352557,-0.07166 -0.151939,-0.151939 z m 21.879208,0 c 0.18154,-0.07265 0.39845,-0.06371 0.48201,0.01985 0.0836,0.08357 -0.065,0.143005 -0.33007,0.132085 -0.29297,-0.01207 -0.35256,-0.07166 -0.15194,-0.151939 z M 89.735085,32.935813 c 0.172896,-0.06977 0.455817,-0.06977 0.628713,0 0.172896,0.06976 0.03144,0.126845 -0.314356,0.126845 -0.345792,0 -0.487253,-0.05708 -0.314357,-0.126845 z m 15.592075,0 c 0.1729,-0.06977 0.45582,-0.06977 0.62872,0 0.17289,0.06976 0.0314,0.126845 -0.31436,0.126845 -0.34579,0 -0.48725,-0.05708 -0.31436,-0.126845 z m -7.796035,-0.251486 c 0.172896,-0.06977 0.455816,-0.06977 0.628712,0 0.172896,0.06976 0.03144,0.126846 -0.314356,0.126846 -0.345792,0 -0.487252,-0.05708 -0.314356,-0.126846 z"
           id="path262" /><path
           style="fill:#cfe6af;stroke-width:0.251485"
           d="m 91.495481,161.19323 c 0.172896,-0.0698 0.455817,-0.0698 0.628713,0 0.172896,0.0698 0.03144,0.12685 -0.314356,0.12685 -0.345792,0 -0.487253,-0.0571 -0.314357,-0.12685 z m 11.819799,0 c 0.1729,-0.0698 0.45582,-0.0698 0.62872,0 0.17289,0.0698 0.0314,0.12685 -0.31436,0.12685 -0.34579,0 -0.48725,-0.0571 -0.31436,-0.12685 z m 58.71726,-59.18394 c 0,-0.48411 0.0517,-0.68215 0.11501,-0.4401 0.0633,0.24206 0.0633,0.63815 0,0.8802 -0.0633,0.24206 -0.11501,0.044 -0.11501,-0.4401 z M 33.528706,101.63207 c 0.0028,-0.55327 0.05429,-0.75 0.114446,-0.43717 0.06015,0.31282 0.05787,0.7655 -0.0051,1.00594 -0.06294,0.24044 -0.112161,-0.0155 -0.10937,-0.56877 z m -0.04357,-4.296208 c 0.01207,-0.292967 0.07166,-0.352557 0.151939,-0.151939 0.07265,0.181539 0.06371,0.398448 -0.01985,0.482014 -0.08357,0.08357 -0.143005,-0.06497 -0.132085,-0.330075 z m 0.251485,-6.287128 c 0.01207,-0.292968 0.07166,-0.352557 0.151939,-0.15194 0.07265,0.18154 0.06371,0.398446 -0.01985,0.482014 -0.08357,0.08357 -0.143004,-0.06497 -0.132085,-0.330074 z M 161.74256,90.797249 c 0.0121,-0.292968 0.0717,-0.352557 0.15194,-0.15194 0.0726,0.18154 0.0637,0.398446 -0.0198,0.482014 -0.0836,0.08357 -0.14301,-0.06497 -0.13209,-0.330074 z m -35.91177,-1.044403 c 0.66118,-0.05198 1.67969,-0.05135 2.26337,0.0015 0.58367,0.05274 0.0427,0.09527 -1.20215,0.0945 -1.24485,-7.55e-4 -1.7224,-0.04392 -1.06122,-0.09589 z M 90.741026,32.935813 c 0.172896,-0.06977 0.455817,-0.06977 0.628713,0 0.172896,0.06976 0.03144,0.126845 -0.314357,0.126845 -0.345792,0 -0.487252,-0.05708 -0.314356,-0.126845 z m 13.580194,0 c 0.1729,-0.06977 0.45582,-0.06977 0.62872,0 0.17289,0.06976 0.0314,0.126845 -0.31436,0.126845 -0.34579,0 -0.48725,-0.05708 -0.31436,-0.126845 z"
           id="path260" /><path
           style="fill:#c4e09d;stroke-width:0.251485"
           d="m 92.501422,161.19323 c 0.172896,-0.0698 0.455817,-0.0698 0.628713,0 0.172896,0.0698 0.03144,0.12685 -0.314357,0.12685 -0.345792,0 -0.487252,-0.0571 -0.314356,-0.12685 z m 9.807918,0 c 0.1729,-0.0698 0.45582,-0.0698 0.62872,0 0.17289,0.0698 0.0314,0.12685 -0.31436,0.12685 -0.34579,0 -0.48725,-0.0571 -0.31436,-0.12685 z M 90.165258,115.58949 c 0,-6.29341 0.03265,-8.86799 0.07256,-5.72129 0.03991,3.14671 0.03991,8.29587 0,11.44258 -0.03991,3.14671 -0.07256,0.57213 -0.07256,-5.72129 z m 71.872352,-15.21485 c 0.003,-0.553267 0.0543,-0.749991 0.11445,-0.437166 0.0601,0.312826 0.0579,0.765496 -0.005,1.005936 -0.063,0.24045 -0.11217,-0.0155 -0.10937,-0.56877 z M 33.533782,99.745928 c 0,-0.622426 0.04904,-0.877055 0.108985,-0.565842 0.05994,0.311213 0.05994,0.820474 0,1.131684 -0.05994,0.31121 -0.108985,0.0566 -0.108985,-0.565842 z m -0.04864,-1.65561 c 0.01207,-0.292968 0.07166,-0.352557 0.151939,-0.15194 0.07265,0.18154 0.06371,0.398448 -0.01985,0.482014 -0.08357,0.08357 -0.143005,-0.06497 -0.132085,-0.330074 z M 161.99405,97.838833 c 0.0121,-0.292968 0.0717,-0.352557 0.15193,-0.15194 0.0726,0.18154 0.0637,0.398448 -0.0198,0.482014 -0.0836,0.08357 -0.143,-0.06497 -0.13208,-0.330074 z M 33.756479,91.949888 c 0,-0.345792 0.05708,-0.487252 0.126846,-0.314356 0.06977,0.172896 0.06977,0.455817 0,0.628713 -0.06976,0.172896 -0.126846,0.03144 -0.126846,-0.314357 z M 90.165814,77.615235 c 0,-6.708366 0.03241,-9.452697 0.07203,-6.098514 0.03961,3.354183 0.03961,8.842846 0,12.197029 -0.03961,3.354183 -0.07203,0.609851 -0.07203,-6.098515 z M 47.296969,46.587614 c 0,-0.05222 0.198044,-0.250267 0.440099,-0.440099 0.398869,-0.312815 0.407764,-0.30392 0.09495,0.09495 -0.328532,0.418911 -0.535048,0.55213 -0.535049,0.345149 z M 91.877495,32.928089 c 0.244687,-0.06376 0.584192,-0.05957 0.754455,0.0093 0.170263,0.06889 -0.02993,0.121057 -0.444885,0.115932 -0.41495,-0.0051 -0.554258,-0.06149 -0.30957,-0.125251 z m 11.316835,0 c 0.24468,-0.06376 0.58419,-0.05957 0.75445,0.0093 0.17026,0.06889 -0.0299,0.121057 -0.44488,0.115932 -0.41495,-0.0051 -0.55426,-0.06149 -0.30957,-0.125251 z"
           id="path258" /><path
           style="fill:#b6da87;stroke-width:0.251485"
           d="m 93.633105,161.18643 c 0.242054,-0.0633 0.638143,-0.0633 0.880198,0 0.242054,0.0633 0.04401,0.11501 -0.440099,0.11501 -0.484109,0 -0.682153,-0.0518 -0.440099,-0.11501 z m 7.293065,0 c 0.24206,-0.0633 0.63815,-0.0633 0.8802,0 0.24206,0.0633 0.044,0.11501 -0.4401,0.11501 -0.48411,0 -0.68215,-0.0518 -0.4401,-0.11501 z m -54.415735,-12.841 c -0.312815,-0.39887 -0.30392,-0.40777 0.09495,-0.0949 0.242055,0.18983 0.440099,0.38788 0.440099,0.4401 0,0.20698 -0.206516,0.0738 -0.535048,-0.34515 z m 43.602426,-20.55891 c 0.0028,-0.55327 0.05429,-0.74999 0.114446,-0.43717 0.06015,0.31283 0.05787,0.7655 -0.0051,1.00594 -0.06294,0.24045 -0.112162,-0.0155 -0.109371,-0.56877 z m 14.630229,-17.98119 c 0,-3.11213 0.0361,-4.38527 0.0802,-2.8292 0.0441,1.55606 0.0441,4.10235 0,5.65841 -0.0441,1.55607 -0.0802,0.28292 -0.0802,-2.82921 z m 56.74799,1.86519 c 0.0121,-0.29297 0.0716,-0.35256 0.15193,-0.15194 0.0727,0.18154 0.0637,0.39844 -0.0198,0.48201 -0.0836,0.0836 -0.143,-0.065 -0.13208,-0.33007 z m 0.53214,-12.80479 c 0.005,-0.414951 0.0615,-0.554259 0.12525,-0.309571 0.0638,0.244687 0.0596,0.584192 -0.009,0.754455 -0.0689,0.170263 -0.12106,-0.02993 -0.11593,-0.444884 z M 33.765798,93.081571 c 0.0051,-0.41495 0.06149,-0.554258 0.12525,-0.30957 0.06376,0.244687 0.05957,0.584192 -0.0093,0.754455 -0.06889,0.170263 -0.121056,-0.02993 -0.115931,-0.444885 z M 161.76241,92.201373 c 0,-0.345792 0.0571,-0.487252 0.12685,-0.314356 0.0698,0.172896 0.0698,0.455817 0,0.628713 -0.0698,0.172896 -0.12685,0.03144 -0.12685,-0.314357 z M 104.75195,77.615235 c 0,-6.708366 0.0324,-9.452697 0.072,-6.098514 0.0396,3.354183 0.0396,8.842846 0,12.197029 -0.0396,3.354183 -0.072,0.609851 -0.072,-6.098515 z M 34.491081,83.50418 c 0.01207,-0.292968 0.07166,-0.352557 0.151939,-0.15194 0.07265,0.18154 0.06371,0.398446 -0.01985,0.482014 -0.08357,0.08357 -0.143005,-0.06497 -0.132085,-0.330074 z M 97.028154,58.335812 c 0.172896,-0.06976 0.455817,-0.06976 0.628713,0 0.172896,0.06976 0.03144,0.126846 -0.314356,0.126846 -0.345792,0 -0.487253,-0.05708 -0.314357,-0.126846 z M 93.25881,32.924501 c 0.312824,-0.06015 0.765498,-0.05787 1.00594,0.0051 0.240443,0.06295 -0.01551,0.112161 -0.568774,0.10937 -0.553267,-0.0028 -0.749991,-0.05429 -0.437166,-0.114445 z m 8.29901,0 c 0.31282,-0.06015 0.7655,-0.05787 1.00594,0.0051 0.24044,0.06295 -0.0155,0.112161 -0.56877,0.10937 -0.55327,-0.0028 -0.75,-0.05429 -0.43717,-0.114445 z"
           id="path256" /><path
           style="fill:#a3d065;stroke-width:0.251485"
           d="m 95.142016,161.18643 c 0.242054,-0.0633 0.638143,-0.0633 0.880198,0 0.242054,0.0633 0.04401,0.11501 -0.440099,0.11501 -0.484109,0 -0.682154,-0.0518 -0.440099,-0.11501 z m 4.275247,0 c 0.242055,-0.0633 0.638147,-0.0633 0.880197,0 0.24206,0.0633 0.044,0.11501 -0.440098,0.11501 -0.484109,0 -0.682153,-0.0518 -0.440099,-0.11501 z M 45.75598,147.59097 c -0.312816,-0.39887 -0.303921,-0.40776 0.09495,-0.095 0.242054,0.18984 0.440099,0.38788 0.440099,0.4401 0,0.20699 -0.206516,0.0738 -0.535048,-0.34515 z m 103.64395,0.34515 c 0,-0.0522 0.19805,-0.25026 0.4401,-0.4401 0.39887,-0.31281 0.40777,-0.30392 0.0949,0.095 -0.32853,0.41892 -0.53505,0.55214 -0.53505,0.34515 z m -108.267272,-7.2557 c -0.639659,-1.21318 -1.085708,-2.20578 -0.991221,-2.20578 0.09449,0 -0.01358,-0.28292 -0.240154,-0.62871 -0.226572,-0.3458 -0.348774,-0.62872 -0.27156,-0.62872 0.07721,0 -10e-4,-0.25463 -0.173905,-0.56584 -0.172861,-0.31121 -0.325176,-0.62242 -0.338477,-0.69158 -0.04507,-0.23432 -1.389157,-4.39846 -1.542302,-4.77822 -0.08367,-0.20748 -0.195775,-0.71673 -0.249127,-1.13168 -0.05335,-0.41495 -0.208931,-0.79242 -0.345729,-0.83881 -0.136798,-0.0464 -0.194714,-0.17174 -0.128701,-0.27855 0.06601,-0.10681 0.0039,-0.57811 -0.137965,-1.04733 -0.453144,-1.49849 -0.736379,-2.79744 -0.761804,-3.49373 -0.0076,-0.20747 -0.07542,-0.54698 -0.150757,-0.75445 -0.07534,-0.20748 -0.169465,-0.60357 -0.209166,-0.8802 -0.0397,-0.27664 -0.127709,-0.78589 -0.195575,-1.13169 -0.218018,-1.11085 -0.534501,-3.30982 -0.796277,-5.53267 -0.08959,-0.76074 -0.198081,-1.66609 -0.24109,-2.01188 -0.668466,-5.37441 -0.690955,-21.15541 -0.03924,-27.537622 2.029729,-19.877121 7.0295,-34.280891 14.205594,-40.924688 6.862023,-6.353023 20.73666,-10.792857 38.380679,-12.28168 4.854538,-0.409631 17.024669,-0.409631 21.879199,0 4.79168,0.404328 11.27079,1.325734 15.11702,2.14982 3.77085,0.807936 9.18408,2.354056 9.57213,2.733981 0.16229,0.158898 0.55668,1.760094 0.8764,3.558212 0.51175,2.877987 0.58076,4.066999 0.57659,9.933663 -0.005,7.098855 -0.24467,9.499431 -1.5171,15.198618 -1.57728,7.064605 -4.67876,15.43571 -7.90256,21.329598 l -0.79095,1.44604 h -9.90009 -9.9001 l -0.0776,-12.762871 -0.0776,-12.76287 -0.65616,-1.383169 c -1.13509,-2.392715 -2.90506,-3.79654 -5.358595,-4.250103 -3.382228,-0.625238 -6.658946,1.160674 -8.144152,4.438815 -0.380729,0.84034 -0.435447,2.345738 -0.502762,13.831585 l -0.07553,12.888613 H 77.633907 c -13.711352,0 -14.006394,0.02922 -16.052266,1.589655 -0.689708,0.526057 -1.382265,1.4071 -1.922352,2.445535 -0.795591,1.529691 -0.838263,1.740491 -0.740546,3.658271 0.120912,2.372953 0.783509,3.763477 2.488941,5.223257 1.955075,1.67348 1.916239,1.66942 15.986558,1.66942 h 12.6552 l -5.03e-4,11.3797 -5.03e-4,11.3797 -1.82278,1.15945 c -12.672388,8.06074 -27.183699,13.14609 -40.802945,14.29898 -5.781519,0.48942 -4.951732,0.72821 -6.290053,-1.81007 z m 63.612752,-18.8038 c 0,-3.6654 0.0352,-5.16488 0.0781,-3.33218 0.043,1.8327 0.043,4.83166 0,6.66436 -0.043,1.8327 -0.0781,0.33322 -0.0781,-3.33218 z m 0.14165,-12.17701 v -5.42695 h 5.05084 5.05083 l -0.83845,1.06783 c -1.56045,1.98732 -6.02734,6.84548 -7.64994,8.32001 l -1.61328,1.46605 z m 56.87535,-16.492296 c 0,-0.345792 0.0571,-0.487253 0.12685,-0.314356 0.0698,0.172896 0.0698,0.455816 0,0.628712 -0.0698,0.172896 -0.12685,0.03144 -0.12685,-0.314356 z"
           id="path254" /><path
           style="fill:#95c94e;stroke-width:0.251485"
           d="m 96.525184,161.19323 c 0.172896,-0.0698 0.455817,-0.0698 0.628713,0 0.172896,0.0698 0.03144,0.12685 -0.314357,0.12685 -0.345792,0 -0.487252,-0.0571 -0.314356,-0.12685 z m 1.760396,0 c 0.172896,-0.0698 0.455817,-0.0698 0.628713,0 0.172896,0.0698 0.03144,0.12685 -0.314357,0.12685 -0.345792,0 -0.487252,-0.0571 -0.314356,-0.12685 z M 42.837894,142.82709 c 0.244686,-0.0638 0.584191,-0.0596 0.754455,0.009 0.170264,0.0689 -0.02994,0.12106 -0.444885,0.11594 -0.414951,-0.005 -0.554257,-0.0615 -0.30957,-0.12525 z m 3.772277,-0.25148 c 0.244686,-0.0638 0.584191,-0.0596 0.754455,0.009 0.170264,0.0689 -0.02994,0.12106 -0.444885,0.11593 -0.414951,-0.005 -0.554257,-0.0615 -0.30957,-0.12525 z m 2.635807,-0.24376 c 0.172896,-0.0698 0.455817,-0.0698 0.628713,0 0.172896,0.0698 0.03144,0.12684 -0.314356,0.12684 -0.345792,0 -0.487253,-0.0571 -0.314357,-0.12684 z m 2.027599,-0.25673 c 0.181541,-0.0726 0.398447,-0.0637 0.482014,0.0198 0.08357,0.0836 -0.06497,0.143 -0.330075,0.13208 -0.292966,-0.0121 -0.352557,-0.0717 -0.151939,-0.15194 z m 1.760396,-0.25148 c 0.181541,-0.0727 0.398447,-0.0637 0.482013,0.0198 0.08357,0.0836 -0.06497,0.14301 -0.330074,0.13209 -0.292966,-0.0121 -0.352557,-0.0717 -0.151939,-0.15194 z m 2.766337,-0.50297 c 0.181541,-0.0727 0.398446,-0.0637 0.482013,0.0198 0.08357,0.0836 -0.06497,0.143 -0.330074,0.13209 -0.292966,-0.0121 -0.352557,-0.0717 -0.151939,-0.15194 z M 37.005932,129.52596 c 0.01207,-0.29297 0.07166,-0.35256 0.151939,-0.15194 0.07265,0.18154 0.06371,0.39845 -0.01985,0.48201 -0.08357,0.0836 -0.143005,-0.065 -0.132085,-0.33007 z m -1.257426,-5.53267 c 0.01207,-0.29297 0.07166,-0.35256 0.151939,-0.15194 0.07265,0.18154 0.06371,0.39845 -0.01985,0.48201 -0.08357,0.0836 -0.143004,-0.065 -0.132085,-0.33007 z m -0.251485,-1.25743 c 0.01207,-0.29297 0.07166,-0.35256 0.151939,-0.15194 0.07265,0.18154 0.06371,0.39845 -0.01985,0.48202 -0.08357,0.0836 -0.143004,-0.065 -0.132085,-0.33008 z m -0.754455,-4.77822 c 0.01207,-0.29296 0.07166,-0.35255 0.151939,-0.15194 0.07265,0.18154 0.06371,0.39845 -0.01985,0.48202 -0.08357,0.0836 -0.143005,-0.065 -0.132085,-0.33008 z m -0.251485,-2.01188 c 0.01207,-0.29297 0.07166,-0.35255 0.151939,-0.15194 0.07265,0.18154 0.06371,0.39845 -0.01985,0.48202 -0.08357,0.0836 -0.143005,-0.065 -0.132085,-0.33008 z m 71.391419,-1.67657 c 0.61664,-0.657 1.15419,-1.19455 1.19455,-1.19455 0.18884,0 -0.0108,0.22579 -1.12117,1.26793 l -1.19456,1.12118 z m 2.77684,-2.78215 c 0,-0.0433 0.3678,-0.41108 0.81733,-0.81733 l 0.81733,-0.73863 -0.73864,0.81732 c -0.68851,0.76187 -0.89602,0.93292 -0.89602,0.73864 z m 3.26931,-3.56785 c 0.46921,-0.4841 0.9097,-0.88019 0.97886,-0.88019 0.0692,0 -0.25816,0.39609 -0.72738,0.88019 -0.46921,0.48411 -0.9097,0.8802 -0.97886,0.8802 -0.0692,0 0.25816,-0.39609 0.72738,-0.8802 z m 1.25742,-1.47811 c 0,-0.0522 0.19805,-0.25027 0.4401,-0.4401 0.39887,-0.31282 0.40777,-0.30392 0.0949,0.0949 -0.32853,0.41891 -0.53505,0.55213 -0.53505,0.34515 z m 1.00594,-1.25743 c 0,-0.0522 0.19805,-0.25027 0.4401,-0.4401 0.39887,-0.31281 0.40777,-0.30392 0.0949,0.0949 -0.32853,0.41891 -0.53505,0.55213 -0.53505,0.34515 z M 134.0792,63.385369 c 0.0121,-0.292968 0.0717,-0.352557 0.15193,-0.15194 0.0726,0.18154 0.0637,0.398446 -0.0198,0.482014 -0.0836,0.08357 -0.143,-0.06497 -0.13208,-0.330074 z m 0.25148,-1.760396 c 0.0121,-0.292968 0.0717,-0.352557 0.15194,-0.15194 0.0726,0.18154 0.0637,0.398446 -0.0198,0.482014 -0.0836,0.08357 -0.14301,-0.06497 -0.13209,-0.330074 z m 0.25149,-1.760396 c 0.0121,-0.292968 0.0717,-0.352557 0.15193,-0.15194 0.0726,0.18154 0.0637,0.398446 -0.0198,0.482014 -0.0836,0.08357 -0.143,-0.06497 -0.13208,-0.330074 z m 0.30012,-2.368152 c 0,-0.622426 0.049,-0.877055 0.10899,-0.565842 0.0599,0.311213 0.0599,0.82047 0,1.131683 -0.0599,0.311213 -0.10899,0.05658 -0.10899,-0.565841 z m 0.28222,-6.161386 c 5e-4,-1.936436 0.0399,-2.695371 0.0877,-1.686523 0.0479,1.008849 0.0475,2.593205 -7.5e-4,3.520792 -0.0482,0.927588 -0.0874,0.102166 -0.087,-1.834269 z m -0.30169,-5.281188 c 0.005,-0.414951 0.0615,-0.554257 0.12525,-0.30957 0.0638,0.244686 0.0596,0.584191 -0.009,0.754455 -0.0689,0.170264 -0.12104,-0.02994 -0.11592,-0.444885 z m -0.25148,-2.514852 c 0.005,-0.41495 0.0615,-0.554257 0.12525,-0.30957 0.0638,0.244687 0.0596,0.584192 -0.009,0.754456 -0.0689,0.170263 -0.12105,-0.02994 -0.11592,-0.444886 z m -0.28066,-1.529867 c 0.0121,-0.292966 0.0717,-0.352557 0.15194,-0.151939 0.0726,0.18154 0.0637,0.398446 -0.0198,0.482013 -0.0836,0.08357 -0.14301,-0.06497 -0.13209,-0.330074 z"
           id="path252" /><path
           style="fill:#8cc53f;stroke-width:0.251485"
           d="m 94.576174,161.18316 c -10.106825,-0.17784 -21.447791,-1.68838 -29.741065,-3.96131 -7.715517,-2.11459 -14.058561,-5.20666 -17.919392,-8.73524 -1.377458,-1.25892 -4.517904,-5.19664 -4.310154,-5.40439 0.06024,-0.0602 1.564834,-0.21627 3.343538,-0.34673 14.234886,-1.04403 28.785457,-5.94748 41.742099,-14.06684 l 2.294236,-1.43769 0.154895,1.48196 c 0.223912,2.14227 1.02907,3.80736 2.465601,5.09892 3.683216,3.31153 9.537858,2.05758 11.567448,-2.47752 0.54755,-1.22351 0.57922,-1.62959 0.66764,-8.56099 l 0.0928,-7.27656 3.76019,-3.91453 c 2.06811,-2.15299 4.34924,-4.67398 5.06919,-5.60219 l 1.30898,-1.68766 7.56263,-0.01 c 8.87392,-0.0116 9.2703,-0.0862 11.31516,-2.13109 2.27904,-2.279046 2.79653,-5.500495 1.34895,-8.39737 -1.45329,-2.908287 -3.67281,-4.067558 -7.78766,-4.067558 -1.37798,0 -2.50405,-0.08488 -2.50238,-0.188614 0.002,-0.103737 0.29793,-0.697871 0.65836,-1.320297 0.96692,-1.669748 3.27459,-6.788026 4.42208,-9.80792 4.85401,-12.774505 6.39338,-26.529616 4.19088,-37.4479 -0.26248,-1.301148 -0.42208,-2.420877 -0.35467,-2.488287 0.37397,-0.373963 7.07992,2.775709 9.90822,4.653718 4.21948,2.801765 7.28711,6.559984 9.9408,12.178676 4.98431,10.553382 7.76238,25.098095 8.1115,42.468148 0.3508,17.454054 -2.08301,31.964344 -7.07006,42.151384 -3.21555,6.56839 -6.59124,9.98084 -13.099,13.24165 -10.6005,5.31154 -28.57224,8.3828 -47.140846,8.05608 z"
           id="path250" /></g></g></g></svg>
