<?xml version="1.0" encoding="UTF-8" standalone="no"?>
<!-- Created with Inkscape (http://www.inkscape.org/) -->

<svg
   width="7.4083309mm"
   height="7.4089732mm"
   viewBox="0 0 7.408331 7.408973"
   version="1.1"
   id="svg5"
   xml:space="preserve"
   sodipodi:docname="delete.svg"
   inkscape:version="1.2 (dc2aedaf03, 2022-05-15)"
   xmlns:inkscape="http://www.inkscape.org/namespaces/inkscape"
   xmlns:sodipodi="http://sodipodi.sourceforge.net/DTD/sodipodi-0.dtd"
   xmlns="http://www.w3.org/2000/svg"
   xmlns:svg="http://www.w3.org/2000/svg"><sodipodi:namedview
     id="namedview7"
     pagecolor="#ffffff"
     bordercolor="#666666"
     borderopacity="1.0"
     inkscape:showpageshadow="2"
     inkscape:pageopacity="0.0"
     inkscape:pagecheckerboard="0"
     inkscape:deskcolor="#d1d1d1"
     inkscape:document-units="mm"
     showgrid="false"
     inkscape:zoom="1"
     inkscape:cx="260"
     inkscape:cy="277"
     inkscape:window-width="1600"
     inkscape:window-height="831"
     inkscape:window-x="1920"
     inkscape:window-y="107"
     inkscape:window-maximized="1"
     inkscape:current-layer="layer1" /><defs
     id="defs2" /><g
     inkscape:label="Layer 1"
     inkscape:groupmode="layer"
     id="layer1"
     transform="translate(216.82223,145.33114)"><path
       style="fill:#c83737;stroke-width:0.01448"
       d="m -216.1589,-137.94249 c -0.20161,-0.0437 -0.39281,-0.17532 -0.51395,-0.35391 -0.17723,-0.26127 -0.19772,-0.58067 -0.0558,-0.86868 0.0511,-0.10393 0.10382,-0.15897 1.22718,-1.28511 l 1.17364,-1.1765 -1.17364,-1.17649 c -1.12341,-1.12613 -1.17594,-1.18115 -1.22718,-1.28511 -0.14021,-0.2844 -0.12202,-0.60397 0.0489,-0.85951 0.245,-0.36633 0.70071,-0.48619 1.09999,-0.28938 0.10393,0.0512 0.15896,0.10382 1.28509,1.22718 l 1.17651,1.17366 1.1765,-1.17441 c 1.13344,-1.13144 1.18048,-1.17633 1.28509,-1.22709 0.29037,-0.14086 0.60813,-0.12102 0.86553,0.0541 0.36124,0.24569 0.47859,0.69936 0.28336,1.09549 -0.0512,0.10394 -0.10361,0.15887 -1.22718,1.28512 l -1.17364,1.17649 1.17364,1.1765 c 1.12341,1.12613 1.17595,1.18114 1.22719,1.28511 0.16214,0.3289 0.11189,0.6937 -0.13427,0.97401 -0.0705,0.0803 -0.24997,0.19407 -0.36004,0.22825 -0.21665,0.0673 -0.44812,0.0483 -0.65459,-0.0533 -0.10393,-0.0513 -0.15895,-0.10382 -1.28509,-1.22717 l -1.1765,-1.17367 -1.17651,1.17367 c -1.12624,1.12351 -1.18114,1.17593 -1.28509,1.22717 -0.1853,0.0913 -0.3822,0.11636 -0.5792,0.0737 z"
       id="path606" /></g></svg>
