<?xml version="1.0" encoding="UTF-8" standalone="no"?>
<!-- Created with Inkscape (http://www.inkscape.org/) -->

<svg
   width="7.9380164mm"
   height="7.937542mm"
   viewBox="0 0 7.9380163 7.9375421"
   version="1.1"
   id="svg5"
   xml:space="preserve"
   sodipodi:docname="edit.svg"
   inkscape:version="1.2 (dc2aedaf03, 2022-05-15)"
   xmlns:inkscape="http://www.inkscape.org/namespaces/inkscape"
   xmlns:sodipodi="http://sodipodi.sourceforge.net/DTD/sodipodi-0.dtd"
   xmlns="http://www.w3.org/2000/svg"
   xmlns:svg="http://www.w3.org/2000/svg"><sodipodi:namedview
     id="namedview7"
     pagecolor="#ffffff"
     bordercolor="#666666"
     borderopacity="1.0"
     inkscape:showpageshadow="2"
     inkscape:pageopacity="0.0"
     inkscape:pagecheckerboard="0"
     inkscape:deskcolor="#d1d1d1"
     inkscape:document-units="mm"
     showgrid="false"
     inkscape:zoom="1"
     inkscape:cx="327"
     inkscape:cy="271"
     inkscape:window-width="1600"
     inkscape:window-height="831"
     inkscape:window-x="1920"
     inkscape:window-y="107"
     inkscape:window-maximized="1"
     inkscape:current-layer="layer1" /><defs
     id="defs2" /><g
     inkscape:label="Layer 1"
     inkscape:groupmode="layer"
     id="layer1"
     transform="translate(234.59507,-46.785624)"><path
       style="fill:#ff7f2a;stroke-width:0.0155242"
       d="m -233.91947,54.685037 c -0.29632,-0.104749 -0.53201,-0.344369 -0.63482,-0.64543 l -0.0346,-0.100993 -0.004,-2.462655 c -0.005,-2.736947 -0.0108,-2.580411 0.0987,-2.80454 0.13863,-0.28492 0.41356,-0.491593 0.72572,-0.545555 0.10693,-0.01848 0.36678,-0.02157 1.51577,-0.01801 l 1.38678,0.0042 0.0732,0.04314 c 0.13052,0.07685 0.19204,0.231834 0.15071,0.379674 -0.0258,0.09208 -0.12189,0.191959 -0.21026,0.21841 -0.0484,0.0145 -0.39588,0.01911 -1.43913,0.01911 -1.50414,0 -1.43563,-0.004 -1.53471,0.09017 -0.0242,0.02304 -0.0575,0.06797 -0.0738,0.09983 -0.0289,0.05647 -0.0297,0.118849 -0.0257,2.479332 l 0.005,2.421402 0.0388,0.05738 c 0.0214,0.03155 0.0661,0.07649 0.0995,0.09985 l 0.0607,0.04247 2.39775,0.0046 c 1.69699,0.0032 2.41483,-3.53e-4 2.45618,-0.01235 0.0686,-0.0199 0.1572,-0.09349 0.19443,-0.161559 0.0241,-0.04405 0.027,-0.17096 0.0341,-1.478765 l 0.007,-1.430574 0.0428,-0.06475 c 0.0616,-0.09318 0.14569,-0.143817 0.25477,-0.153349 0.12438,-0.01092 0.23959,0.04829 0.30713,0.15772 l 0.0467,0.07578 v 1.446179 c 0,1.351557 -0.001,1.452698 -0.0282,1.545825 -0.0946,0.333838 -0.33955,0.594664 -0.65118,0.693297 l -0.12101,0.03829 -2.51583,-3.08e-4 -2.51584,-3.08e-4 z m 2.22517,-2.795715 c -0.0451,-0.02502 -0.078,-0.08114 -0.0787,-0.134277 -6e-4,-0.05082 0.22683,-1.19092 0.24806,-1.242923 0.008,-0.02166 0.60915,-0.63342 1.334,-1.359479 l 1.31794,-1.320107 0.5855,0.586498 0.5855,0.586497 -1.31787,1.320174 c -0.72482,0.726096 -1.33555,1.32742 -1.35716,1.336275 -0.052,0.02126 -1.19008,0.249183 -1.24081,0.248473 -0.0217,-3.08e-4 -0.056,-0.0098 -0.0764,-0.02113 z m 3.75198,-3.823734 -0.58145,-0.582594 0.24804,-0.249177 c 0.27715,-0.278412 0.35896,-0.341848 0.51319,-0.397925 0.30334,-0.110293 0.63026,-0.03634 0.86099,0.194809 0.27046,0.270918 0.32144,0.67081 0.12838,1.006892 -0.0371,0.06446 -0.55484,0.61059 -0.57892,0.61059 -0.005,0 -0.27044,-0.262169 -0.59023,-0.582595 z"
       id="path302" /></g></svg>
