<?xml version="1.0" encoding="UTF-8" standalone="no"?>
<!-- Created with Inkscape (http://www.inkscape.org/) -->

<svg
   width="131.36162mm"
   height="131.36162mm"
   viewBox="0 0 131.36162 131.36162"
   version="1.1"
   id="svg5"
   xml:space="preserve"
   inkscape:version="1.2 (dc2aedaf03, 2022-05-15)"
   sodipodi:docname="girl.svg"
   xmlns:inkscape="http://www.inkscape.org/namespaces/inkscape"
   xmlns:sodipodi="http://sodipodi.sourceforge.net/DTD/sodipodi-0.dtd"
   xmlns="http://www.w3.org/2000/svg"
   xmlns:svg="http://www.w3.org/2000/svg"><sodipodi:namedview
     id="namedview7"
     pagecolor="#ffffff"
     bordercolor="#666666"
     borderopacity="1.0"
     inkscape:showpageshadow="2"
     inkscape:pageopacity="0.0"
     inkscape:pagecheckerboard="0"
     inkscape:deskcolor="#d1d1d1"
     inkscape:document-units="mm"
     showgrid="false"
     inkscape:zoom="0.61112514"
     inkscape:cx="33.544684"
     inkscape:cy="350.17378"
     inkscape:window-width="1600"
     inkscape:window-height="831"
     inkscape:window-x="1920"
     inkscape:window-y="107"
     inkscape:window-maximized="1"
     inkscape:current-layer="layer1" /><defs
     id="defs2" /><g
     inkscape:label="Layer 1"
     inkscape:groupmode="layer"
     id="layer1"
     transform="translate(-45.585957,-21.341057)"><g
       id="g302"
       transform="translate(-0.0697664,0.11201485)"><path
         style="fill:#fbc68d;stroke-width:0.256566"
         d="m 74.903467,152.52488 c 0.24963,-0.065 0.595994,-0.0608 0.769697,0.01 0.173702,0.0703 -0.03054,0.1235 -0.453873,0.11827 -0.423333,-0.005 -0.565455,-0.0627 -0.315824,-0.12778 z m 72.094953,0 c 0.24963,-0.065 0.59599,-0.0608 0.7697,0.01 0.1737,0.0703 -0.0305,0.1235 -0.45388,0.11827 -0.42333,-0.005 -0.56545,-0.0627 -0.31582,-0.12778 z m -75.90032,-1.93887 -0.753556,-0.83384 0.833838,0.75356 c 0.458611,0.41445 0.833838,0.78968 0.833838,0.83384 0,0.19821 -0.2117,0.0237 -0.91412,-0.75356 z m 79.42321,0.75356 c 0,-0.0442 0.37523,-0.41939 0.83384,-0.83384 l 0.83384,-0.75356 -0.75356,0.83384 c -0.70242,0.77726 -0.91412,0.95177 -0.91412,0.75356 z M 69.266882,145.7754 c 0,-0.77611 0.0481,-1.09361 0.106882,-0.70555 0.05879,0.38805 0.05879,1.02305 0,1.41111 -0.05879,0.38806 -0.106882,0.0706 -0.106882,-0.70556 z m 83.896968,0 c 0,-0.77611 0.0481,-1.09361 0.10689,-0.70555 0.0588,0.38805 0.0588,1.02305 0,1.41111 -0.0588,0.38806 -0.10689,0.0706 -0.10689,-0.70556 z m -83.676776,-2.82222 c 0,-0.35278 0.05823,-0.49709 0.129408,-0.32071 0.07117,0.17639 0.07117,0.46503 0,0.64142 -0.07117,0.17639 -0.129408,0.0321 -0.129408,-0.32071 z m 83.383836,0 c 0,-0.35278 0.0582,-0.49709 0.12941,-0.32071 0.0712,0.17639 0.0712,0.46503 0,0.64142 -0.0712,0.17639 -0.12941,0.0321 -0.12941,-0.32071 z m -83.147525,-1.94562 c 0.01231,-0.29889 0.07311,-0.35968 0.155008,-0.15501 0.07411,0.18521 0.065,0.4065 -0.02026,0.49175 -0.08526,0.0853 -0.145894,-0.0663 -0.134753,-0.33674 z m 82.870705,0 c 0.0123,-0.29889 0.0731,-0.35968 0.15501,-0.15501 0.0741,0.18521 0.065,0.4065 -0.0202,0.49175 -0.0853,0.0853 -0.1459,-0.0663 -0.13475,-0.33674 z M 70.000206,139.1047 c 0,-0.35278 0.05823,-0.4971 0.129408,-0.32071 0.07117,0.17639 0.07117,0.46502 0,0.64141 -0.07117,0.17639 -0.129408,0.0321 -0.129408,-0.3207 z m 82.357574,0 c 0,-0.35278 0.0582,-0.4971 0.12941,-0.32071 0.0712,0.17639 0.0712,0.46502 0,0.64141 -0.0712,0.17639 -0.12941,0.0321 -0.12941,-0.3207 z m -82.121264,-1.94563 c 0.01231,-0.29888 0.07311,-0.35967 0.155008,-0.155 0.07411,0.1852 0.065,0.40649 -0.02026,0.49175 -0.08525,0.0853 -0.145893,-0.0663 -0.134753,-0.33675 z m 81.844444,0 c 0.0123,-0.29888 0.0731,-0.35967 0.15501,-0.155 0.0741,0.1852 0.065,0.40649 -0.0202,0.49175 -0.0853,0.0853 -0.1459,-0.0663 -0.13476,-0.33675 z m -81.567623,-1.90286 c 0,-0.35278 0.05823,-0.49709 0.129408,-0.32071 0.07117,0.17639 0.07117,0.46503 0,0.64142 -0.07118,0.17639 -0.129408,0.0321 -0.129408,-0.32071 z m 81.331313,0 c 0,-0.35278 0.0582,-0.49709 0.12941,-0.32071 0.0712,0.17639 0.0712,0.46503 0,0.64142 -0.0712,0.17639 -0.12941,0.0321 -0.12941,-0.32071 z m -81.095003,-1.94562 c 0.01231,-0.29889 0.07311,-0.35968 0.155009,-0.15501 0.07411,0.18521 0.065,0.4065 -0.02026,0.49175 -0.08526,0.0853 -0.145894,-0.0663 -0.134754,-0.33674 z m 80.818183,0 c 0.0123,-0.29889 0.0731,-0.35968 0.15501,-0.15501 0.0741,0.18521 0.065,0.4065 -0.0202,0.49175 -0.0853,0.0853 -0.1459,-0.0663 -0.13476,-0.33674 z m -80.541362,-1.90286 c 0,-0.35278 0.05823,-0.4971 0.129408,-0.32071 0.07117,0.17639 0.07117,0.46503 0,0.64141 -0.07117,0.17639 -0.129408,0.0321 -0.129408,-0.3207 z m 80.305052,0 c 0,-0.35278 0.0582,-0.4971 0.12941,-0.32071 0.0712,0.17639 0.0712,0.46503 0,0.64141 -0.0712,0.17639 -0.12941,0.0321 -0.12941,-0.3207 z M 71.262779,129.4621 c 0.01232,-0.29888 0.07311,-0.35967 0.155007,-0.155 0.07411,0.1852 0.065,0.40649 -0.02024,0.49175 -0.08526,0.0853 -0.145894,-0.0663 -0.134753,-0.33675 z m 79.791921,0 c 0.0123,-0.29888 0.0731,-0.35967 0.15501,-0.155 0.0741,0.1852 0.065,0.40649 -0.0203,0.49175 -0.0853,0.0853 -0.14589,-0.0663 -0.13475,-0.33675 z m -79.515102,-1.90286 c 0,-0.35278 0.05823,-0.49709 0.129409,-0.32071 0.07117,0.17639 0.07117,0.46503 0,0.64142 -0.07117,0.17639 -0.129409,0.0321 -0.129409,-0.32071 z m 79.278792,0 c 0,-0.35278 0.0582,-0.49709 0.12941,-0.32071 0.0712,0.17639 0.0712,0.46503 0,0.64142 -0.0712,0.17639 -0.12941,0.0321 -0.12941,-0.32071 z m -91.397306,-16.09949 -0.621995,-0.70556 0.705555,0.622 c 0.659448,0.58135 0.823214,0.78911 0.621996,0.78911 -0.04596,0 -0.363458,-0.3175 -0.705556,-0.70555 z m 103.415386,0.0641 c 0.33141,-0.35278 0.6603,-0.64142 0.73086,-0.64142 0.0705,0 -0.14288,0.28864 -0.4743,0.64142 -0.33142,0.35278 -0.6603,0.64141 -0.73086,0.64141 -0.0706,0 0.14288,-0.28863 0.4743,-0.64141 z m -53.81015,-8.86257 c -3.48031,-0.36044 -4.15666,-0.63629 -7.02366,-2.864605 C 96.390625,95.434881 91.41027,90.691762 90.106727,88.46743 88.767983,86.183038 88.694759,85.53502 88.691765,75.945299 l -0.0028,-8.895763 1.346969,-1.186457 c 2.033668,-1.791326 5.888488,-4.336873 11.866166,-7.835877 6.78367,-3.970788 9.5799,-5.846798 11.50466,-7.718573 l 1.52162,-1.479732 1.31211,0.960997 c 0.72167,0.528549 4.25621,2.938513 7.85454,5.35548 3.59833,2.416967 7.7547,5.366463 9.23636,6.554437 4.71601,3.781208 7.73049,7.403818 8.88703,10.679859 0.54561,1.545485 0.59553,2.113105 0.60049,6.827181 0.006,5.579462 -0.20754,6.980988 -1.43483,9.422862 -0.95057,1.891294 -2.78202,3.957723 -4.4808,5.055693 -1.34723,0.870761 -15.151,6.788174 -18.55397,7.953734 -2.70083,0.92507 -6.37308,1.3277 -9.32301,1.02218 z m 6.84736,-11.528581 c 2.71696,-0.56058 5.37097,-1.743702 6.15909,-2.745637 0.75445,-0.95912 0.67163,-2.025661 -0.22708,-2.924364 -0.9452,-0.945206 -1.51167,-0.940811 -3.49856,0.02713 -0.87732,0.427405 -2.38735,0.944947 -3.35563,1.150092 -3.59276,0.761194 -7.70757,0.31995 -10.7251,-1.150092 -1.98689,-0.967945 -2.55336,-0.97234 -3.49856,-0.02713 -1.482732,1.482729 -0.80098,3.049157 1.90737,4.382475 3.44398,1.695463 8.75695,2.212181 13.23847,1.287526 z M 96.992387,75.056578 c 0.621833,-0.621833 0.6764,-0.847672 0.6764,-2.799416 0,-2.072686 -0.01942,-2.139365 -0.819645,-2.812701 -0.663312,-0.558141 -0.990698,-0.661927 -1.716481,-0.544148 -1.521945,0.246978 -1.937115,0.905182 -2.043104,3.239111 -0.09003,1.98255 -0.07078,2.0618 0.684165,2.81675 1.021006,1.021003 2.259433,1.059637 3.218665,0.100404 z m 31.767423,-0.100404 c 0.75495,-0.75495 0.7742,-0.8342 0.68417,-2.81675 -0.10599,-2.333929 -0.52116,-2.992133 -2.04311,-3.239111 -0.72578,-0.117779 -1.05317,-0.01398 -1.71648,0.544148 -0.80021,0.673336 -0.81964,0.740015 -0.81964,2.812701 0,1.951744 0.0546,2.177583 0.6764,2.799416 0.95923,0.959233 2.19766,0.920599 3.21866,-0.100404 z m 5.96657,-46.49542 -0.75355,-0.833838 0.83384,0.753556 c 0.45861,0.414457 0.83384,0.789684 0.83384,0.833839 0,0.198213 -0.2117,0.0237 -0.91413,-0.753557 z m -47.063654,-0.03273 c 0,-0.05328 0.202045,-0.255323 0.44899,-0.44899 0.406928,-0.319135 0.416003,-0.31006 0.09687,0.09687 -0.33517,0.427373 -0.545859,0.563284 -0.545859,0.352122 z"
         id="path316" /><path
         style="fill:#f4b279;stroke-width:0.256566"
         d="m 74.771025,152.43731 c -2.07792,-0.34977 -4.095316,-1.98685 -4.940161,-4.00885 -0.602604,-1.44224 -0.473925,-3.41419 0.893815,-13.6973 1.248841,-9.3892 1.84464,-12.29138 2.775676,-13.52052 0.430941,-0.56892 0.497381,-0.47805 5.503328,7.52691 l 5.067124,8.10278 v 7.93117 7.93118 l -4.04091,-0.0302 c -2.2225,-0.0166 -4.588992,-0.12243 -5.258872,-0.23519 z m 63.691705,-7.63494 v -7.96204 l 5.06712,-8.10278 c 5.00595,-8.00496 5.07239,-8.09583 5.50333,-7.52691 0.23991,0.31673 0.67501,1.32633 0.96688,2.24355 0.60475,1.90044 3.08691,19.99617 3.08691,22.50451 0,2.00072 -0.67019,3.54036 -2.10558,4.83714 -1.74629,1.57767 -2.3606,1.72538 -7.70806,1.85341 l -4.8106,0.11517 z M 97.925352,129.88059 c -2.768997,-0.61113 -3.472595,-1.37101 -8.067904,-8.71326 -2.184939,-3.49103 -4.035065,-6.51168 -4.111391,-6.71256 -0.10445,-0.27489 0.987945,-0.77039 4.416724,-2.00337 2.505526,-0.90097 4.654858,-1.72769 4.776296,-1.83716 0.12144,-0.10946 2.199622,-0.13923 4.618182,-0.0661 3.853591,0.11644 4.730531,0.0638 7.091331,-0.42552 3.8272,-0.79329 7.41774,-2.27384 10.58117,-4.36313 3.1035,-2.04969 7.0468,-5.6646 6.73303,-6.172298 -0.13346,-0.215938 -0.10156,-0.266348 0.0926,-0.14634 0.16291,0.100687 0.29621,0.0608 0.29621,-0.08864 0,-0.149439 0.11545,-0.271708 0.25656,-0.271708 0.16067,0 0.25815,1.606346 0.26079,4.297476 0.006,6.35448 -0.0359,6.30418 7.62854,9.09792 3.32255,1.21109 4.39266,1.70482 4.28914,1.97892 -0.4487,1.18801 -8.23791,13.19575 -8.98583,13.85242 -1.97847,1.73713 -1.43902,1.67849 -15.89264,1.72735 -7.19667,0.0243 -13.488939,-0.045 -13.982828,-0.15395 z M 109.1501,102.74787 c 0.3175,-0.0612 0.83705,-0.0612 1.15455,0 0.3175,0.0611 0.0577,0.11119 -0.57728,0.11119 -0.635,0 -0.89477,-0.05 -0.57727,-0.11119 z m 3.07879,0 c 0.3175,-0.0612 0.83704,-0.0612 1.15454,0 0.3175,0.0611 0.0577,0.11119 -0.57727,0.11119 -0.635,0 -0.89477,-0.05 -0.57727,-0.11119 z m -4.85871,-0.25076 c 0.1852,-0.0741 0.40649,-0.065 0.49175,0.0202 0.0853,0.0853 -0.0663,0.1459 -0.33674,0.13476 -0.29889,-0.0123 -0.35968,-0.0731 -0.15501,-0.15501 z m 7.4404,0 c 0.18521,-0.0741 0.4065,-0.065 0.49175,0.0202 0.0853,0.0853 -0.0663,0.1459 -0.33674,0.13476 -0.29889,-0.0123 -0.35968,-0.0731 -0.15501,-0.15501 z m -13.29331,-1.71886 c -1.48166,-0.60599 -3.213483,-1.340352 -3.848483,-1.631924 -0.635,-0.291568 -2.886364,-1.248235 -5.003031,-2.125926 -5.955751,-2.469593 -7.231701,-3.183148 -9.108081,-5.093549 -1.810217,-1.843037 -3.10163,-4.131054 -3.646411,-6.460403 -0.205971,-0.88068 -0.32257,-3.192539 -0.316217,-6.269834 0.01157,-5.601318 0.292066,-6.817629 2.274495,-9.862525 2.748912,-4.222181 6.643958,-7.5134 17.694352,-14.951295 7.173366,-4.828314 10.546446,-7.503343 11.415186,-9.052847 l 0.28769,-0.513132 0.29508,0.513132 c 0.16229,0.282222 0.97287,1.197863 1.80128,2.034758 l 1.50621,1.521629 -1.49209,1.451012 c -1.89539,1.843204 -4.71652,3.733736 -11.47513,7.689856 -5.977674,3.499004 -9.832494,6.044551 -11.866162,7.835877 l -1.346969,1.186457 0.0028,8.895763 c 0.003,9.589721 0.07622,10.237739 1.414963,12.522131 1.295397,2.210431 6.286071,6.969072 11.795398,11.246984 1.41111,1.095706 2.61376,2.036316 2.67255,2.090226 0.30599,0.28059 -0.63031,-0.0337 -3.0574,-1.02639 z m 7.63283,-9.319267 c 0.3175,-0.06115 0.83705,-0.06115 1.15455,0 0.3175,0.06115 0.0577,0.111188 -0.57728,0.111188 -0.635,0 -0.89477,-0.05004 -0.57727,-0.111188 z m 3.07879,0 c 0.3175,-0.06115 0.83704,-0.06115 1.15454,0 0.3175,0.06115 0.0577,0.111188 -0.57727,0.111188 -0.635,0 -0.89477,-0.05004 -0.57727,-0.111188 z m -3.83245,-4.612379 c 0.18521,-0.07411 0.40649,-0.065 0.49175,0.02024 0.0853,0.08525 -0.0663,0.145894 -0.33674,0.134754 -0.29889,-0.01231 -0.35968,-0.07311 -0.15501,-0.155007 z m 5.38788,0 c 0.1852,-0.07411 0.4065,-0.065 0.49175,0.02024 0.0853,0.08525 -0.0663,0.145894 -0.33674,0.134754 -0.29889,-0.01231 -0.35968,-0.07311 -0.15501,-0.155007 z m -11.94146,-2.05506 c 0.24963,-0.06505 0.596,-0.06077 0.7697,0.0095 0.1737,0.07028 -0.0305,0.123503 -0.45387,0.118274 -0.42334,-0.0052 -0.56546,-0.06273 -0.31583,-0.12778 z m 18.21616,0 c 0.24963,-0.06505 0.596,-0.06077 0.7697,0.0095 0.1737,0.07028 -0.0305,0.123503 -0.45387,0.118274 -0.42334,-0.0052 -0.56546,-0.06273 -0.31583,-0.12778 z m 22.86501,-5.59493 c 5.1e-4,-1.834444 0.0413,-2.551235 0.0908,-1.592865 0.0495,0.958368 0.0491,2.459277 -7.7e-4,3.335354 -0.0499,0.876074 -0.0904,0.09196 -0.09,-1.742489 z"
         id="path314" /><path
         style="fill:#e19e6f;stroke-width:0.256566"
         d="m 68.885326,125.33145 c 0.185209,-0.0741 0.406497,-0.065 0.491751,0.0202 0.08526,0.0853 -0.06628,0.14589 -0.336742,0.13475 -0.298884,-0.0123 -0.35968,-0.0731 -0.155009,-0.15501 z m 84.153534,0 c 0.18521,-0.0741 0.4065,-0.065 0.49176,0.0202 0.0853,0.0853 -0.0663,0.14589 -0.33675,0.13475 -0.29888,-0.0123 -0.35968,-0.0731 -0.15501,-0.15501 z m -2.75386,-1.00066 c 0.0123,-0.29888 0.0731,-0.35968 0.15501,-0.15501 0.0741,0.18521 0.065,0.4065 -0.0202,0.49175 -0.0853,0.0853 -0.1459,-0.0663 -0.13476,-0.33674 z m -53.796374,-13.89086 -1.051878,-0.0963 0.833007,-0.833 c 1.151474,-1.15148 1.395948,-2.29155 1.3976,-6.51752 7.7e-4,-2.01083 0.07677,-3.656061 0.168846,-3.656061 0.09208,0 1.621849,0.591946 3.399499,1.315431 7.39842,3.01112 12.72604,3.01596 19.98933,0.0182 l 3.13252,-1.292876 -0.5243,0.736306 c -0.92438,1.29817 -3.89481,3.82975 -6.62609,5.64715 -4.95847,3.29938 -10.39907,4.90111 -16.3716,4.81987 -1.812284,-0.0247 -3.768402,-0.0882 -4.346934,-0.14116 z m 29.506294,-0.90443 -0.48876,-0.57727 0.57727,0.48876 c 0.5425,0.45931 0.69408,0.66579 0.48876,0.66579 -0.0487,0 -0.30846,-0.25978 -0.57727,-0.57728 z m -1.10992,-2.13804 c 0.0123,-0.29889 0.0731,-0.35968 0.15501,-0.15501 0.0741,0.18521 0.065,0.4065 -0.0202,0.49175 -0.0853,0.0853 -0.1459,-0.0663 -0.13476,-0.33674 z m 40.55763,-1.38973 c 0,-0.35278 0.0582,-0.4971 0.12941,-0.32071 0.0712,0.17639 0.0712,0.46502 0,0.64141 -0.0712,0.17639 -0.12941,0.0321 -0.12941,-0.3207 z m -0.0202,-1.43249 c 0.0123,-0.29889 0.0731,-0.35968 0.155,-0.15501 0.0741,0.1852 0.065,0.40649 -0.0202,0.49175 -0.0853,0.0853 -0.14589,-0.0663 -0.13475,-0.33674 z M 163.1133,92.516649 c 0.0123,-0.298886 0.0731,-0.359679 0.155,-0.155009 0.0741,0.185207 0.065,0.406497 -0.0202,0.491752 -0.0853,0.08525 -0.14589,-0.06628 -0.13475,-0.336743 z M 83.14845,91.832473 82.659695,91.2552 l 0.577273,0.488755 c 0.542493,0.459309 0.694072,0.665791 0.488755,0.665791 -0.04869,0 -0.308458,-0.259773 -0.577273,-0.577273 z m 25.68094,-0.475011 c -4.0698,-0.380946 -8.37522,-2.237994 -8.7087,-3.756306 -0.508344,-2.314479 1.60258,-3.329876 4.15939,-2.000747 1.91942,0.997794 4.00179,1.421458 6.98669,1.421458 2.98489,0 5.06727,-0.423664 6.98669,-1.421458 2.33898,-1.215896 4.16225,-0.593226 4.16225,1.421458 0,1.252987 -0.48119,1.761913 -2.58663,2.735706 -2.93179,1.355988 -7.11114,1.963866 -10.99969,1.599889 z M 61.749594,87.406715 c 0.331417,-0.352777 0.660304,-0.641414 0.73086,-0.641414 0.07056,0 -0.142877,0.288637 -0.474295,0.641414 -0.331417,0.352778 -0.660304,0.641415 -0.73086,0.641415 -0.07055,0 0.142877,-0.288637 0.474295,-0.641415 z m 98.625126,-0.192424 -0.48876,-0.577272 0.57727,0.488755 c 0.5425,0.459309 0.69407,0.66579 0.48876,0.66579 -0.0487,0 -0.30846,-0.259773 -0.57727,-0.577273 z M 79.502642,83.301665 c 0.0052,-0.423333 0.06273,-0.565455 0.12778,-0.315825 0.06505,0.249631 0.06077,0.595995 -0.0095,0.769697 -0.07028,0.173703 -0.123504,-0.03054 -0.118275,-0.453872 z m 63.371718,-0.256566 c 0.005,-0.423333 0.0627,-0.565455 0.12778,-0.315824 0.0651,0.24963 0.0608,0.595994 -0.01,0.769697 -0.0703,0.173702 -0.1235,-0.03054 -0.11827,-0.453873 z M 65.8749,82.510588 c 0.01231,-0.298886 0.07311,-0.359679 0.155008,-0.155009 0.07411,0.185207 0.065,0.406495 -0.02026,0.491752 -0.08526,0.08525 -0.145894,-0.06628 -0.134753,-0.336743 z m 90.56768,0 c 0.0123,-0.298886 0.0731,-0.359679 0.15501,-0.155009 0.0741,0.185207 0.065,0.406495 -0.0203,0.491752 -0.0853,0.08525 -0.14589,-0.06628 -0.13475,-0.336743 z M 142.8446,75.583315 c 0.0123,-0.298886 0.0731,-0.359679 0.15501,-0.155009 0.0741,0.185207 0.065,0.406495 -0.0202,0.491752 -0.0853,0.08525 -0.14589,-0.06628 -0.13475,-0.336743 z M 95.038989,68.892352 c 0.176389,-0.07117 0.465025,-0.07117 0.641414,0 0.176389,0.07117 0.03207,0.129409 -0.320707,0.129409 -0.352778,0 -0.497096,-0.05823 -0.320707,-0.129409 z m 31.814141,0 c 0.17639,-0.07117 0.46503,-0.07117 0.64142,0 0.17638,0.07117 0.0321,0.129409 -0.32071,0.129409 -0.35278,0 -0.4971,-0.05823 -0.32071,-0.129409 z m 12.60313,-1.305334 c -0.31913,-0.406929 -0.31006,-0.416003 0.0969,-0.09687 0.24695,0.193669 0.44899,0.395714 0.44899,0.44899 0,0.211164 -0.21069,0.07525 -0.54586,-0.352121 z M 83.172827,67.266311 c 0.255408,-0.282222 0.522106,-0.513131 0.592661,-0.513131 0.07056,0 -0.08069,0.230909 -0.336096,0.513131 -0.255408,0.282222 -0.522106,0.513131 -0.592661,0.513131 -0.07056,0 0.08069,-0.230909 0.336096,-0.513131 z M 137.1799,65.085503 c -0.62321,-0.635 -1.07538,-1.154546 -1.00482,-1.154546 0.0706,0 0.63818,0.519546 1.26138,1.154546 0.62321,0.635 1.07538,1.154545 1.00482,1.154545 -0.0705,0 -0.63818,-0.519545 -1.26138,-1.154545 z m -52.339396,0.256565 c 0.331418,-0.352777 0.660305,-0.641414 0.73086,-0.641414 0.07056,0 -0.142876,0.288637 -0.474295,0.641414 -0.331418,0.352778 -0.660305,0.641415 -0.73086,0.641415 -0.07056,0 0.142876,-0.288637 0.474295,-0.641415 z m 2.565656,-2.277677 c 0,-0.05328 0.202046,-0.255321 0.44899,-0.44899 0.406929,-0.319134 0.416003,-0.310059 0.09687,0.09687 -0.33517,0.427375 -0.545859,0.563285 -0.545859,0.352121 z m 46.91879,-0.608686 c -0.31914,-0.406929 -0.31006,-0.416004 0.0969,-0.09687 0.42737,0.335169 0.56328,0.545859 0.35212,0.545859 -0.0533,0 -0.25532,-0.202046 -0.44899,-0.44899 z M 89.073837,61.621866 c 0.255409,-0.282222 0.522106,-0.513131 0.592662,-0.513131 0.07055,0 -0.08069,0.230909 -0.336096,0.513131 -0.255409,0.282222 -0.522106,0.513132 -0.592662,0.513132 -0.07055,0 0.08069,-0.23091 0.336096,-0.513132 z M 107.93141,48.440148 c 0,-0.05327 0.20205,-0.255321 0.44899,-0.448989 0.40693,-0.319135 0.41601,-0.31006 0.0969,0.09687 -0.33517,0.427375 -0.54586,0.563285 -0.54586,0.352121 z m 5.88159,-0.608686 -0.62199,-0.705556 0.70556,0.621995 c 0.65944,0.58135 0.82321,0.789116 0.62199,0.789116 -0.046,0 -0.36346,-0.3175 -0.70556,-0.705555 z m 23.8473,-16.163637 c -0.31913,-0.406928 -0.31006,-0.416002 0.0969,-0.09687 0.42738,0.33517 0.56329,0.545858 0.35212,0.545858 -0.0533,0 -0.25532,-0.202046 -0.44899,-0.44899 z m -51.023837,-2.24495 c 0.478695,-0.493888 0.928083,-0.897979 0.998638,-0.897979 0.07056,0 -0.263377,0.404091 -0.742072,0.897979 -0.478695,0.493889 -0.928083,0.89798 -0.998638,0.89798 -0.07056,0 0.263377,-0.404091 0.742072,-0.89798 z m 49.364517,0.320707 -0.48876,-0.577272 0.57727,0.488754 c 0.31751,0.268815 0.57728,0.528588 0.57728,0.577273 0,0.205317 -0.20648,0.05374 -0.66579,-0.488755 z m -33.24899,-8.321223 c 0.18521,-0.07411 0.4065,-0.065 0.49176,0.02025 0.0852,0.08526 -0.0663,0.145894 -0.33675,0.134753 -0.29888,-0.01231 -0.35968,-0.0731 -0.15501,-0.155008 z m 3.33536,0 c 0.1852,-0.07411 0.40649,-0.065 0.49175,0.02025 0.0853,0.08526 -0.0663,0.145894 -0.33674,0.134753 -0.29889,-0.01231 -0.35968,-0.0731 -0.15501,-0.155008 z m 9.99002,0.0053 c 0.17639,-0.07117 0.46503,-0.07117 0.64142,0 0.17639,0.07118 0.0321,0.129408 -0.32071,0.129408 -0.35278,0 -0.4971,-0.05823 -0.32071,-0.129408 z m 3.09483,-0.0053 c 0.1852,-0.07411 0.40649,-0.065 0.49175,0.02025 0.0853,0.08526 -0.0663,0.145894 -0.33674,0.134753 -0.29889,-0.01231 -0.35968,-0.0731 -0.15501,-0.155008 z"
         id="path312" /><path
         style="fill:#fd8a50;stroke-width:0.256566"
         d="m 78.962428,128.64491 c -3.394875,-5.4442 -5.237211,-8.63883 -5.238217,-9.08312 -0.0027,-1.20117 0.7148,-1.8576 4.520564,-4.13569 4.593244,-2.74947 4.834531,-2.84723 5.914226,-2.3961 0.696294,0.29093 1.559296,1.50997 5.247337,7.41215 2.445808,3.91416 4.818645,7.41925 5.321506,7.86077 2.005825,1.76114 1.34727,1.6937 16.538926,1.6937 15.19165,0 14.53309,0.0674 16.53892,-1.6937 0.50286,-0.44152 2.8757,-3.94661 5.32151,-7.86077 3.68804,-5.90218 4.55104,-7.12122 5.24733,-7.41215 0.60594,-0.25318 1.01895,-0.27763 1.51348,-0.0896 1.03552,0.3937 7.97164,4.59458 8.43918,5.11121 1.03093,1.13916 0.76292,1.73584 -4.75818,10.59331 l -5.23457,8.39779 H 111.26677 84.199089 Z"
         id="path310" /><path
         style="fill:#f97740;stroke-width:0.256566"
         d="m 84.070807,144.87742 v -7.82525 h 27.195963 27.19596 v 7.82525 7.82526 H 111.26677 84.070807 Z"
         id="path308" /><path
         style="fill:#72483c;stroke-width:0.256566"
         d="m 69.655023,125.33145 c 0.185209,-0.0741 0.406497,-0.065 0.491751,0.0202 0.08526,0.0853 -0.06628,0.14589 -0.336742,0.13475 -0.298885,-0.0123 -0.35968,-0.0731 -0.155009,-0.15501 z m 2.120888,-0.23096 c 0.01232,-0.29889 0.07311,-0.35968 0.155006,-0.15501 0.07411,0.18521 0.065,0.4065 -0.02024,0.49175 -0.08526,0.0853 -0.145893,-0.0663 -0.134753,-0.33674 z m 78.908319,0.1204 c -0.0574,-0.19557 -0.23177,-0.82684 -0.38755,-1.40282 -0.15577,-0.57598 -0.55668,-1.56153 -0.89089,-2.1901 -0.3888,-0.73123 -0.56727,-1.4181 -0.49551,-1.90705 0.0762,-0.51893 -0.0626,-0.98639 -0.43242,-1.45652 -0.694,-0.88227 -8.07483,-5.33824 -9.12432,-5.50855 -0.60184,-0.0977 -0.98522,0.0352 -1.60367,0.55554 l -0.81275,0.68388 -4.63478,-1.71679 c -7.30951,-2.70755 -7.27046,-2.6608 -7.39432,-8.85335 l -0.085,-4.250279 4.57491,-1.886955 c 5.75349,-2.373069 7.08981,-3.045119 8.64404,-4.347167 2.59315,-2.172395 4.3006,-5.187352 4.80502,-8.484519 0.39798,-2.601416 0.17062,-10.230384 -0.35377,-11.870649 -0.65682,-2.054511 -2.70448,-5.012934 -5.19007,-7.498524 -2.85009,-2.850088 -7.19851,-6.132368 -15.3889,-11.615874 -6.58466,-4.408466 -8.76639,-6.109026 -9.84265,-7.671919 -0.3721,-0.540336 -0.73427,-1.011235 -0.80482,-1.046442 -0.0706,-0.03521 -0.0956,-4.75556 -0.0557,-10.489673 0.0675,-9.691717 0.0404,-10.463551 -0.38485,-10.963889 -0.42623,-0.501532 -0.42666,-0.514393 -0.006,-0.188633 0.39177,0.303499 0.57784,0.263235 1.41111,-0.305364 1.39838,-0.954205 2.94039,-1.291371 5.83459,-1.275748 2.94994,0.01592 5.15061,0.472309 8.5505,1.773246 3.25977,1.247323 5.82692,3.018632 9.03318,6.232808 8.2822,8.302656 13.93309,22.627906 16.80572,42.603257 0.40866,2.841644 0.46105,2.988459 1.44886,4.060116 0.56369,0.611521 1.33204,1.76708 1.70745,2.567906 0.58012,1.237511 0.6855,1.817632 0.70209,3.865157 l 0.0195,2.40911 1.31412,0.490208 c 1.85819,0.693168 3.72054,2.461065 4.71016,4.471285 0.69535,1.412435 0.82278,1.963461 0.84169,3.639338 0.0152,1.345628 -0.12743,2.362887 -0.44755,3.192585 l -0.46983,1.217696 0.90429,1.056471 c 3.73845,4.367542 2.81175,10.538772 -2.07623,13.826322 -0.55,0.36992 -0.56071,0.45031 -0.27621,2.0722 0.59333,3.38243 -0.9101,6.93391 -3.71384,8.77302 -1.65634,1.08648 -2.6005,1.41405 -4.69397,1.62853 -1.28191,0.13134 -1.65978,0.0906 -1.74146,-0.18786 z m -86.644964,-2.47225 -0.621995,-0.70556 0.705555,0.62199 c 0.659448,0.58135 0.823214,0.78912 0.621996,0.78912 -0.04596,0 -0.363458,-0.3175 -0.705556,-0.70555 z m 10.153763,-4.93889 c 0.255408,-0.28223 0.522106,-0.51313 0.592661,-0.51313 0.07056,0 -0.08069,0.2309 -0.336096,0.51313 -0.255408,0.28222 -0.522106,0.51313 -0.592661,0.51313 -0.07056,0 0.08069,-0.23091 0.336096,-0.51313 z m -12.679746,-0.40623 c 0.01231,-0.29889 0.07311,-0.35968 0.155009,-0.15501 0.07411,0.18521 0.065,0.4065 -0.02026,0.49175 -0.08525,0.0853 -0.145894,-0.0663 -0.134754,-0.33674 z m 0,-2.05253 c 0.01231,-0.29888 0.07311,-0.35968 0.155009,-0.15501 0.07411,0.18521 0.065,0.4065 -0.02026,0.49176 -0.08525,0.0852 -0.145894,-0.0663 -0.134754,-0.33675 z m 34.61611,-5.87963 c 0.331419,-0.35278 0.660305,-0.64141 0.73086,-0.64141 0.07056,0 -0.142876,0.28863 -0.474295,0.64141 -0.331418,0.35278 -0.660305,0.64142 -0.73086,0.64142 -0.07056,0 0.142876,-0.28864 0.474295,-0.64142 z m -39.20453,-4.10505 c 0.0052,-0.42333 0.06273,-0.56545 0.127781,-0.31582 0.06505,0.24963 0.06077,0.59599 -0.0095,0.76969 -0.07028,0.17371 -0.123503,-0.0305 -0.118275,-0.45387 z m 2.662544,-6.56665 c 0.413091,-0.507215 0.802882,-0.878742 0.866201,-0.825615 0.06332,0.05312 -0.274665,0.468119 -0.751076,0.922207 l -0.866201,0.825615 z m -0.383215,-4.230486 c 0.01231,-0.298886 0.07311,-0.359679 0.155009,-0.155009 0.07411,0.185207 0.065,0.406498 -0.02026,0.491752 -0.08526,0.08525 -0.145894,-0.06628 -0.134753,-0.336743 z m 0.02026,-1.389731 c 0,-0.352778 0.05823,-0.497096 0.129408,-0.320707 0.07117,0.176389 0.07117,0.465025 0,0.641414 -0.07118,0.176389 -0.129408,0.03207 -0.129408,-0.320707 z m 24.813631,-0.44899 c -0.319134,-0.406929 -0.31006,-0.416003 0.09687,-0.09687 0.246944,0.193669 0.44899,0.395714 0.44899,0.44899 0,0.211164 -0.210689,0.07525 -0.545859,-0.352121 z M 68.933432,75.892675 c 0,-0.05328 0.202046,-0.255322 0.44899,-0.44899 0.406928,-0.319135 0.416003,-0.31006 0.09687,0.09687 -0.335169,0.427374 -0.545858,0.563284 -0.545858,0.352121 z m 26.378158,-0.33496 c 0.185207,-0.07411 0.406495,-0.065 0.491751,0.02024 0.08526,0.08525 -0.06628,0.145894 -0.336742,0.134754 -0.298886,-0.01232 -0.359679,-0.07311 -0.155009,-0.155007 z m 31.55758,0 c 0.1852,-0.07411 0.40649,-0.065 0.49175,0.02024 0.0853,0.08525 -0.0663,0.145894 -0.33674,0.134754 -0.29889,-0.01232 -0.35968,-0.07311 -0.15501,-0.155007 z M 79.502642,74.834998 c 0.0052,-0.423333 0.06273,-0.565455 0.12778,-0.315825 0.06505,0.249631 0.06077,0.595995 -0.0095,0.769697 -0.07028,0.173703 -0.123504,-0.03054 -0.118275,-0.453872 z m 17.268165,0.128283 c 0.255409,-0.282222 0.522106,-0.513132 0.592662,-0.513132 0.07055,0 -0.08069,0.23091 -0.336096,0.513132 -0.255409,0.282222 -0.522106,0.513131 -0.592662,0.513131 -0.07055,0 0.08069,-0.230909 0.336096,-0.513131 z m 28.710983,-0.06414 -0.48876,-0.577272 0.57727,0.488755 c 0.3175,0.268814 0.57728,0.528586 0.57728,0.577272 0,0.205317 -0.20649,0.05374 -0.66579,-0.488755 z m -32.357805,-2.6298 c 0.0021,-0.705555 0.05175,-0.96374 0.110726,-0.573745 0.05897,0.389996 0.0574,0.967268 -0.0035,1.282829 -0.0609,0.31556 -0.109148,-0.0035 -0.107224,-0.709084 z m 36.175755,0 c 0.002,-0.705555 0.0518,-0.96374 0.11073,-0.573745 0.059,0.389996 0.0574,0.967268 -0.003,1.282829 -0.0609,0.31556 -0.10915,-0.0035 -0.10722,-0.709084 z m -59.31979,-0.02137 c 0.01231,-0.298886 0.07311,-0.359679 0.155009,-0.155009 0.07411,0.185207 0.065,0.406495 -0.02026,0.491752 -0.08526,0.08525 -0.145894,-0.06628 -0.134754,-0.336743 z m 13.706008,-5.751355 c 0.255409,-0.282222 0.522106,-0.513131 0.592662,-0.513131 0.07055,0 -0.08069,0.230909 -0.336096,0.513131 -0.255409,0.282222 -0.522106,0.513131 -0.592662,0.513131 -0.07055,0 0.08069,-0.230909 0.336096,-0.513131 z m 2.69394,-2.69394 c 0.478695,-0.493889 0.928082,-0.897979 0.998638,-0.897979 0.07055,0 -0.263378,0.40409 -0.742073,0.897979 -0.478695,0.493889 -0.928082,0.89798 -0.998638,0.89798 -0.07056,0 0.263378,-0.404091 0.742073,-0.89798 z m 1.795959,-1.50798 c 0,-0.05328 0.202046,-0.255321 0.44899,-0.44899 0.406929,-0.319134 0.416003,-0.310059 0.09687,0.09687 -0.33517,0.427375 -0.545859,0.563285 -0.545859,0.352121 z M 107.16172,48.95328 c 0,-0.05328 0.20204,-0.255322 0.44899,-0.44899 0.40692,-0.319134 0.416,-0.31006 0.0969,0.09687 -0.33517,0.427374 -0.54586,0.563285 -0.54586,0.352121 z m 2.05252,-1.827374 c 0.33142,-0.352778 0.66031,-0.641414 0.73086,-0.641414 0.0706,0 -0.14287,0.288636 -0.47429,0.641414 -0.33142,0.352778 -0.66031,0.641414 -0.73086,0.641414 -0.0706,0 0.14287,-0.288636 0.47429,-0.641414 z M 84.840504,31.506816 c 0,-0.05328 0.202045,-0.255323 0.44899,-0.44899 0.406928,-0.319135 0.416003,-0.31006 0.09687,0.09687 -0.335169,0.427373 -0.545858,0.563284 -0.545858,0.352122 z M 103.50566,21.427704 c 0.17638,-0.07117 0.46502,-0.07117 0.64141,0 0.17639,0.07118 0.0321,0.129408 -0.32071,0.129408 -0.35278,0 -0.49709,-0.05823 -0.3207,-0.129408 z m 1.41599,-0.0079 c 0.24963,-0.06505 0.59599,-0.06077 0.7697,0.0095 0.1737,0.07028 -0.0305,0.123502 -0.45388,0.118274 -0.42333,-0.0052 -0.56545,-0.06273 -0.31582,-0.127781 z"
         id="path306" /><path
         style="fill:#5d332d;stroke-width:0.256566"
         d="m 69.156805,125.24567 c -5.03896,-0.85144 -8.251546,-5.42979 -7.368437,-10.50097 0.218458,-1.25448 0.215963,-1.68203 -0.01026,-1.75743 -0.990925,-0.33031 -2.827746,-2.19577 -3.613465,-3.66981 -0.736713,-1.38211 -0.891717,-1.96699 -0.979127,-3.69458 -0.13064,-2.58201 0.499383,-4.4217 2.138663,-6.244972 l 1.138925,-1.26676 -0.53394,-1.207059 c -0.658042,-1.487614 -0.715025,-4.195772 -0.125479,-5.963518 0.810116,-2.42912 3.640877,-5.170796 5.804045,-5.621392 0.643646,-0.134073 0.650959,-0.163896 0.641415,-2.615961 -0.0086,-2.204305 0.06976,-2.642057 0.703933,-3.933442 0.392473,-0.799204 1.17351,-1.913023 1.735637,-2.47515 0.999066,-0.999067 1.030942,-1.087551 1.417458,-3.934779 0.953732,-7.025576 2.952004,-15.955282 4.824907,-21.56116 4.595404,-13.754703 11.23753,-22.847523 19.592175,-26.820956 5.909495,-2.810526 13.226465,-3.241369 15.961645,-0.939864 l 0.78187,0.657895 v 10.158815 c 0,9.774781 -0.0202,10.200619 -0.53532,11.264632 -0.83903,1.733199 -3.13931,3.591262 -10.999845,8.885148 -8.218922,5.535258 -11.034348,7.638566 -13.93754,10.412259 -2.518294,2.405965 -4.103113,4.490309 -5.287998,6.954745 l -0.925163,1.924243 -0.08805,5.115314 c -0.05634,3.273254 0.02186,5.674021 0.217188,6.666818 0.650186,3.304832 2.648137,6.450055 5.370227,8.453943 1.000839,0.736775 3.324042,1.852081 7.05669,3.387722 l 5.56464,2.289335 -0.08888,4.105054 c -0.132052,6.099 -0.259544,6.2545 -7.242133,8.83286 l -4.844991,1.78904 -0.747081,-0.62863 c -0.410895,-0.34574 -1.065938,-0.62863 -1.455653,-0.62863 -0.82411,0 -8.295186,4.31406 -9.212529,5.31963 -0.438176,0.48032 -0.576,0.89821 -0.520905,1.57938 0.05009,0.61929 -0.152472,1.36221 -0.61125,2.24177 -0.377393,0.72354 -0.820556,1.84922 -0.984807,2.50152 -0.330746,1.31351 -0.401122,1.33646 -2.836568,0.92494 z M 93.936924,74.846659 c -0.555298,-0.555295 -0.629753,-0.854497 -0.629753,-2.530669 0,-1.711778 0.0673,-1.96822 0.676399,-2.57732 1.211223,-1.211223 2.864712,-0.717473 3.440571,1.027394 0.427913,1.296588 0.146245,3.354373 -0.562394,4.108684 -0.771775,0.821515 -2.08786,0.808877 -2.924823,-0.02809 z m 31.734866,0.02809 c -0.70864,-0.754311 -0.99031,-2.812096 -0.5624,-4.108684 0.57586,-1.744867 2.22935,-2.238617 3.44057,-1.027394 0.6091,0.6091 0.6764,0.865542 0.6764,2.57732 0,1.676172 -0.0745,1.975374 -0.62975,2.530669 -0.83696,0.836966 -2.15305,0.849604 -2.92482,0.02809 z"
         id="path304" /></g></g></svg>
