<?xml version="1.0" encoding="UTF-8" standalone="no"?>
<!-- Created with Inkscape (http://www.inkscape.org/) -->

<svg
   width="13.22918mm"
   height="13.229168mm"
   viewBox="0 0 13.229181 13.229168"
   version="1.1"
   id="svg5"
   xml:space="preserve"
   sodipodi:docname="home-yellow.svg"
   inkscape:version="1.2 (dc2aedaf03, 2022-05-15)"
   xmlns:inkscape="http://www.inkscape.org/namespaces/inkscape"
   xmlns:sodipodi="http://sodipodi.sourceforge.net/DTD/sodipodi-0.dtd"
   xmlns="http://www.w3.org/2000/svg"
   xmlns:svg="http://www.w3.org/2000/svg"><sodipodi:namedview
     id="namedview7"
     pagecolor="#ffffff"
     bordercolor="#666666"
     borderopacity="1.0"
     inkscape:showpageshadow="2"
     inkscape:pageopacity="0.0"
     inkscape:pagecheckerboard="0"
     inkscape:deskcolor="#d1d1d1"
     inkscape:document-units="mm"
     showgrid="false"
     inkscape:zoom="1"
     inkscape:cx="-8"
     inkscape:cy="286"
     inkscape:window-width="1600"
     inkscape:window-height="831"
     inkscape:window-x="1920"
     inkscape:window-y="107"
     inkscape:window-maximized="1"
     inkscape:current-layer="layer1" /><defs
     id="defs2" /><g
     inkscape:label="Layer 1"
     inkscape:groupmode="layer"
     id="layer1"
     transform="translate(145.93444,-21.758367)"><path
       style="fill:#ffcc00;stroke-width:0.023951"
       d="m -143.14938,33.594988 c -0.23554,-0.069 -0.39604,-0.155138 -0.56845,-0.305059 -0.16521,-0.143663 -0.31544,-0.381183 -0.36104,-0.570849 -0.0187,-0.07793 -0.0282,-0.613302 -0.0282,-1.591207 0,-1.237062 0.006,-1.483379 0.0371,-1.533611 0.0204,-0.03291 1.06001,-0.934032 2.31021,-2.002483 2.41052,-2.06008 2.32421,-1.993178 2.52547,-1.957536 0.0676,0.01197 0.5301,0.396035 2.35723,1.957536 1.2502,1.068451 2.28979,1.969568 2.3102,2.002483 0.0311,0.05023 0.0371,0.296549 0.0371,1.533611 0,0.977905 -0.01,1.513281 -0.0282,1.591207 -0.0741,0.308326 -0.36342,0.640082 -0.68542,0.786054 -0.30826,0.139747 -0.31459,0.140291 -1.6336,0.140291 h -1.19894 v -1.440516 -1.440513 h -1.24246 -1.24246 v 1.440513 1.440516 l -1.21011,-5.69e-4 c -1.18218,-5.68e-4 -1.21399,-0.0017 -1.37836,-0.04987 z m -2.315,-4.669113 c -0.15513,-0.05351 -0.32225,-0.189327 -0.40516,-0.32928 -0.0471,-0.0795 -0.0616,-0.140081 -0.062,-0.258912 -9.7e-4,-0.313942 -0.19086,-0.130192 2.67534,-2.588829 1.41832,-1.216643 2.64858,-2.257389 2.7339,-2.312768 0.34067,-0.221107 0.66224,-0.317318 1.11321,-0.333068 0.34481,-0.01205 0.56905,0.0177 0.84014,0.111455 0.33414,0.115556 0.433,0.185409 1.28641,0.90903 l 0.83232,0.705732 0.009,-0.417629 c 0.008,-0.381183 0.0141,-0.426578 0.0679,-0.520177 0.13738,-0.238726 0.38695,-0.373496 0.69164,-0.373496 0.36886,0 0.65748,0.198614 0.7343,0.505306 0.0194,0.0773 0.0293,0.456484 0.0293,1.117865 v 1.000891 l 1.05765,0.909469 c 1.17976,1.014482 1.15593,0.987939 1.15501,1.286219 -5.8e-4,0.190532 -0.0711,0.323677 -0.24555,0.46335 -0.22428,0.179617 -0.56324,0.217943 -0.84163,0.09517 -0.0982,-0.04329 -0.73745,-0.578574 -2.67856,-2.242772 -1.43558,-1.230789 -2.5916,-2.204642 -2.64567,-2.228769 -0.12249,-0.05465 -0.28078,-0.05465 -0.40328,0 -0.0541,0.02412 -1.21009,0.99798 -2.64567,2.228769 -1.93901,1.6624 -2.58064,2.199653 -2.67906,2.243272 -0.17719,0.07852 -0.44055,0.09092 -0.61956,0.02918 z"
       id="path441" /></g></svg>
