<?xml version="1.0" encoding="UTF-8" standalone="no"?>
<!-- Created with Inkscape (http://www.inkscape.org/) -->

<svg
   width="13.229134mm"
   height="13.229168mm"
   viewBox="0 0 13.229133 13.229168"
   version="1.1"
   id="svg5"
   xml:space="preserve"
   inkscape:version="1.2 (dc2aedaf03, 2022-05-15)"
   sodipodi:docname="edit.svg"
   xmlns:inkscape="http://www.inkscape.org/namespaces/inkscape"
   xmlns:sodipodi="http://sodipodi.sourceforge.net/DTD/sodipodi-0.dtd"
   xmlns="http://www.w3.org/2000/svg"
   xmlns:svg="http://www.w3.org/2000/svg"><sodipodi:namedview
     id="namedview7"
     pagecolor="#ffffff"
     bordercolor="#666666"
     borderopacity="1.0"
     inkscape:showpageshadow="2"
     inkscape:pageopacity="0.0"
     inkscape:pagecheckerboard="0"
     inkscape:deskcolor="#d1d1d1"
     inkscape:document-units="mm"
     showgrid="false"
     inkscape:zoom="1"
     inkscape:cx="327"
     inkscape:cy="270"
     inkscape:window-width="1600"
     inkscape:window-height="831"
     inkscape:window-x="1920"
     inkscape:window-y="107"
     inkscape:window-maximized="1"
     inkscape:current-layer="layer1" /><defs
     id="defs2" /><g
     inkscape:label="Layer 1"
     inkscape:groupmode="layer"
     id="layer1"
     transform="translate(288.41905,19.310705)"><path
       style="fill:#ffcc00;stroke-width:0.0289173"
       d="m -282.47054,-6.0987058 c -3.04248,-0.3021391 -5.43116,-2.3940985 -5.89472,-5.1624722 -0.0726,-0.433343 -0.0715,-1.275509 0.002,-1.712077 0.28993,-1.719263 1.32782,-3.216997 2.88929,-4.169422 0.43166,-0.263292 0.56901,-0.311801 0.84769,-0.299393 0.28356,0.01263 0.4753,0.092 0.64374,0.266496 0.27968,0.28974 0.29055,0.769018 0.0241,1.063768 -0.0519,0.0574 -0.23233,0.185855 -0.401,0.285459 -0.78166,0.461597 -1.34506,1.031355 -1.74268,1.762333 -0.66662,1.225513 -0.67974,2.61202 -0.0363,3.838366 0.9707,1.8501684 3.22243,2.8423694 5.40904,2.3834391 0.59023,-0.1238782 1.20637,-0.3751572 1.70183,-0.69405 0.32206,-0.2072857 0.84883,-0.6759456 1.07635,-0.9576144 1.08929,-1.3485307 1.25626,-3.0693307 0.44344,-4.5701407 -0.37445,-0.691399 -0.94617,-1.281458 -1.65682,-1.709943 -0.21811,-0.131514 -0.43787,-0.284812 -0.48836,-0.340663 -0.26519,-0.293381 -0.25319,-0.771039 0.0267,-1.060954 0.16872,-0.174785 0.36009,-0.253868 0.64502,-0.266549 0.20917,-0.0093 0.25415,-0.0018 0.42395,0.07096 0.10447,0.04476 0.30578,0.153451 0.44735,0.241541 1.56236,0.972149 2.59229,2.471934 2.86575,4.1731 0.072,0.448198 0.0724,1.266544 7.9e-4,1.690415 -0.45123,2.6674569 -2.67683,4.7187664 -5.56211,5.1265306 -0.38024,0.053737 -1.30643,0.076472 -1.66495,0.040868 z m 0.47647,-8.6153592 c -0.27188,-0.06154 -0.51163,-0.237329 -0.63495,-0.465564 l -0.0686,-0.127021 v -1.69827 c 0,-1.668478 10e-4,-1.700474 0.0638,-1.823937 0.0932,-0.183721 0.23547,-0.31751 0.43039,-0.404798 0.14186,-0.06352 0.21191,-0.07705 0.39917,-0.07705 0.37853,0 0.67138,0.170102 0.82956,0.481844 0.0626,0.123463 0.0638,0.155459 0.0638,1.823937 v 1.69827 l -0.069,0.127778 c -0.18514,0.342669 -0.63752,0.550029 -1.01403,0.464807 z"
       id="path337" /></g></svg>
