<?xml version="1.0" encoding="UTF-8" standalone="no"?>
<!-- Created with Inkscape (http://www.inkscape.org/) -->

<svg
   width="131.36162mm"
   height="131.36162mm"
   viewBox="0 0 131.36162 131.36162"
   version="1.1"
   id="svg5"
   xml:space="preserve"
   inkscape:version="1.2 (dc2aedaf03, 2022-05-15)"
   sodipodi:docname="boy.svg"
   xmlns:inkscape="http://www.inkscape.org/namespaces/inkscape"
   xmlns:sodipodi="http://sodipodi.sourceforge.net/DTD/sodipodi-0.dtd"
   xmlns="http://www.w3.org/2000/svg"
   xmlns:svg="http://www.w3.org/2000/svg"><sodipodi:namedview
     id="namedview7"
     pagecolor="#ffffff"
     bordercolor="#666666"
     borderopacity="1.0"
     inkscape:showpageshadow="2"
     inkscape:pageopacity="0.0"
     inkscape:pagecheckerboard="0"
     inkscape:deskcolor="#d1d1d1"
     inkscape:document-units="mm"
     showgrid="false"
     inkscape:zoom="0.61112514"
     inkscape:cx="33.544684"
     inkscape:cy="350.17378"
     inkscape:window-width="1600"
     inkscape:window-height="831"
     inkscape:window-x="1920"
     inkscape:window-y="107"
     inkscape:window-maximized="1"
     inkscape:current-layer="layer1" /><defs
     id="defs2" /><g
     inkscape:label="Layer 1"
     inkscape:groupmode="layer"
     id="layer1"
     transform="translate(-45.585957,-21.341057)"><g
       id="g358"
       transform="matrix(2.3251273,0,0,2.3251273,-132.9573,-125.51887)"><path
         style="fill:#fbca9a;stroke-width:0.109483"
         d="m 85.854353,116.29641 c 0,-0.0188 0.160118,-0.17896 0.355819,-0.35581 l 0.355819,-0.32157 -0.321561,0.35582 c -0.29974,0.33168 -0.390077,0.40615 -0.390077,0.32156 z m 36.834067,-0.32156 -0.32156,-0.35582 0.35581,0.32157 c 0.1957,0.17685 0.35582,0.33697 0.35582,0.35581 0,0.0846 -0.0903,0.0101 -0.39007,-0.32156 z m -19.82025,-5.28098 c -0.97461,-0.21203 -2.53095,-1.04528 -2.38711,-1.27802 0.0313,-0.0506 0.005,-0.0921 -0.059,-0.0921 -0.0758,0 -0.11594,-0.50397 -0.11594,-1.45513 v -1.45512 l -0.739011,-0.19185 c -5.603843,-1.4548 -9.168315,-5.69302 -10.490699,-12.473628 -0.17232,-0.883581 -0.173153,-0.975271 -0.0105,-1.155003 0.476385,-0.5264 0.548298,-1.038378 0.564138,-4.016257 0.01262,-2.372241 0.04563,-2.92553 0.198119,-3.320533 0.991172,-2.567483 2.812515,-3.914948 5.800055,-4.290992 0.781725,-0.09839 1.440599,-0.100632 2.694342,-0.0091 2.844726,0.207582 4.600286,0.144749 7.379576,-0.264118 1.63233,-0.240136 3.47923,-0.678962 5.1092,-1.213952 1.16848,-0.383523 1.49805,-0.4549 1.59462,-0.345365 1.95046,2.212127 2.95321,3.115544 4.10153,3.695214 1.59151,0.803389 2.16857,2.201428 2.73447,6.624753 0.25821,2.01828 0.373,2.499469 0.66005,2.766894 0.20264,0.188789 0.2024,0.215462 -0.012,1.340451 -1.33348,6.997306 -4.90061,11.243976 -10.66106,12.692006 -2.13683,0.53714 -5.06473,0.6921 -7.33534,0.38821 -1.52084,-0.20354 -1.52082,-0.20354 -0.93061,0.1035 1.63227,0.84915 3.99934,1.39062 6.15841,1.40875 l 1.50539,0.0127 v 0.57933 c 0,0.33475 -0.0489,0.57933 -0.11595,0.57933 -0.0638,0 -0.0903,0.0414 -0.059,0.0921 0.14929,0.24155 -1.4196,1.06709 -2.43825,1.28301 -0.8961,0.18993 -2.25936,0.18778 -3.14536,-0.005 z m 2.39474,-8.39806 c 0.25338,-0.29847 0.16654,-0.37005 -0.24311,-0.20037 -0.32158,0.1332 -0.76834,0.1127 -1.3188,-0.0605 -0.26732,-0.0841 -0.26927,-0.0806 -0.0975,0.17806 0.31768,0.47846 1.28271,0.52663 1.65945,0.0828 z m 1.00998,-1.18245 c 1.01326,-0.16569 1.74657,-0.43048 2.17872,-0.78669 0.76222,-0.628285 0.52401,-0.654816 -1.19338,-0.13292 -0.90279,0.27435 -1.13668,0.29944 -2.79181,0.29944 -1.65512,0 -1.88901,-0.0251 -2.79181,-0.29944 -1.717386,-0.521896 -1.955591,-0.495365 -1.19337,0.13292 0.41065,0.33849 1.19086,0.63009 2.09011,0.78117 0.76009,0.12769 2.93459,0.13094 3.70154,0.006 z m -0.0925,-3.812449 c 0.68685,-0.351909 1.15333,-1.055597 0.98704,-1.488942 -0.0475,-0.12386 -0.24435,-0.07418 -0.96978,0.244781 -0.78263,0.344112 -1.02519,0.40018 -1.73127,0.40018 -0.70607,0 -0.94864,-0.05607 -1.73127,-0.40018 -0.72542,-0.31896 -0.92225,-0.368641 -0.96978,-0.244781 -0.15393,0.401137 0.2912,1.129311 0.87688,1.434464 0.56748,0.295665 0.94897,0.355546 2.04314,0.320699 0.79873,-0.02544 1.14566,-0.08722 1.49504,-0.266221 z m -8.761086,-5.782332 c 0.402894,-0.191185 0.84544,-0.844535 0.966739,-1.427238 0.157709,-0.757617 -0.414426,-1.813874 -1.146833,-2.117248 -0.440605,-0.182504 -1.214165,-0.08438 -1.621534,0.205698 -0.418615,0.29808 -0.785776,1.051619 -0.785776,1.612679 0,0.577079 0.40382,1.351095 0.864681,1.657361 0.449141,0.298477 1.177364,0.327538 1.722723,0.06875 z m 16.027686,-0.06786 c 0.46707,-0.316214 0.87284,-1.084325 0.87284,-1.652265 0,-0.242487 -0.10276,-0.653167 -0.22836,-0.91262 -0.63043,-1.3023 -2.35823,-1.361206 -3.06621,-0.104536 -0.51844,0.920235 -0.19013,2.259243 0.66528,2.713275 0.53428,0.283588 1.30108,0.264443 1.75645,-0.04385 z M 99.365691,84.96386 c 0.175803,-0.700452 -0.282963,-1.473197 -1.118081,-1.883297 -0.538276,-0.264331 -0.751523,-0.305731 -1.554463,-0.301787 -0.603316,0.003 -1.137386,0.07498 -1.518564,0.20477 -0.990288,0.337191 -1.704399,1.257032 -1.492993,1.923113 0.09329,0.293944 0.586057,0.292109 1.434288,-0.0053 0.855534,-0.30001 2.47051,-0.253376 3.21951,0.09297 0.68156,0.315157 0.945524,0.307363 1.030303,-0.03043 z m 11.475369,-0.04207 c 0.83648,-0.309129 2.10878,-0.314528 2.98614,-0.01267 0.8427,0.289932 1.33152,0.289087 1.42406,-0.0025 0.2114,-0.666081 -0.50271,-1.585923 -1.493,-1.923113 -0.38117,-0.129791 -0.91524,-0.201807 -1.51856,-0.20477 -0.80294,-0.0039 -1.01619,0.03746 -1.55446,0.301787 -0.84027,0.412627 -1.29392,1.182719 -1.1155,1.893602 0.083,0.330699 0.25379,0.323662 1.27132,-0.05238 z M 88.12612,95.451682 c 0.135485,-0.0261 0.357188,-0.0261 0.492673,0 0.135485,0.02609 0.02463,0.04745 -0.246337,0.04745 -0.270969,0 -0.381821,-0.02135 -0.246336,-0.04745 z m 32.18793,0 c 0.13549,-0.0261 0.35719,-0.0261 0.49268,0 0.13548,0.02609 0.0246,0.04745 -0.24634,0.04745 -0.27097,0 -0.38182,-0.02135 -0.24634,-0.04745 z M 84.342938,91.642309 c 0.0022,-0.180646 0.02677,-0.241293 0.05453,-0.13477 0.02776,0.106524 0.02593,0.254325 -0.0041,0.328448 -0.02999,0.07412 -0.0527,-0.01303 -0.05047,-0.193678 z m 40.180172,0 c 0.002,-0.180646 0.0268,-0.241293 0.0545,-0.13477 0.0278,0.106524 0.0259,0.254325 -0.004,0.328448 -0.03,0.07412 -0.0527,-0.01303 -0.0505,-0.193678 z M 84.342938,90.219033 c 0.0022,-0.180646 0.02677,-0.241293 0.05453,-0.13477 0.02776,0.106524 0.02593,0.254325 -0.0041,0.328448 -0.02999,0.07412 -0.0527,-0.01303 -0.05047,-0.193678 z m 40.180172,0 c 0.002,-0.180646 0.0268,-0.241293 0.0545,-0.13477 0.0278,0.106524 0.0259,0.254325 -0.004,0.328448 -0.03,0.07412 -0.0527,-0.01303 -0.0505,-0.193678 z m -38.832981,-2.79181 c 0.235195,-0.240862 0.452262,-0.437931 0.482369,-0.437931 0.03011,0 -0.137691,0.197069 -0.372887,0.437931 -0.235195,0.240862 -0.452261,0.437931 -0.482369,0.437931 -0.03011,0 0.137691,-0.197069 0.372887,-0.437931 z m 37.437951,-0.02737 -0.43278,-0.465302 0.46531,0.43278 c 0.43272,0.402481 0.51561,0.497824 0.43278,0.497824 -0.0179,0 -0.22728,-0.209386 -0.46531,-0.465302 z m -0.65624,-0.527327 c -0.0397,-0.06422 -0.0487,-0.140247 -0.02,-0.168946 0.0287,-0.0287 0.0814,0.02385 0.11701,0.116766 0.074,0.192921 0.0109,0.226855 -0.097,0.05218 z M 86.41041,83.969392 c 0.0053,-0.127542 0.0312,-0.153484 0.06615,-0.06615 0.03163,0.07903 0.02774,0.173461 -0.0086,0.209842 -0.03638,0.03638 -0.06226,-0.02828 -0.0575,-0.143696 z m -0.100839,-1.687859 c 0,-0.150539 0.02485,-0.212123 0.05522,-0.136854 0.03037,0.07527 0.03037,0.198438 0,0.273707 -0.03037,0.07527 -0.05522,0.01368 -0.05522,-0.136853 z m 37.005169,-1.642242 c 0,-0.150539 0.0249,-0.212123 0.0552,-0.136853 0.0304,0.07527 0.0304,0.198437 0,0.273707 -0.0304,0.07527 -0.0552,0.01368 -0.0552,-0.136854 z m 0.0125,-1.423276 c 0,-0.27097 0.0213,-0.381821 0.0474,-0.246336 0.0261,0.135485 0.0261,0.357188 0,0.492672 -0.0261,0.135485 -0.0474,0.02463 -0.0474,-0.246336 z m -0.13066,-1.925071 c 0.005,-0.127542 0.0312,-0.153484 0.0661,-0.06615 0.0316,0.07903 0.0277,0.173463 -0.009,0.209843 -0.0364,0.03638 -0.0623,-0.02828 -0.0575,-0.143696 z M 101.92779,63.594673 c 0.079,-0.03163 0.17346,-0.02774 0.20984,0.0086 0.0364,0.03638 -0.0283,0.06226 -0.14369,0.0575 -0.12754,-0.0053 -0.15349,-0.0312 -0.0661,-0.06615 z m 4.26983,-0.109482 c 0.079,-0.03163 0.17346,-0.02774 0.20984,0.0086 0.0364,0.03638 -0.0283,0.06226 -0.14369,0.0575 -0.12755,-0.0053 -0.15349,-0.0312 -0.0661,-0.06614 z"
         id="path372" /><path
         style="fill:#f9ba84;stroke-width:0.109483"
         d="m 105.8897,108.11506 c -1.00425,-0.09 -2.41271,-0.39881 -3.42365,-0.75077 -0.80201,-0.27921 -1.95859,-0.79649 -1.90368,-0.85141 0.023,-0.023 0.65221,0.0389 1.39818,0.13763 1.53615,0.20331 4.33612,0.15596 5.81773,-0.0984 l 0.84849,-0.14566 v 0.8409 0.84089 l -0.67296,0.0703 c -0.73455,0.0768 -0.71652,0.0772 -2.06411,-0.0435 z m -1.84926,-5.56151 c -0.14397,-0.0422 -0.34061,-0.19543 -0.43698,-0.34058 -0.17173,-0.25863 -0.16978,-0.26218 0.0975,-0.17806 0.55046,0.17323 0.99722,0.19373 1.3188,0.0605 0.40965,-0.16968 0.49649,-0.0981 0.24311,0.20037 -0.21338,0.25136 -0.81282,0.37775 -1.22247,0.25774 z m -0.8057,-1.40876 c 0.13549,-0.0261 0.35719,-0.0261 0.49267,0 0.13549,0.0261 0.0246,0.0474 -0.24633,0.0474 -0.27097,0 -0.38182,-0.0213 -0.24634,-0.0474 z m 1.97069,0 c 0.13549,-0.0261 0.35719,-0.0261 0.49267,0 0.13549,0.0261 0.0246,0.0474 -0.24633,0.0474 -0.27097,0 -0.38182,-0.0213 -0.24634,-0.0474 z m -2.83971,-0.10701 c 0.079,-0.0316 0.17346,-0.0277 0.20984,0.009 0.0364,0.0364 -0.0283,0.0623 -0.14369,0.0575 -0.12754,-0.005 -0.15349,-0.0312 -0.0662,-0.0661 z m 4.05086,0 c 0.079,-0.0316 0.17347,-0.0277 0.20985,0.009 0.0364,0.0364 -0.0283,0.0623 -0.1437,0.0575 -0.12754,-0.005 -0.15348,-0.0312 -0.0662,-0.0661 z m -2.30598,-0.44234 c 0.1957,-0.0243 0.51594,-0.0243 0.71164,0 0.1957,0.0243 0.0356,0.0442 -0.35582,0.0442 -0.3914,0 -0.55152,-0.0199 -0.35582,-0.0442 z m -1.19746,-0.10507 c 0.079,-0.0316 0.17346,-0.0277 0.20984,0.009 0.0364,0.0364 -0.0283,0.0623 -0.1437,0.0575 -0.12754,-0.005 -0.15348,-0.0312 -0.0661,-0.0662 z m 2.95603,0 c 0.079,-0.0316 0.17346,-0.0277 0.20984,0.009 0.0364,0.0364 -0.0283,0.0623 -0.14369,0.0575 -0.12754,-0.005 -0.15349,-0.0312 -0.0662,-0.0662 z m -2.55232,-2.976848 c -0.78752,-0.207967 -1.40441,-0.722584 -1.54694,-1.290481 -0.14217,-0.566446 -4.4e-4,-0.59087 0.96524,-0.166291 0.78263,0.344112 1.0252,0.40018 1.73127,0.40018 0.70608,0 0.94864,-0.05607 1.73127,-0.40018 0.72543,-0.31896 0.92225,-0.368641 0.96978,-0.244781 0.16629,0.433345 -0.30019,1.137033 -0.98704,1.488942 -0.34938,0.179005 -0.69631,0.240783 -1.49504,0.266221 -0.57205,0.01822 -1.18789,-0.0059 -1.36854,-0.05361 z M 87.142155,95.253735 c -2.384569,-0.875904 -3.488519,-4.079608 -2.269039,-6.584833 0.301979,-0.620368 1.477452,-1.898576 1.745979,-1.898576 0.05245,0 0.127814,0.283287 0.167475,0.629526 0.132902,1.160227 0.594965,3.284283 0.884211,4.064628 0.298049,0.80409 0.704692,1.327398 1.031471,1.327398 0.153245,0 0.228346,0.197855 0.384409,1.012716 0.106675,0.556993 0.233142,1.119375 0.281038,1.249737 0.06248,0.170052 0.03992,0.25512 -0.07985,0.301077 -0.307197,0.117883 -1.731746,0.05038 -2.145699,-0.101673 z m 32.459575,0.09818 c -0.0756,-0.03335 -0.10985,-0.105424 -0.076,-0.160167 0.11797,-0.190879 0.58329,-2.771008 0.51861,-2.875651 -0.0358,-0.058 -0.0115,-0.0723 0.0541,-0.03176 0.14348,0.08868 0.55411,-0.437551 0.93449,-1.197552 0.25793,-0.515344 1.12496,-3.001279 1.35274,-3.878532 l 0.0995,-0.38319 0.62692,0.592361 c 1.89086,1.786623 1.94183,5.053061 0.10744,6.885592 -0.78524,0.784441 -1.42189,1.055386 -2.54962,1.08505 -0.51183,0.01346 -0.99249,-0.0028 -1.06814,-0.03615 z m -8.36134,-4.174908 c -0.13618,-0.173646 -0.13231,-0.177518 0.0413,-0.04134 0.18237,0.143025 0.24036,0.232931 0.15025,0.232931 -0.0227,0 -0.10895,-0.08622 -0.19159,-0.191595 z m -21.646337,-0.79375 c 0,-0.150538 0.02485,-0.212123 0.05522,-0.136853 0.03037,0.07527 0.03037,0.198437 0,0.273707 -0.03037,0.07527 -0.05522,0.01368 -0.05522,-0.136854 z m 0.01032,-1.696983 c 0.0012,-0.240862 0.02364,-0.326505 0.04982,-0.190318 0.02619,0.136187 0.02519,0.333256 -0.0022,0.437931 -0.0274,0.104676 -0.04883,-0.0068 -0.04761,-0.247613 z m 5.665494,-0.20556 c 0,-0.02273 0.08622,-0.108952 0.191595,-0.191595 0.173646,-0.136182 0.177518,-0.13231 0.04134,0.04134 -0.143025,0.182371 -0.232931,0.240368 -0.232931,0.150259 z m 18.379143,-0.150259 c -0.13618,-0.173646 -0.13231,-0.177518 0.0413,-0.04134 0.10537,0.08264 0.19159,0.168861 0.19159,0.191595 0,0.09011 -0.0899,0.03211 -0.23293,-0.150259 z M 96.337328,84.612888 c 0.135485,-0.0261 0.357187,-0.0261 0.492672,0 0.135485,0.02609 0.02463,0.04745 -0.246336,0.04745 -0.27097,0 -0.381821,-0.02135 -0.246336,-0.04745 z m 15.765522,0 c 0.13548,-0.0261 0.35718,-0.0261 0.49267,0 0.13548,0.02609 0.0246,0.04745 -0.24634,0.04745 -0.27097,0 -0.38182,-0.02135 -0.24633,-0.04745 z M 94.120302,83.595326 c 0.108989,-0.120431 0.222795,-0.218966 0.252903,-0.218966 0.03011,0 -0.03443,0.09853 -0.143421,0.218966 -0.108989,0.120431 -0.222795,0.218965 -0.252903,0.218965 -0.03011,0 0.03443,-0.09853 0.143421,-0.218965 z m 20.572358,-0.02737 -0.20856,-0.246336 0.24633,0.208564 c 0.2315,0.195998 0.29618,0.284108 0.20857,0.284108 -0.0208,0 -0.13163,-0.110851 -0.24634,-0.246336 z m 2.67876,-0.164224 c -0.13618,-0.173646 -0.13231,-0.177519 0.0413,-0.04134 0.18237,0.143025 0.24037,0.232931 0.15026,0.232931 -0.0227,0 -0.10895,-0.08622 -0.1916,-0.191595 z M 91.437974,82.678127 c 0,-0.02273 0.08622,-0.108951 0.191595,-0.191594 0.173646,-0.136183 0.177518,-0.13231 0.04134,0.04134 -0.143025,0.182371 -0.232931,0.240367 -0.232931,0.150258 z m 22.820266,-1.518793 -0.32156,-0.355819 0.35582,0.321561 c 0.1957,0.176859 0.35582,0.336977 0.35582,0.355819 0,0.08458 -0.0903,0.01012 -0.39008,-0.321561 z m -11.67355,-0.156901 c 0.079,-0.03163 0.17346,-0.02774 0.20984,0.0086 0.0364,0.03638 -0.0283,0.06226 -0.1437,0.0575 -0.12754,-0.0053 -0.15348,-0.0312 -0.0661,-0.06614 z m -4.817244,-0.109482 c 0.07903,-0.03163 0.173461,-0.02774 0.209843,0.0086 0.03638,0.03638 -0.02828,0.06226 -0.143697,0.0575 -0.127541,-0.0053 -0.153483,-0.0312 -0.06615,-0.06615 z m 15.772084,-0.445255 c -0.13619,-0.173646 -0.13231,-0.177518 0.0413,-0.04134 0.10538,0.08264 0.1916,0.168861 0.1916,0.191595 0,0.09011 -0.0899,0.03211 -0.23293,-0.150259 z m 9.76657,-0.638649 c 0.005,-0.127542 0.0312,-0.153484 0.0661,-0.06615 0.0316,0.07903 0.0277,0.173461 -0.009,0.209842 -0.0364,0.03638 -0.0623,-0.02828 -0.0575,-0.143696 z"
         id="path370" /><path
         style="fill:#ee9b64;stroke-width:0.109483"
         d="m 104.22009,110.88875 c 0.13548,-0.0261 0.35718,-0.0261 0.49267,0 0.13548,0.0261 0.0246,0.0474 -0.24634,0.0474 -0.27097,0 -0.38182,-0.0213 -0.24633,-0.0474 z m -1.06949,-9.77206 c -1.46968,-0.14879 -2.69377,-0.6127 -2.96782,-1.124753 -0.10409,-0.194512 -0.0927,-0.217255 0.0835,-0.166905 0.11221,0.03206 0.64171,0.187388 1.17667,0.345168 0.53496,0.15778 1.43409,0.3413 1.99806,0.40781 1.25606,0.14814 2.6348,0.009 4.04888,-0.40781 0.53496,-0.15778 1.06446,-0.313106 1.17667,-0.345168 0.17622,-0.05035 0.1876,-0.02761 0.0835,0.166905 -0.43713,0.816783 -3.18651,1.369043 -5.59946,1.124753 z M 88.700905,92.74885 c 0,-0.02367 0.07646,-0.07237 0.16991,-0.108229 0.09743,-0.03739 0.141378,-0.01903 0.103022,0.04303 -0.0643,0.104032 -0.272932,0.153873 -0.272932,0.0652 z m 6.664483,-1.571843 c -0.136182,-0.173646 -0.13231,-0.177518 0.04134,-0.04134 0.105377,0.08264 0.191595,0.168861 0.191595,0.191595 0,0.09011 -0.08991,0.03211 -0.232931,-0.150259 z m 23.999332,-0.638649 c 0.005,-0.127542 0.0312,-0.153484 0.0661,-0.06615 0.0316,0.07903 0.0277,0.173461 -0.009,0.209842 -0.0364,0.03638 -0.0623,-0.02828 -0.0575,-0.143696 z m -29.755146,-0.92148 c 0,-0.331185 0.02053,-0.46667 0.04561,-0.301078 0.02509,0.165593 0.02509,0.436563 0,0.602156 -0.02509,0.165592 -0.04561,0.03011 -0.04561,-0.301078 z m 5.231009,0.374066 c 0.0053,-0.127541 0.0312,-0.153483 0.06615,-0.06615 0.03163,0.07903 0.02774,0.173461 -0.0086,0.209843 -0.03638,0.03638 -0.06226,-0.02828 -0.0575,-0.143697 z m 19.378447,0 c 0.005,-0.127541 0.0312,-0.153483 0.0661,-0.06615 0.0316,0.07903 0.0277,0.173461 -0.009,0.209843 -0.0364,0.03638 -0.0623,-0.02828 -0.0575,-0.143697 z m -3.50345,-0.218965 c 0.005,-0.127542 0.0312,-0.153484 0.0661,-0.06615 0.0316,0.07903 0.0277,0.173461 -0.009,0.209842 -0.0364,0.03638 -0.0623,-0.02828 -0.0575,-0.143696 z m 8.53966,-0.109483 c 0.005,-0.127542 0.0312,-0.153484 0.0661,-0.06615 0.0316,0.07903 0.0277,0.173461 -0.009,0.209842 -0.0364,0.03638 -0.0623,-0.02828 -0.0575,-0.143696 z M 94.840583,89.553013 c 0.0053,-0.127542 0.0312,-0.153483 0.06615,-0.06615 0.03163,0.07903 0.02774,0.173461 -0.0086,0.209843 -0.03638,0.03638 -0.06226,-0.02828 -0.0575,-0.143697 z m 19.378447,0 c 0.005,-0.127542 0.0312,-0.153483 0.0661,-0.06615 0.0316,0.07903 0.0277,0.173461 -0.009,0.209843 -0.0364,0.03638 -0.0623,-0.02828 -0.0575,-0.143697 z m 4.92673,-0.766379 c 0.005,-0.127542 0.0312,-0.153484 0.0661,-0.06615 0.0316,0.07903 0.0277,0.173461 -0.009,0.209842 -0.0364,0.03638 -0.0623,-0.02828 -0.0575,-0.143696 z M 86.848341,88.020255 c 0.0053,-0.127542 0.0312,-0.153484 0.06615,-0.06615 0.03163,0.07903 0.02774,0.173462 -0.0086,0.209843 -0.03638,0.03638 -0.06226,-0.02828 -0.0575,-0.143696 z m 12.481036,-3.393966 c 0.0053,-0.127542 0.0312,-0.153484 0.06615,-0.06615 0.03163,0.07903 0.02774,0.173461 -0.0086,0.209842 -0.03638,0.03638 -0.06226,-0.02828 -0.0575,-0.143696 z m 10.181893,0 c 0.005,-0.127542 0.0312,-0.153484 0.0662,-0.06615 0.0316,0.07903 0.0277,0.173461 -0.009,0.209842 -0.0364,0.03638 -0.0623,-0.02828 -0.0575,-0.143696 z M 86.41041,83.531461 c 0.0053,-0.127542 0.0312,-0.153484 0.06615,-0.06615 0.03163,0.07903 0.02774,0.173461 -0.0086,0.209842 -0.03638,0.03638 -0.06226,-0.02828 -0.0575,-0.143696 z m 10.14716,-0.779947 c 0.136186,-0.02619 0.333255,-0.02519 0.437931,0.0022 0.104675,0.0274 -0.0068,0.04883 -0.247613,0.04761 -0.240862,-0.0012 -0.326505,-0.02364 -0.190318,-0.04982 z m 15.43707,0 c 0.13619,-0.02619 0.33326,-0.02519 0.43793,0.0022 0.10468,0.0274 -0.007,0.04883 -0.24761,0.04761 -0.24086,-0.0012 -0.32651,-0.02364 -0.19032,-0.04982 z m 11.21062,-0.79843 c 0,-0.150538 0.0249,-0.212122 0.0552,-0.136853 0.0304,0.07527 0.0304,0.198437 0,0.273707 -0.0304,0.07527 -0.0552,0.01368 -0.0552,-0.136854 z M 86.309571,81.734119 c 0,-0.150539 0.02485,-0.212123 0.05522,-0.136854 0.03037,0.07527 0.03037,0.198438 0,0.273707 -0.03037,0.07527 -0.05522,0.01369 -0.05522,-0.136853 z m 8.501841,-0.731686 c 0.07903,-0.03163 0.173461,-0.02774 0.209842,0.0086 0.03638,0.03638 -0.02828,0.06226 -0.143696,0.0575 -0.127542,-0.0053 -0.153484,-0.0312 -0.06615,-0.06614 z m 5.029364,-0.0044 c 0.195704,-0.02428 0.515934,-0.02428 0.711634,0 0.1957,0.02429 0.0356,0.04416 -0.35581,0.04416 -0.391406,0 -0.551524,-0.01987 -0.355824,-0.04416 z m 1.806464,7.67e-4 c 0.16559,-0.02509 0.43656,-0.02509 0.60216,0 0.16559,0.02508 0.0301,0.04561 -0.30108,0.04561 -0.33119,0 -0.46667,-0.02053 -0.30108,-0.04561 z m -6.069449,-0.105855 c 0.07903,-0.03163 0.173461,-0.02774 0.209842,0.0086 0.03638,0.03638 -0.02828,0.06226 -0.143696,0.0575 -0.127542,-0.0053 -0.153484,-0.0312 -0.06615,-0.06615 z m 2.568086,-0.0011 c 0.106523,-0.02776 0.254325,-0.02593 0.328448,0.0041 0.07412,0.02999 -0.01303,0.0527 -0.193678,0.05047 -0.180647,-0.0022 -0.241294,-0.02677 -0.13477,-0.05453 z m 5.533643,0.0011 c 0.079,-0.03163 0.17346,-0.02774 0.20984,0.0086 0.0364,0.03638 -0.0283,0.06226 -0.1437,0.0575 -0.12754,-0.0053 -0.15348,-0.0312 -0.0661,-0.06615 z m 0.87586,-0.109483 c 0.079,-0.03163 0.17346,-0.02774 0.20984,0.0086 0.0364,0.03638 -0.0283,0.06226 -0.1437,0.0575 -0.12754,-0.0053 -0.15348,-0.0312 -0.0661,-0.06615 z m 0.87586,-0.109482 c 0.079,-0.03163 0.17346,-0.02774 0.20984,0.0086 0.0364,0.03638 -0.0283,0.06226 -0.14369,0.0575 -0.12755,-0.0053 -0.15349,-0.0312 -0.0661,-0.06615 z m 17.87486,-0.53649 c 0.005,-0.127542 0.0312,-0.153484 0.0661,-0.06615 0.0316,0.07903 0.0277,0.173461 -0.009,0.209842 -0.0364,0.03638 -0.0623,-0.02828 -0.0575,-0.143696 z m -10.36516,-0.40142 -0.20857,-0.246336 0.24634,0.208564 c 0.23149,0.195998 0.29618,0.284109 0.20856,0.284109 -0.0208,0 -0.13163,-0.110852 -0.24633,-0.246337 z m 4.16559,-11.49569 -0.43278,-0.465302 0.4653,0.43278 c 0.25592,0.238029 0.4653,0.447414 0.4653,0.465302 0,0.08283 -0.0953,-5.4e-5 -0.49782,-0.43278 z m -11.23736,-4.755177 c 0.079,-0.03163 0.17346,-0.02774 0.20984,0.0086 0.0364,0.03638 -0.0283,0.06226 -0.14369,0.0575 -0.12754,-0.0053 -0.15349,-0.0312 -0.0662,-0.06614 z"
         id="path368" /><path
         style="fill:#f5921d;stroke-width:0.109483"
         d="m 84.368951,119.09511 c 0.546403,-3.12761 6.385247,-7.17101 12.929941,-8.95398 l 1.052366,-0.28669 0.56685,0.53362 c 2.567802,2.4173 6.010462,2.9408 9.215992,1.40142 0.75163,-0.36096 1.99466,-1.23222 2.38929,-1.67471 l 0.19963,-0.22385 0.98848,0.27087 c 3.78136,1.03617 7.61419,2.96074 10.18873,5.11603 1.3617,1.13995 2.47454,2.73477 2.66367,3.81729 l 0.0717,0.41056 H 104.4664 84.297205 Z"
         id="path366" /><path
         style="fill:#e56c27;stroke-width:0.109483"
         d="m 103.41121,112.61445 c -1.17566,-0.18553 -2.46061,-0.69366 -3.43358,-1.35779 -0.551972,-0.37677 -1.532759,-1.26331 -1.532759,-1.38547 0,-0.0437 0.421167,-0.16316 0.935928,-0.26539 l 0.935931,-0.18587 0.38091,0.33444 c 0.88332,0.77557 2.07776,1.13542 3.76878,1.13542 1.69244,0 2.88536,-0.35976 3.77082,-1.1372 0.37939,-0.33311 0.38879,-0.33506 1.01576,-0.20993 0.34805,0.0695 0.82233,0.17498 1.05395,0.23448 0.41642,0.10697 0.41887,0.11072 0.21897,0.33483 -0.39738,0.44549 -1.63851,1.31574 -2.39182,1.67709 -1.47476,0.7074 -3.37079,1.03876 -4.72289,0.82539 z m -2.41878,-31.613098 c 0.10652,-0.02776 0.25432,-0.02593 0.32845,0.0041 0.0741,0.02999 -0.013,0.0527 -0.19368,0.05047 -0.18065,-0.0022 -0.24129,-0.02677 -0.13477,-0.05453 z"
         id="path364" /><path
         style="fill:#503529;stroke-width:0.109483"
         d="m 88.238692,92.490801 c -0.613171,-0.700531 -1.213695,-3.223561 -1.557013,-6.541596 -0.92298,-8.920261 -0.202273,-13.215798 2.803254,-16.70786 2.568306,-2.984066 7.710496,-5.142082 13.558217,-5.689958 5.13445,-0.481049 10.38556,1.213162 13.79467,4.450692 0.54379,0.516416 1.24939,1.056136 1.69714,1.298155 1.54816,0.836818 2.58404,1.957631 3.44736,3.730005 0.93177,1.912928 1.31352,3.836735 1.31436,6.623707 8.8e-4,2.811634 -0.41648,5.627782 -1.26844,8.559444 -0.64187,2.208734 -1.53321,4.031074 -1.97168,4.031074 -0.28523,0 -0.48638,-0.730604 -0.75677,-2.748642 -0.32867,-2.452976 -0.44735,-3.107691 -0.72903,-4.021764 -0.47188,-1.531304 -0.91073,-2.082676 -2.25196,-2.829358 -0.93898,-0.522747 -2.48319,-1.906444 -3.60526,-3.230524 l -0.43515,-0.513478 -0.75835,0.275494 c -2.0447,0.742791 -4.57628,1.324198 -7.08333,1.626767 -1.21076,0.146124 -2.27819,0.174881 -5.419395,0.146002 -4.353603,-0.04003 -4.493688,-0.02436 -5.995972,0.670559 -1.492983,0.690616 -2.544229,1.851536 -3.194031,3.527257 -0.147842,0.381254 -0.198078,1.052279 -0.256788,3.430015 -0.07262,2.940936 -0.155357,3.594667 -0.498376,3.937685 -0.224179,0.224179 -0.626513,0.212751 -0.833456,-0.02368 z m 8.105478,-0.868539 c 0.07903,-0.03163 0.173462,-0.02774 0.209843,0.0086 0.03638,0.03638 -0.02828,0.06226 -0.143696,0.0575 -0.127542,-0.0053 -0.153484,-0.0312 -0.06615,-0.06614 z m 0.437931,0 c 0.07903,-0.03163 0.173462,-0.02774 0.209843,0.0086 0.03638,0.03638 -0.02828,0.06226 -0.143696,0.0575 -0.127542,-0.0053 -0.153484,-0.0312 -0.06615,-0.06614 z m 15.437069,0 c 0.079,-0.03163 0.17346,-0.02774 0.20984,0.0086 0.0364,0.03638 -0.0283,0.06226 -0.14369,0.0575 -0.12754,-0.0053 -0.15349,-0.0312 -0.0661,-0.06614 z m 0.43793,0 c 0.079,-0.03163 0.17346,-0.02774 0.20984,0.0086 0.0364,0.03638 -0.0283,0.06226 -0.14369,0.0575 -0.12754,-0.0053 -0.15349,-0.0312 -0.0661,-0.06614 z M 97.733233,91.149637 c 0.108989,-0.120431 0.222795,-0.218966 0.252903,-0.218966 0.03011,0 -0.03443,0.09853 -0.14342,0.218966 -0.108989,0.120431 -0.222796,0.218965 -0.252903,0.218965 -0.03011,0 0.03443,-0.09853 0.14342,-0.218965 z m 13.565457,-0.02737 -0.20856,-0.246336 0.24634,0.208563 c 0.13548,0.11471 0.24633,0.225561 0.24633,0.246337 0,0.08761 -0.0881,0.02293 -0.28411,-0.208564 z m 0.0512,-1.806466 c -0.13618,-0.173646 -0.13231,-0.177518 0.0413,-0.04134 0.18237,0.143025 0.24037,0.232931 0.15026,0.232931 -0.0227,0 -0.10896,-0.08622 -0.1916,-0.191595 z m 0.90712,-0.355819 c 0,-0.150538 0.0249,-0.212122 0.0552,-0.136853 0.0304,0.07527 0.0304,0.198437 0,0.273707 -0.0304,0.07527 -0.0552,0.01368 -0.0552,-0.136854 z M 95.238177,88.850608 c -0.05667,-0.216696 0.09478,-0.41145 0.221449,-0.28478 0.03614,0.03614 0.01284,0.06571 -0.05178,0.06571 -0.06461,0 -0.09171,0.09853 -0.06022,0.218966 0.03149,0.120431 0.03263,0.218965 0.0025,0.218965 -0.03011,0 -0.0805,-0.09848 -0.111974,-0.218856 z m 15.970483,-0.204443 c -0.0322,-0.05217 0.0305,-0.175541 0.13951,-0.274162 0.16347,-0.147933 0.19814,-0.151558 0.19814,-0.02071 0,0.08723 -0.0534,0.149017 -0.11861,0.137308 -0.0652,-0.01171 -0.10629,0.0403 -0.0912,0.115565 0.0315,0.157445 -0.0416,0.18147 -0.12781,0.042 z m 2.44603,-0.206227 -0.26542,-0.301077 0.30108,0.26542 c 0.2814,0.248076 0.35128,0.336735 0.26542,0.336735 -0.0196,0 -0.1551,-0.135485 -0.30108,-0.301078 z m -15.931859,-0.05474 -0.208564,-0.246336 0.246337,0.208563 c 0.231494,0.195998 0.296177,0.284109 0.208563,0.284109 -0.02078,0 -0.131627,-0.110851 -0.246336,-0.246336 z m -1.330762,-0.48603 c 0.105377,-0.02754 0.277813,-0.02754 0.38319,0 0.105377,0.02754 0.01916,0.05007 -0.191595,0.05007 -0.210754,0 -0.296972,-0.02253 -0.191595,-0.05007 z m 15.984481,0 c 0.10538,-0.02754 0.27782,-0.02754 0.38319,0 0.10538,0.02754 0.0192,0.05007 -0.19159,0.05007 -0.21076,0 -0.29697,-0.02253 -0.1916,-0.05007 z m -14.095903,-2.96928 c -0.893475,-0.384735 -2.280493,-0.402788 -3.384064,-0.04405 -0.916407,0.297899 -1.159625,0.249545 -1.159062,-0.230436 8.76e-4,-0.736306 0.760852,-1.465211 1.800689,-1.727045 0.749207,-0.188653 2.204879,-0.07916 2.760588,0.207653 0.735216,0.379456 1.147521,1.148348 0.977988,1.82382 -0.08395,0.334467 -0.154807,0.332337 -0.996139,-0.02994 z m 11.375413,0.02994 c -0.16953,-0.675472 0.24277,-1.444364 0.97799,-1.82382 0.55571,-0.286809 2.01138,-0.396306 2.76059,-0.207653 1.03983,0.261834 1.79982,0.990739 1.80068,1.727045 5.5e-4,0.479981 -0.24265,0.528335 -1.15906,0.230436 -1.11741,-0.36324 -2.47971,-0.341065 -3.44739,0.05611 -0.39613,0.162587 -0.75238,0.295613 -0.79167,0.295613 -0.0393,0 -0.1028,-0.124981 -0.14114,-0.277734 z"
         id="path362" /><path
         style="fill:#3a2418;stroke-width:0.109483"
         d="m 96.307667,91.586221 c -1.064276,-0.225965 -1.659125,-1.494379 -1.207607,-2.575015 0.151745,-0.363177 0.340397,-0.556815 0.209078,-0.214604 -0.03484,0.09079 0.01711,0.287858 0.115443,0.437932 0.236337,0.360696 0.658815,0.360296 0.895444,-8.76e-4 0.166683,-0.254392 0.166102,-0.29391 -0.0082,-0.559993 -0.159991,-0.244175 -0.243474,-0.277213 -0.567583,-0.224619 l -0.380001,0.06167 0.296088,-0.232902 c 0.429778,-0.338063 1.307903,-0.383303 1.772869,-0.09133 0.692131,0.434614 1.032273,1.33098 0.79967,2.107343 -0.270658,0.903376 -1.10843,1.465778 -1.92516,1.292371 z m 15.824293,-0.01037 c -0.75173,-0.158827 -1.42922,-1.26717 -1.27464,-2.085264 0.0978,-0.517578 0.44431,-1.042215 0.86134,-1.304079 0.53033,-0.333013 1.39421,-0.248747 1.85074,0.180528 0.66155,0.622057 0.81614,1.475795 0.41665,2.301035 -0.35226,0.727657 -1.06197,1.075141 -1.85409,0.90778 z m 0.049,-2.283009 c 0.27023,-0.298603 0.14619,-0.744669 -0.23359,-0.839986 -0.37599,-0.09437 -0.62951,0.07225 -0.67357,0.442677 -0.0684,0.575388 0.51482,0.830836 0.90716,0.397309 z"
         id="path360" /></g></g></svg>
