<?xml version="1.0" encoding="UTF-8" standalone="no"?>
<!-- Created with Inkscape (http://www.inkscape.org/) -->

<svg
   width="13.22913mm"
   height="13.229168mm"
   viewBox="0 0 13.22913 13.229168"
   version="1.1"
   id="svg5"
   xml:space="preserve"
   sodipodi:docname="search-yellow.svg"
   inkscape:version="1.2 (dc2aedaf03, 2022-05-15)"
   xmlns:inkscape="http://www.inkscape.org/namespaces/inkscape"
   xmlns:sodipodi="http://sodipodi.sourceforge.net/DTD/sodipodi-0.dtd"
   xmlns="http://www.w3.org/2000/svg"
   xmlns:svg="http://www.w3.org/2000/svg"><sodipodi:namedview
     id="namedview7"
     pagecolor="#ffffff"
     bordercolor="#666666"
     borderopacity="1.0"
     inkscape:showpageshadow="2"
     inkscape:pageopacity="0.0"
     inkscape:pagecheckerboard="0"
     inkscape:deskcolor="#d1d1d1"
     inkscape:document-units="mm"
     showgrid="false"
     inkscape:zoom="1"
     inkscape:cx="67"
     inkscape:cy="214"
     inkscape:window-width="1600"
     inkscape:window-height="831"
     inkscape:window-x="1920"
     inkscape:window-y="107"
     inkscape:window-maximized="1"
     inkscape:current-layer="layer1" /><defs
     id="defs2" /><g
     inkscape:label="Layer 1"
     inkscape:groupmode="layer"
     id="layer1"
     transform="translate(165.76962,-40.519454)"><path
       style="fill:#ffcc00;stroke-width:0.0258825"
       d="m -153.36727,53.718435 c 0.17542,-0.04927 0.28858,-0.117991 0.46069,-0.279757 0.43814,-0.41181 0.48357,-0.933323 0.13323,-1.529367 -0.0894,-0.152131 -0.36008,-0.43672 -1.57904,-1.66031 -1.31533,-1.320326 -1.47112,-1.485274 -1.47112,-1.557586 0,-0.04863 0.0614,-0.197865 0.1539,-0.374255 0.27273,-0.519894 0.42726,-0.966187 0.54692,-1.579577 0.066,-0.338384 0.0923,-1.04434 0.0532,-1.425891 -0.12899,-1.256541 -0.69181,-2.407421 -1.61132,-3.294851 -0.82365,-0.794912 -1.75661,-1.254322 -2.94902,-1.452164 -0.36454,-0.06048 -1.19621,-0.06026 -1.57429,4.38e-4 -0.79614,0.127791 -1.54796,0.414752 -2.16731,0.827236 -1.28417,0.855244 -2.10628,2.146321 -2.35286,3.69505 -0.0539,0.338804 -0.0614,1.15763 -0.0135,1.486682 0.14611,1.004408 0.52405,1.901432 1.11801,2.653479 0.30457,0.385632 0.86089,0.890912 1.2778,1.160554 1.29323,0.836424 2.78725,1.06843 4.29499,0.666969 0.322,-0.08574 0.71477,-0.243724 1.07139,-0.430953 0.17632,-0.09257 0.3255,-0.153965 0.37411,-0.153965 0.0723,0 0.23716,0.155854 1.55696,1.471709 1.56793,1.56324 1.62035,1.608976 1.99605,1.741584 0.20062,0.07081 0.49914,0.08614 0.68126,0.03498 z m -7.57274,-3.908142 c -0.7275,-0.103465 -1.32326,-0.351823 -1.89571,-0.790279 -1.32995,-1.018647 -1.86867,-2.789069 -1.33902,-4.40045 0.10329,-0.31425 0.33251,-0.767279 0.52679,-1.041165 0.19481,-0.274634 0.66089,-0.740902 0.93542,-0.93579 1.39683,-0.991627 3.31801,-0.965996 4.68415,0.06249 1.03151,0.776567 1.63612,2.050856 1.57629,3.322236 -0.0646,1.372169 -0.76617,2.560335 -1.92542,3.26073 -0.74164,0.448088 -1.70431,0.644276 -2.5625,0.522226 z m 3.21452,-4.307414 c 0.32279,-0.148134 0.40922,-0.459788 0.23082,-0.83227 -0.38572,-0.805312 -0.99177,-1.385613 -1.81421,-1.737142 -0.74373,-0.317882 -1.61033,-0.357134 -2.39846,-0.108637 -0.25361,0.07997 -0.42345,0.163408 -0.50016,0.245741 -0.20075,0.215456 -0.17601,0.590127 0.0522,0.790591 0.16534,0.145228 0.3631,0.171751 0.60514,0.08116 0.87692,-0.328227 1.77469,-0.175153 2.46656,0.42056 0.22507,0.193789 0.37181,0.385024 0.55603,0.724615 0.0805,0.148427 0.17165,0.29065 0.20252,0.316051 0.18372,0.151207 0.40618,0.188066 0.59954,0.09934 z"
       id="path402" /></g></svg>
