<?xml version="1.0" encoding="UTF-8" standalone="no"?>
<!-- Created with Inkscape (http://www.inkscape.org/) -->

<svg
   width="15.875mm"
   height="15.874999mm"
   viewBox="0 0 15.875 15.874999"
   version="1.1"
   id="svg5"
   xml:space="preserve"
   inkscape:version="1.2 (dc2aedaf03, 2022-05-15)"
   sodipodi:docname="search.svg"
   xmlns:inkscape="http://www.inkscape.org/namespaces/inkscape"
   xmlns:sodipodi="http://sodipodi.sourceforge.net/DTD/sodipodi-0.dtd"
   xmlns="http://www.w3.org/2000/svg"
   xmlns:svg="http://www.w3.org/2000/svg"><sodipodi:namedview
     id="namedview7"
     pagecolor="#ffffff"
     bordercolor="#666666"
     borderopacity="1.0"
     inkscape:showpageshadow="2"
     inkscape:pageopacity="0.0"
     inkscape:pagecheckerboard="0"
     inkscape:deskcolor="#d1d1d1"
     inkscape:document-units="mm"
     showgrid="false"
     inkscape:zoom="0.61112514"
     inkscape:cx="251.17605"
     inkscape:cy="248.72156"
     inkscape:window-width="1600"
     inkscape:window-height="831"
     inkscape:window-x="1920"
     inkscape:window-y="107"
     inkscape:window-maximized="1"
     inkscape:current-layer="layer1" /><defs
     id="defs2" /><g
     inkscape:label="Layer 1"
     inkscape:groupmode="layer"
     id="layer1"
     transform="translate(30.771094,23.662698)"><g
       id="g599"
       transform="matrix(0.10990696,0,0,0.10992335,-27.389137,-21.061615)"><ellipse
         style="opacity:1;fill:#ffffff;stroke-width:1.32292"
         id="path588"
         cx="18.648991"
         cy="29.909582"
         rx="43.51823"
         ry="48.236553" /><g
         id="g520"
         transform="translate(-32.464845,-0.34523871)"><path
           style="fill:#cde1f1;stroke-width:0.282222"
           d="m 96.478223,88.478688 -0.684195,-0.776112 0.776112,0.684195 c 0.725392,0.639484 0.905535,0.868028 0.684194,0.868028 -0.05055,0 -0.399802,-0.34925 -0.776111,-0.776111 z M 54.665196,83.970264 c 0.507252,-0.06281 1.269252,-0.06152 1.693334,0.0029 0.424081,0.0644 0.0091,0.115787 -0.922277,0.114204 -0.931333,-0.0017 -1.278309,-0.05427 -0.771057,-0.117083 z M 50.405639,73.998981 C 33.471189,72.030854 19.10371,60.4346 13.710254,44.381468 10.945664,36.152918 10.672923,27.22963 12.927192,18.761988 16.961849,3.6067299 29.381162,-8.5318795 44.711809,-12.304227 c 7.248378,-1.783578 15.404777,-1.692302 22.326178,0.249846 14.149318,3.9703052 25.399347,14.6592585 29.99163,28.49585 3.133153,9.440209 2.956137,19.913994 -0.494487,29.258245 -4.334521,11.737833 -14.069093,21.472602 -25.810632,25.811154 -6.268342,2.31618 -13.830488,3.242191 -20.318859,2.488113 z M 24.758603,46.80717 c 2.358992,-1.227381 2.701503,-2.710831 1.495307,-6.476328 -1.3724,-4.284356 -1.815539,-7.379978 -1.621958,-11.330485 0.31535,-6.435504 1.994961,-11.215355 6.028482,-17.155901 1.200756,-1.768469 1.492487,-2.4239331 1.492487,-3.3533557 0,-3.5706415 -4.22012,-5.1920346 -6.676856,-2.5652842 -3.457426,3.6966961 -7.064026,11.5856699 -8.162046,17.8534309 -0.613996,3.504832 -0.622227,9.488739 -0.01775,12.904204 0.538853,3.044675 1.902998,7.440015 2.722591,8.77231 0.952969,1.549112 3.153748,2.176605 4.739743,1.351409 z M 42.022181,2.6290654 c 3.537836,-1.64403132 6.259965,-2.44578143 9.745183,-2.8702552 3.572437,-0.43509605 4.758775,-1.1640622 5.219593,-3.2072705 0.310715,-1.3776776 -0.09681,-2.6889294 -1.147349,-3.691668 -0.85416,-0.8153002 -0.92318,-0.8298292 -3.741228,-0.787567 -4.396799,0.065938 -9.806127,1.5838849 -14.687837,4.1216484 -2.511702,1.3057104 -3.279374,2.2529723 -3.281011,4.04855887 -0.0011,1.32334553 0.895437,2.86983183 1.982972,3.42013013 1.336316,0.6761852 2.769966,0.4254466 5.909677,-1.0335767 z m 71.389369,68.9162896 -0.68419,-0.776111 0.77611,0.684194 c 0.72539,0.639485 0.90554,0.868028 0.6842,0.868028 -0.0506,0 -0.39981,-0.34925 -0.77612,-0.776111 z m -92.583516,0 c -0.351048,-0.447621 -0.341066,-0.457603 0.106554,-0.106556 0.271639,0.213036 0.493889,0.435286 0.493889,0.493889 0,0.23228 -0.231757,0.08278 -0.600443,-0.387333 z m -2.807584,-2.54 -0.684195,-0.776111 0.776111,0.684194 c 0.725393,0.639485 0.905535,0.868028 0.684195,0.868028 -0.05055,0 -0.399803,-0.34925 -0.776111,-0.776111 z m -1.557676,-1.552222 -0.53763,-0.635 0.635,0.537631 c 0.596743,0.505239 0.763479,0.732369 0.53763,0.732369 -0.05355,0 -0.339304,-0.28575 -0.635,-0.635 z m -2.54,-2.822222 -0.53763,-0.635 0.635,0.537631 c 0.34925,0.295695 0.635,0.581445 0.635,0.635 0,0.225848 -0.227131,0.05911 -0.73237,-0.537631 z M 1.7383987,34.50369 c 0,-0.543277 0.05808,-0.765527 0.1290667,-0.493888 0.070987,0.271638 0.070987,0.716138 0,0.987777 -0.070987,0.271639 -0.1290667,0.04939 -0.1290667,-0.493889 z M 109.00193,30.270357 c 0,-0.853722 0.0529,-1.202972 0.11757,-0.776111 0.0647,0.426861 0.0647,1.125361 0,1.552222 -0.0647,0.426861 -0.11757,0.07761 -0.11757,-0.776111 z M 1.7383987,26.037024 c 0,-0.543278 0.05808,-0.765528 0.1290667,-0.493889 0.070987,0.271639 0.070987,0.716139 0,0.987778 -0.070987,0.271639 -0.1290667,0.04939 -0.1290667,-0.493889 z M 96.463584,-4.0901964 c -0.351048,-0.4476202 -0.341066,-0.4576024 0.106556,-0.1065544 0.470111,0.3686864 0.619613,0.6004433 0.387333,0.6004433 -0.0586,0 -0.280854,-0.22225 -0.493889,-0.4938889 z m -81.80844,-0.776111 c 0.364559,-0.3880556 0.726335,-0.7055556 0.803946,-0.7055556 0.07761,0 -0.157165,0.3175 -0.521724,0.7055556 -0.364559,0.3880555 -0.726335,0.7055555 -0.803946,0.7055555 -0.07761,0 0.157165,-0.3175 0.521724,-0.7055555 z m 79.283079,-2.046111 -0.684194,-0.7761111 0.776111,0.6841952 c 0.426861,0.3763075 0.776111,0.7255575 0.776111,0.7761111 0,0.2213395 -0.228544,0.041197 -0.868028,-0.6841952 z M 16.912922,-7.3717506 c 0,-0.058605 0.22225,-0.2808551 0.493888,-0.4938889 0.447621,-0.351048 0.457603,-0.3410658 0.106555,0.1065544 -0.368686,0.4701111 -0.600443,0.619613 -0.600443,0.3873345 z m 75.331967,-1.2340011 -0.684194,-0.7761111 0.776111,0.6841953 c 0.426861,0.3763075 0.776111,0.7255574 0.776111,0.7761111 0,0.2213395 -0.228543,0.041197 -0.868028,-0.6841953 z M 20.017366,-10.228529 c 0.364559,-0.388056 0.726335,-0.705556 0.803946,-0.705556 0.07761,0 -0.157165,0.3175 -0.521724,0.705556 -0.364559,0.3880552 -0.726335,0.7055551 -0.803946,0.7055551 -0.07761,0 0.157165,-0.3174999 0.521724,-0.7055551 z m 69.390663,-0.917223 c -0.351048,-0.44762 -0.341066,-0.457602 0.106555,-0.106554 0.470112,0.368686 0.619614,0.600443 0.387333,0.600443 -0.0586,0 -0.280853,-0.22225 -0.493888,-0.493889 z M 62.015558,-22.980208 c 0.203728,-0.08152 0.447144,-0.0715 0.540927,0.02228 0.09378,0.09378 -0.07291,0.160483 -0.370417,0.148229 -0.328775,-0.01354 -0.395647,-0.08042 -0.17051,-0.17051 z m -11.165416,-0.283975 c 0.271639,-0.07099 0.716139,-0.07099 0.987778,0 0.271639,0.07099 0.04939,0.129067 -0.493889,0.129067 -0.543278,0 -0.765528,-0.05808 -0.493889,-0.129067 z m 8.184444,0 c 0.271639,-0.07099 0.716139,-0.07099 0.987778,0 0.271639,0.07099 0.04939,0.129067 -0.493889,0.129067 -0.543278,0 -0.765528,-0.05808 -0.493889,-0.129067 z"
           id="path534" /><path
           style="fill:#fccc57;stroke-width:0.282222"
           d="m 132.83569,120.959 c 0.19403,-0.0783 0.51153,-0.0783 0.70556,0 0.19403,0.0783 0.0353,0.14235 -0.35278,0.14235 -0.38805,0 -0.5468,-0.0641 -0.35278,-0.14235 z m 2.25778,0 c 0.19403,-0.0783 0.51153,-0.0783 0.70556,0 0.19402,0.0783 0.0353,0.14235 -0.35278,0.14235 -0.38806,0 -0.54681,-0.0641 -0.35278,-0.14235 z m -8.71433,-2.84698 c -0.35105,-0.44762 -0.34107,-0.4576 0.10655,-0.10656 0.47012,0.36869 0.61962,0.60045 0.38734,0.60045 -0.0586,0 -0.28086,-0.22225 -0.49389,-0.49389 z m 16.12266,-0.49389 c 0.36456,-0.38806 0.72634,-0.70556 0.80395,-0.70556 0.0776,0 -0.15716,0.3175 -0.52172,0.70556 -0.36456,0.38806 -0.72634,0.70556 -0.80395,0.70556 -0.0776,0 0.15716,-0.3175 0.52172,-0.70556 z m -3.32224,-1.33496 c -1.09747,-0.52892 -1.07273,-1.42252 0.0916,-3.30891 1.2045,-1.95144 1.50274,-3.67587 0.97877,-5.65929 -0.30399,-1.15073 -1.70863,-2.64435 -15.19363,-16.156162 l -14.85866,-14.888215 1.18127,-1.181275 1.18128,-1.181278 14.75913,14.913087 c 8.11753,8.202199 14.98729,15.287493 15.26614,15.745093 0.83813,1.3754 1.40351,4.0736 1.1981,5.71769 -0.24035,1.92371 -1.53315,4.62173 -2.67492,5.58247 -1.00855,0.84864 -1.02544,0.85229 -1.92909,0.41679 z m 6.75347,-5.86171 c 0,-0.38805 0.0641,-0.5468 0.14235,-0.35277 0.0783,0.19402 0.0783,0.51152 0,0.70555 -0.0783,0.19403 -0.14235,0.0353 -0.14235,-0.35278 z m 0,-2.25777 c 0,-0.38806 0.0641,-0.54681 0.14235,-0.35278 0.0783,0.19403 0.0783,0.51153 0,0.70555 -0.0783,0.19403 -0.14235,0.0353 -0.14235,-0.35277 z m -2.90278,-6.70278 c -0.35105,-0.44762 -0.34107,-0.4576 0.10655,-0.10656 0.47012,0.36869 0.61962,0.60045 0.38734,0.60045 -0.0586,0 -0.28086,-0.22225 -0.49389,-0.49389 z"
           id="path532" /><path
           style="fill:#fd8d30;stroke-width:0.282222"
           d="m 132.42457,120.85763 c -0.80821,-0.11635 -2.32944,-0.61397 -3.38053,-1.10583 -1.77182,-0.82914 -2.99653,-1.97741 -16.80878,-15.75959 l -14.897724,-14.865298 6.423254,-6.427808 6.42325,-6.427811 14.47815,14.464532 c 7.96297,7.955491 14.75822,14.909025 15.10054,15.452305 0.48991,0.7775 0.62241,1.41258 0.62241,2.98327 0,1.82145 -0.0946,2.14893 -1.08509,3.75477 -0.75399,1.22246 -1.03592,1.95512 -0.92399,2.40112 0.19947,0.79474 1.42704,1.40863 2.09576,1.04805 1.42808,-0.77001 3.01149,-3.68821 3.31371,-6.10712 0.20319,-1.62628 -0.3852,-4.42158 -1.20076,-5.70454 -0.27077,-0.42594 -7.13465,-7.494894 -15.25306,-15.708785 l -14.76076,-14.934349 0.77933,-0.813447 0.77933,-0.813443 14.87568,14.905857 c 13.71545,13.743277 14.94445,15.052837 15.75752,16.790307 2.16244,4.62103 1.44547,9.66583 -1.87878,13.21973 -2.77068,2.96208 -6.40924,4.23115 -10.45946,3.64808 z"
           id="path530" /><path
           style="fill:#778796;stroke-width:0.282222"
           d="m 50.285698,83.698032 c 0.271638,-0.07098 0.716138,-0.07098 0.987777,0 0.271639,0.07099 0.04939,0.129069 -0.493889,0.129069 -0.543277,0 -0.765527,-0.05808 -0.493888,-0.129069 z m 9.03111,0 c 0.271639,-0.07098 0.716139,-0.07098 0.987778,0 0.271639,0.07099 0.04939,0.129069 -0.493889,0.129069 -0.543278,0 -0.765528,-0.05808 -0.493889,-0.129069 z m 33.79246,-7.354899 -4.088573,-4.162778 4.162778,4.088573 c 2.289528,2.248713 4.162778,4.121963 4.162778,4.162778 0,0.201975 -0.438814,-0.221466 -4.236983,-4.088573 z M 50.850142,74.102477 c 0.271639,-0.07098 0.716139,-0.07098 0.987778,0 0.271639,0.07099 0.04939,0.129069 -0.493889,0.129069 -0.543278,0 -0.765528,-0.05808 -0.493889,-0.129069 z m 8.046624,-0.0051 c 0.351059,-0.0675 0.859059,-0.06494 1.128888,0.0057 0.26983,0.07064 -0.01741,0.125871 -0.63829,0.122738 -0.620889,-0.0031 -0.841657,-0.06093 -0.490598,-0.128434 z M 48.751114,73.822019 c 0.203728,-0.08152 0.447145,-0.0715 0.540927,0.02227 0.09378,0.09378 -0.07291,0.160483 -0.370416,0.148229 -0.328775,-0.01355 -0.395648,-0.08042 -0.170511,-0.170507 z m 12.7,0 c 0.203727,-0.08152 0.447144,-0.0715 0.540926,0.02227 0.09378,0.09378 -0.07291,0.160483 -0.370416,0.148229 -0.328775,-0.01355 -0.395647,-0.08042 -0.17051,-0.170507 z M 47.057781,73.539797 c 0.203728,-0.08153 0.447144,-0.0715 0.540927,0.02227 0.09378,0.09378 -0.07291,0.160483 -0.370417,0.148229 -0.328775,-0.01355 -0.395647,-0.08042 -0.17051,-0.170507 z m 16.368888,0 c 0.203728,-0.08153 0.447144,-0.0715 0.540927,0.02227 0.09378,0.09378 -0.07291,0.160483 -0.370417,0.148229 -0.328774,-0.01355 -0.395647,-0.08042 -0.17051,-0.170507 z m 37.867041,-5.381108 -4.088571,-4.162778 4.162781,4.088573 c 3.8671,3.798169 4.29055,4.236982 4.08857,4.236982 -0.0408,0 -1.91406,-1.87325 -4.16278,-4.162777 z m -81.44427,2.398888 -0.53763,-0.635 0.635,0.537631 c 0.596744,0.50524 0.763479,0.732369 0.53763,0.732369 -0.05355,0 -0.339303,-0.28575 -0.635,-0.635 z m -4.948073,-4.938888 c -0.351048,-0.447622 -0.341066,-0.457604 0.106555,-0.106556 0.271639,0.213035 0.493889,0.435285 0.493889,0.493889 0,0.23228 -0.231757,0.08278 -0.600444,-0.387333 z m 68.051551,-1.023778 c 0,-0.0586 0.22225,-0.280854 0.493889,-0.493889 0.447621,-0.351048 0.457603,-0.341066 0.106556,0.106556 -0.368687,0.470111 -0.600445,0.619613 -0.600445,0.387333 z m -56.465802,-0.951778 -0.684195,-0.776111 0.776111,0.684194 c 0.725393,0.639485 0.905535,0.868028 0.684195,0.868028 -0.05055,0 -0.399803,-0.34925 -0.776111,-0.776111 z M 86.32779,61.526467 c 1.169518,-1.246065 1.422906,-1.470121 1.422906,-1.258206 0,0.04529 -0.60325,0.648544 -1.340556,1.340555 l -1.340555,1.258206 z m -64.493734,-2.54 -0.828912,-0.917222 0.917222,0.828912 c 0.504472,0.455902 0.917222,0.868651 0.917222,0.917222 0,0.218034 -0.23287,0.02608 -1.005532,-0.828912 z m 67.045528,-0.318223 c 0,-0.0586 0.22225,-0.280853 0.493889,-0.493888 0.447622,-0.351048 0.457604,-0.341066 0.106556,0.106555 -0.368687,0.470112 -0.600445,0.619614 -0.600445,0.387333 z m 9.617837,-20.095849 c 0.01355,-0.328775 0.08042,-0.395647 0.170507,-0.17051 0.08153,0.203727 0.0715,0.447144 -0.02227,0.540927 -0.09378,0.09378 -0.160483,-0.07291 -0.148229,-0.370417 z m 0.282222,-1.975556 c 0.01355,-0.328774 0.08042,-0.395647 0.170507,-0.17051 0.08153,0.203728 0.0715,0.447145 -0.02227,0.540927 -0.09378,0.09378 -0.160483,-0.07291 -0.148229,-0.370417 z M 11.57298,36.032395 c 0.01354,-0.328775 0.08042,-0.395647 0.17051,-0.17051 0.08153,0.203728 0.0715,0.447144 -0.02228,0.540927 -0.09378,0.09378 -0.160483,-0.07291 -0.14823,-0.370417 z m 97.12763,-1.246482 c 0,-0.543278 0.0581,-0.765528 0.12907,-0.493889 0.071,0.271639 0.071,0.716139 0,0.987778 -0.071,0.271638 -0.12907,0.04939 -0.12907,-0.493889 z m -9.589855,-0.423334 c 0.0031,-0.620889 0.06093,-0.841657 0.128433,-0.490598 0.0675,0.351059 0.06494,0.859059 -0.0057,1.128889 -0.07064,0.26983 -0.125871,-0.01741 -0.122738,-0.638291 z M 11.349197,32.951468 c 0.0021,-0.776111 0.05693,-1.060114 0.121798,-0.631119 0.06487,0.428995 0.06314,1.063995 -0.0039,1.411111 -0.06699,0.347116 -0.120064,-0.0039 -0.117945,-0.779992 z M 1.7383987,32.810357 c 0,-0.543278 0.05808,-0.765528 0.1290667,-0.493889 0.070987,0.271639 0.070987,0.716139 0,0.987778 -0.070987,0.271639 -0.1290667,0.04939 -0.1290667,-0.493889 z m 9.6107983,-4.938888 c 0.0021,-0.776111 0.05693,-1.060115 0.121798,-0.63112 0.06487,0.428995 0.06314,1.063995 -0.0039,1.411111 -0.06699,0.347117 -0.120064,-0.0039 -0.117945,-0.779991 z M 1.7383987,27.730357 c 0,-0.543277 0.05808,-0.765527 0.1290667,-0.493888 0.070987,0.271638 0.070987,0.716138 0,0.987777 -0.070987,0.271639 -0.1290667,0.04939 -0.1290667,-0.493889 z M 99.105059,26.319246 c 0,-0.543277 0.05808,-0.765527 0.129069,-0.493888 0.07099,0.271638 0.07099,0.716138 0,0.987777 -0.07099,0.271639 -0.129069,0.04939 -0.129069,-0.493889 z m 9.595551,-0.564444 c 0,-0.543278 0.0581,-0.765528 0.12907,-0.493889 0.071,0.271639 0.071,0.716139 0,0.987778 -0.071,0.271639 -0.12907,0.04939 -0.12907,-0.493889 z M 11.57298,24.461285 c 0.01354,-0.328775 0.08042,-0.395648 0.17051,-0.170511 0.08153,0.203728 0.0715,0.447145 -0.02228,0.540927 -0.09378,0.09378 -0.160483,-0.07291 -0.14823,-0.370416 z M 98.779643,23.89684 c 0.01355,-0.328775 0.08042,-0.395647 0.170507,-0.17051 0.08153,0.203728 0.0715,0.447144 -0.02227,0.540927 -0.09378,0.09378 -0.160483,-0.07291 -0.148229,-0.370417 z M 11.855202,22.767951 c 0.01354,-0.328774 0.08042,-0.395647 0.17051,-0.17051 0.08153,0.203728 0.0715,0.447144 -0.02228,0.540927 -0.09378,0.09378 -0.160483,-0.07291 -0.148228,-0.370417 z m 86.642219,-0.564444 c 0.01355,-0.328775 0.08042,-0.395647 0.170507,-0.17051 0.08153,0.203727 0.0715,0.447144 -0.02227,0.540927 -0.09378,0.09378 -0.160483,-0.07291 -0.148229,-0.370417 z M 88.438496,1.4131367 87.609584,0.49591449 88.526807,1.3248268 c 0.854981,0.7726626 1.046945,1.005532 0.828912,1.005532 -0.04857,0 -0.461321,-0.4127499 -0.917223,-0.9172221 z M 21.992921,1.3953824 c 0,-0.04857 0.41275,-0.46132047 0.917222,-0.91722222 l 0.917223,-0.82891231 -0.828913,0.91722218 C 22.225791,1.4214495 21.992921,1.6134162 21.992921,1.3953824 Z m 2.822222,-2.8222221 c 0,-0.048571 0.41275,-0.4613204 0.917223,-0.9172222 l 0.917222,-0.8289123 -0.828913,0.9172222 c -0.772662,0.8549795 -1.005532,1.0469462 -1.005532,0.8289123 z m 59.107798,-1.6755789 -0.828912,-0.9172222 0.917222,0.8289123 c 0.854981,0.7726626 1.046946,1.005532 0.828912,1.005532 -0.04857,0 -0.46132,-0.41275 -0.917222,-0.9172221 z m 11.562051,-1.9755555 -0.53763,-0.635 0.635,0.53763 c 0.596742,0.5052392 0.763479,0.73237 0.53763,0.73237 -0.05355,0 -0.339304,-0.28575 -0.635,-0.635 z M 15.501811,-5.6784174 c 0,-0.058605 0.22225,-0.2808551 0.493888,-0.4938888 0.447621,-0.351048 0.457603,-0.3410658 0.106555,0.1065544 -0.368687,0.4701111 -0.600443,0.6196129 -0.600443,0.3873344 z m 3.104444,-3.1044442 c 0,-0.058605 0.22225,-0.2808552 0.493889,-0.4938889 0.44762,-0.351048 0.457602,-0.3410658 0.106554,0.1065544 -0.368686,0.4701111 -0.600443,0.6196129 -0.600443,0.3873345 z m 71.798738,-1.3751124 -0.537631,-0.635 0.635,0.53763 c 0.34925,0.2956965 0.635,0.5814465 0.635,0.6350001 0,0.2258492 -0.22713,0.059113 -0.732369,-0.5376301 z M 47.622225,-13.10243 c 0.203728,-0.08153 0.447145,-0.0715 0.540927,0.02228 0.09378,0.09378 -0.07291,0.160483 -0.370416,0.148229 -0.328775,-0.01354 -0.395648,-0.08042 -0.170511,-0.170509 z m 14.957777,0 c 0.203728,-0.08153 0.447145,-0.0715 0.540927,0.02228 0.09378,0.09378 -0.07291,0.160483 -0.370416,0.148229 -0.328775,-0.01354 -0.395648,-0.08042 -0.170511,-0.170509 z m -1.693333,-0.282222 c 0.203728,-0.08153 0.447145,-0.0715 0.540927,0.02228 0.09378,0.09378 -0.07291,0.160483 -0.370417,0.148229 -0.328774,-0.01354 -0.395647,-0.08042 -0.17051,-0.170509 z m -8.621535,-0.29195 c 0.428994,-0.06487 1.063994,-0.06314 1.411111,0.0039 0.347116,0.06699 -0.0039,0.120064 -0.779992,0.117946 -0.776111,-0.0021 -1.060114,-0.05693 -0.631119,-0.121798 z m 5.079999,0 c 0.428995,-0.06487 1.063995,-0.06314 1.411111,0.0039 0.347117,0.06699 -0.0039,0.120064 -0.779991,0.117946 -0.776111,-0.0021 -1.060114,-0.05693 -0.63112,-0.121798 z m -4.796287,-9.588615 c 0.274594,-0.07156 0.655594,-0.06685 0.846667,0.01046 0.191072,0.07731 -0.03359,0.135853 -0.49926,0.130101 -0.465667,-0.0058 -0.622001,-0.069 -0.347407,-0.140558 z m 4.792407,0.001 c 0.271639,-0.07099 0.716139,-0.07099 0.987777,0 0.271639,0.07099 0.04939,0.129067 -0.493888,0.129067 -0.543278,0 -0.765528,-0.05808 -0.493889,-0.129067 z"
           id="path528" /><path
           style="fill:#667686;stroke-width:0.282222"
           d="m 101.29736,76.413688 c 2.24671,-2.250722 4.14842,-4.092222 4.22603,-4.092222 0.0776,0 -1.6971,1.8415 -3.94381,4.092222 -2.246702,2.250722 -4.148417,4.092222 -4.226028,4.092222 -0.07761,0 1.697103,-1.8415 3.943808,-4.092222 z M 54.677781,74.386455 c 0.203727,-0.08153 0.447144,-0.0715 0.540926,0.02227 0.09378,0.09378 -0.07291,0.160483 -0.370416,0.148229 -0.328775,-0.01355 -0.395647,-0.08042 -0.17051,-0.170507 z M 84.364029,63.466022 c 0,-0.0586 0.22225,-0.280853 0.493889,-0.493889 0.447621,-0.351048 0.457603,-0.341065 0.106556,0.106556 -0.368687,0.470112 -0.600445,0.619613 -0.600445,0.387333 z m -59.584884,-1.234 c -0.351048,-0.447621 -0.341066,-0.457603 0.106554,-0.106556 0.271639,0.213036 0.493889,0.435286 0.493889,0.493889 0,0.23228 -0.231757,0.08278 -0.600443,-0.387333 z m -1.411112,-1.411111 c -0.351048,-0.447621 -0.341065,-0.457603 0.106555,-0.106556 0.271639,0.213036 0.493889,0.435286 0.493889,0.493889 0,0.23228 -0.231757,0.08278 -0.600444,-0.387333 z m 64.382663,-0.741556 c 0,-0.0586 0.22225,-0.280853 0.493888,-0.493888 0.447622,-0.351048 0.457604,-0.341066 0.106556,0.106555 -0.368686,0.470112 -0.600444,0.619614 -0.600444,0.387333 z M 99.344087,29.823506 c 0.01355,-0.328774 0.08042,-0.395647 0.170508,-0.17051 0.08152,0.203728 0.0715,0.447145 -0.02227,0.540927 -0.09378,0.09378 -0.160483,-0.07291 -0.148229,-0.370417 z M 11.290758,26.154618 c 0.01354,-0.328775 0.08042,-0.395648 0.170509,-0.17051 0.08153,0.203727 0.0715,0.447144 -0.02228,0.540926 -0.09378,0.09378 -0.160483,-0.07291 -0.148229,-0.370416 z M 21.146255,2.2238044 c 0,-0.058605 0.22225,-0.2808551 0.493889,-0.4938888 0.44762,-0.351048 0.457602,-0.3410658 0.106554,0.1065544 -0.368686,0.4701111 -0.600443,0.6196129 -0.600443,0.3873344 z m 65.721774,-2.64511208 c -0.351048,-0.44762022 -0.341066,-0.45760242 0.106555,-0.1065544 0.271639,0.21303374 0.493889,0.43528372 0.493889,0.49388886 0,0.23227847 -0.231758,0.08277662 -0.600444,-0.38733446 z M 85.73914,-1.5501965 c -0.351048,-0.4476202 -0.341066,-0.4576024 0.106556,-0.1065544 0.470111,0.3686863 0.619613,0.6004433 0.387333,0.6004433 -0.0586,0 -0.280854,-0.22225 -0.493889,-0.4938889 z m -59.230663,-1.588221 c 0,-0.058605 0.22225,-0.2808551 0.493888,-0.4938889 0.447621,-0.351048 0.457603,-0.3410658 0.106555,0.1065544 -0.368686,0.4701111 -0.600443,0.619613 -0.600443,0.3873345 z M 51.008892,-13.666875 c 0.203728,-0.08153 0.447144,-0.0715 0.540927,0.02228 0.09378,0.09378 -0.07291,0.160483 -0.370417,0.148228 -0.328775,-0.01354 -0.395647,-0.08042 -0.17051,-0.170508 z"
           id="path526" /><path
           style="fill:#5b6b7c;stroke-width:0.282222"
           d="m 96.478223,88.196465 -0.684195,-0.776111 0.786813,0.69425 0.786816,0.69425 8.232993,-8.232992 8.23299,-8.232989 -0.68629,-0.786816 -0.68629,-0.786813 0.8346,0.778423 0.8346,0.778419 -8.31965,8.323247 c -4.57581,4.577782 -8.393581,8.323243 -8.483926,8.323243 -0.09034,0 -0.472152,-0.34925 -0.848461,-0.776111 z M 58.064447,83.699788 c 0.203728,-0.08153 0.447145,-0.0715 0.540927,0.02227 0.09378,0.09378 -0.07291,0.160483 -0.370417,0.148229 -0.328774,-0.01355 -0.395647,-0.08042 -0.17051,-0.170507 z m 38.593678,-2.353787 0.853243,-0.853242 -4.206514,-4.180767 -4.206516,-4.180766 1.649969,-1.527658 c 0.907483,-0.840212 2.033013,-1.9107 2.501181,-2.378865 0.468164,-0.468167 1.538653,-1.593697 2.378865,-2.50118 l 1.527657,-1.64997 4.18077,4.206517 4.18076,4.206513 0.9238,-0.857312 c 0.50809,-0.47152 -1.61501,1.713828 -4.718,4.85633 -3.102989,3.142505 -5.704045,5.713642 -5.780126,5.713642 -0.07608,0 0.245629,-0.38396 0.714911,-0.853242 z m 8.590345,-8.667837 c 0,-0.202339 -0.41943,0.201295 -3.95503,3.80608 l -3.806078,3.880555 3.880558,-3.80608 c 2.1343,-2.093341 3.88055,-3.83959 3.88055,-3.880555 z M 52.614031,78.073671 C 43.587105,77.48707 34.960659,74.448781 27.637365,69.276732 24.363079,66.964279 18.747457,61.410064 16.591309,58.351467 10.573714,49.815224 7.5995887,40.574109 7.5995887,30.412648 c 0,-13.04845 4.8129603,-24.7250359 13.9628833,-33.8749601 13.882243,-13.8822429 34.398629,-17.8282169 52.664183,-10.1290489 13.268988,5.5930511 23.77931,17.8229365 27.386625,31.867275 1.07129,4.170837 1.43225,7.186895 1.43549,11.994443 0.005,7.53706 -1.20052,13.202691 -4.233844,19.896666 -6.556927,14.469908 -20.308597,24.94176 -35.90583,27.342176 -2.83795,0.436758 -7.94843,0.716963 -10.295065,0.564472 z m 8.748888,-4.090763 C 73.900852,72.376274 85.543518,64.967537 92.441212,54.206436 98.94907,44.053514 101.04917,31.367459 98.155684,19.687025 94.079737,3.2332086 81.010363,-9.3109155 64.185141,-12.918266 c -4.380193,-0.939119 -11.376405,-1.068468 -15.931596,-0.29455 -15.603617,2.651023 -28.461388,13.13114243 -34.158537,27.841961 -1.094254,2.825513 -1.82296,5.664451 -2.421112,9.432324 -0.632068,3.981509 -0.428462,11.071842 0.433578,15.098888 4.24837,19.846379 20.812569,34.103051 40.92989,35.228028 2.087798,0.116753 5.575861,-0.05313 8.325555,-0.405477 z M 108.65742,33.210173 c 0.0135,-0.328775 0.0804,-0.395647 0.17051,-0.17051 0.0815,0.203727 0.0715,0.447144 -0.0223,0.540927 -0.0938,0.09378 -0.16048,-0.07291 -0.14823,-0.370417 z M 1.6952031,31.234617 c 0.013542,-0.328774 0.080416,-0.395647 0.1705093,-0.17051 0.081526,0.203728 0.071499,0.447145 -0.022281,0.540927 -0.09378,0.09378 -0.1604829,-0.07291 -0.1482283,-0.370417 z M 16.630699,-6.7890617 c 0,-0.04857 0.41275,-0.4613204 0.917223,-0.9172221 l 0.917222,-0.8289123 -0.828913,0.9172221 c -0.772662,0.8549795 -1.005532,1.0469462 -1.005532,0.8289123 z"
           id="path524" /><path
           style="fill:#33485d;stroke-width:0.282222"
           d="M 96.077738,87.525951 C 95.06618,86.406273 95.030445,86.296912 95.147477,84.678966 l 0.121706,-1.682577 6.483747,-6.466352 6.48374,-6.466348 h 1.62128 c 1.50049,0 1.70981,0.08325 2.80978,1.117537 l 1.18852,1.117538 -8.18262,8.195795 c -4.50044,4.507687 -8.26391,8.195795 -8.36327,8.195795 -0.09936,0 -0.654038,-0.523982 -1.232622,-1.164403 z M 51.767364,83.728126 C 37.727817,82.373019 26.79837,77.381603 17.491133,68.074366 7.3056145,57.888848 1.9189705,44.811876 1.9189705,30.270357 c 0,-14.832083 5.6230319,-28.0730707 16.3029065,-38.3897145 3.247968,-3.1375025 5.205537,-4.6783095 8.870001,-6.9815985 12.211504,-7.675511 27.201251,-9.977086 41.566807,-6.382304 16.904997,4.230242 31.019892,17.0412291 36.965045,33.550285 2.26207,6.281507 3.09435,11.165298 3.10215,18.203332 0.0133,11.961797 -3.18624,21.832476 -10.323991,31.850145 -7.778631,10.917126 -20.874744,18.872854 -34.640081,21.043425 -2.705986,0.426692 -9.90885,0.765499 -11.994444,0.564199 z M 62.909096,77.509199 C 72.695716,76.003035 81.977064,71.258575 89.130212,64.105427 96.305658,56.929981 100.90863,47.9127 102.5871,37.743201 c 0.60072,-3.639679 0.61734,-11.183089 0.0323,-14.66951 C 100.2109,8.7203804 92.331204,-3.0388405 80.071839,-10.57508 68.047733,-17.966697 52.258927,-19.526149 39.006422,-14.63109 25.699042,-9.715761 15.309023,0.67425804 10.393694,13.981637 8.5073043,19.088705 7.5995887,24.426614 7.5995887,30.412648 c 0,10.161461 2.9741253,19.402576 8.9917203,27.938819 2.156148,3.058597 7.77177,8.612812 11.046056,10.925265 10.298035,7.272948 22.699152,10.167385 35.271731,8.232467 z"
           id="path522" /></g></g></g></svg>
