<?xml version="1.0" encoding="UTF-8" standalone="no"?>
<!-- Created with Inkscape (http://www.inkscape.org/) -->

<svg
   width="13.22913mm"
   height="13.229177mm"
   viewBox="0 0 13.22913 13.229177"
   version="1.1"
   id="svg5"
   xml:space="preserve"
   sodipodi:docname="settings-yellow.svg"
   inkscape:version="1.2 (dc2aedaf03, 2022-05-15)"
   xmlns:inkscape="http://www.inkscape.org/namespaces/inkscape"
   xmlns:sodipodi="http://sodipodi.sourceforge.net/DTD/sodipodi-0.dtd"
   xmlns="http://www.w3.org/2000/svg"
   xmlns:svg="http://www.w3.org/2000/svg"><sodipodi:namedview
     id="namedview7"
     pagecolor="#ffffff"
     bordercolor="#666666"
     borderopacity="1.0"
     inkscape:showpageshadow="2"
     inkscape:pageopacity="0.0"
     inkscape:pagecheckerboard="0"
     inkscape:deskcolor="#d1d1d1"
     inkscape:document-units="mm"
     showgrid="false"
     inkscape:zoom="1"
     inkscape:cx="293"
     inkscape:cy="287"
     inkscape:window-width="1600"
     inkscape:window-height="831"
     inkscape:window-x="1920"
     inkscape:window-y="107"
     inkscape:window-maximized="1"
     inkscape:current-layer="layer1" /><defs
     id="defs2" /><g
     inkscape:label="Layer 1"
     inkscape:groupmode="layer"
     id="layer1"
     transform="translate(225.51542,105.74693)"><path
       style="fill:#ffcc00;stroke-width:0.0258815"
       d="m -219.82118,-92.548156 c -0.10461,-0.04622 -0.21155,-0.176611 -0.24212,-0.295197 -0.0136,-0.05272 -0.0969,-0.392759 -0.18524,-0.755646 -0.0883,-0.362887 -0.16964,-0.67726 -0.18077,-0.698606 -0.0111,-0.02135 -0.0999,-0.06693 -0.1973,-0.101294 -0.0974,-0.03436 -0.28285,-0.111369 -0.41215,-0.171118 l -0.23509,-0.108636 -0.58041,0.349248 c -0.59578,0.358498 -0.69599,0.399566 -0.87011,0.356602 -0.0825,-0.02036 -1.25427,-1.16788 -1.32021,-1.292904 -0.0263,-0.04993 -0.0357,-0.117499 -0.0278,-0.199834 0.01,-0.103001 0.0723,-0.225077 0.36265,-0.709798 l 0.35068,-0.585402 -0.1093,-0.236798 c -0.0601,-0.130239 -0.13731,-0.316858 -0.17154,-0.414709 -0.0401,-0.114514 -0.0809,-0.186036 -0.11454,-0.200713 -0.0288,-0.01254 -0.38313,-0.103227 -0.78748,-0.201523 -0.74309,-0.180651 -0.81524,-0.207964 -0.92011,-0.348355 -0.0515,-0.06897 -0.0534,-0.102798 -0.0534,-0.973259 0,-0.870462 0.002,-0.904292 0.0534,-0.973262 0.10561,-0.14138 0.17722,-0.16851 0.92087,-0.34895 0.40392,-0.098 0.75771,-0.18849 0.78619,-0.20107 0.0328,-0.0145 0.0748,-0.0881 0.11457,-0.20067 0.0345,-0.0978 0.10115,-0.26205 0.14803,-0.36502 l 0.0852,-0.1872 -0.39174,-0.65179 c -0.42827,-0.71256 -0.46064,-0.79811 -0.37238,-0.984 0.0235,-0.0494 0.3073,-0.35222 0.63075,-0.67289 0.62139,-0.61605 0.68913,-0.66497 0.87304,-0.63049 0.0481,0.009 0.35896,0.18067 0.69084,0.38146 0.33188,0.20079 0.621,0.36984 0.64249,0.37568 0.0215,0.006 0.14964,-0.0404 0.28478,-0.10271 0.13513,-0.0623 0.3258,-0.1413 0.42371,-0.17551 0.11459,-0.04 0.18613,-0.0808 0.20081,-0.11447 0.0125,-0.0288 0.1036,-0.38335 0.20234,-0.78798 0.18106,-0.74192 0.20865,-0.81479 0.34786,-0.91866 0.069,-0.0515 0.10286,-0.0533 0.9738,-0.0533 0.87095,0 0.9048,0.002 0.97381,0.0533 0.14146,0.10555 0.16861,0.17712 0.34915,0.92035 0.0981,0.4037 0.18859,0.75729 0.20118,0.78575 0.0145,0.0328 0.088,0.0747 0.20078,0.11438 0.0978,0.0344 0.27518,0.10722 0.39407,0.16172 0.11889,0.0545 0.2257,0.0991 0.23736,0.0991 0.0117,0 0.29809,-0.16592 0.63651,-0.36871 0.58231,-0.34893 0.62243,-0.36864 0.74807,-0.36743 0.0925,9.2e-4 0.15581,0.0179 0.20877,0.0561 0.0418,0.0301 0.33969,0.32063 0.66197,0.64558 0.52861,0.53299 0.58768,0.60124 0.60363,0.69748 0.0237,0.14289 4.6e-4,0.19298 -0.38926,0.84142 -0.18022,0.29982 -0.33275,0.56457 -0.33897,0.58833 -0.006,0.0238 0.034,0.14186 0.0893,0.26247 0.0553,0.12061 0.12883,0.29931 0.1633,0.3971 0.0397,0.11265 0.0816,0.1862 0.11444,0.20071 0.0285,0.0126 0.3826,0.10333 0.78694,0.20163 0.7431,0.18065 0.81524,0.20796 0.92012,0.34835 0.0515,0.069 0.0534,0.1028 0.0534,0.973262 0,0.870461 -0.002,0.904289 -0.0534,0.973259 -0.10488,0.140391 -0.17702,0.167704 -0.92012,0.348355 -0.40434,0.0983 -0.75846,0.189001 -0.78694,0.201565 -0.0308,0.0136 -0.0711,0.07914 -0.0995,0.161901 -0.0262,0.07648 -0.0997,0.256473 -0.16322,0.39998 l -0.1155,0.260921 0.36385,0.605867 c 0.20012,0.333227 0.37083,0.64295 0.37936,0.688272 0.0332,0.176275 -0.0208,0.251858 -0.59508,0.832812 -0.66234,0.670076 -0.70242,0.701927 -0.88316,0.701927 -0.12696,0 -0.16936,-0.02072 -0.74315,-0.363132 l -0.6085,-0.363132 -0.24322,0.112501 c -0.13377,0.06188 -0.32333,0.14063 -0.42123,0.17501 -0.11436,0.04016 -0.18616,0.0812 -0.20081,0.114791 -0.0126,0.02876 -0.1036,0.383346 -0.20235,0.787979 -0.18104,0.741849 -0.20864,0.814747 -0.34781,0.918659 -0.0685,0.05111 -0.10804,0.0536 -0.94334,0.05932 -0.68547,0.0047 -0.88877,-0.0015 -0.95084,-0.02891 z m 1.29076,-3.898962 c 1.07338,-0.160395 1.94081,-0.916163 2.2399,-1.951563 0.41248,-1.427905 -0.42773,-2.929409 -1.8725,-3.346289 -1.4287,-0.41224 -2.93105,0.4275 -3.34816,1.871455 -0.49115,1.700275 0.80127,3.429635 2.57949,3.451565 0.1183,0.0015 0.29887,-0.0099 0.40127,-0.02517 z"
       id="path526" /></g></svg>
