<?xml version="1.0" encoding="UTF-8" standalone="no"?>
<!-- Created with Inkscape (http://www.inkscape.org/) -->

<svg
   width="15.874999mm"
   height="15.874999mm"
   viewBox="0 0 15.874999 15.874999"
   version="1.1"
   id="svg5"
   xml:space="preserve"
   inkscape:version="1.2 (dc2aedaf03, 2022-05-15)"
   sodipodi:docname="settings.svg"
   xmlns:inkscape="http://www.inkscape.org/namespaces/inkscape"
   xmlns:sodipodi="http://sodipodi.sourceforge.net/DTD/sodipodi-0.dtd"
   xmlns="http://www.w3.org/2000/svg"
   xmlns:svg="http://www.w3.org/2000/svg"><sodipodi:namedview
     id="namedview7"
     pagecolor="#ffffff"
     bordercolor="#666666"
     borderopacity="1.0"
     inkscape:showpageshadow="2"
     inkscape:pageopacity="0.0"
     inkscape:pagecheckerboard="0"
     inkscape:deskcolor="#d1d1d1"
     inkscape:document-units="mm"
     showgrid="false"
     inkscape:zoom="0.61112514"
     inkscape:cx="-59.725902"
     inkscape:cy="273.26645"
     inkscape:window-width="1600"
     inkscape:window-height="831"
     inkscape:window-x="1920"
     inkscape:window-y="107"
     inkscape:window-maximized="1"
     inkscape:current-layer="layer1" /><defs
     id="defs2" /><g
     inkscape:label="Layer 1"
     inkscape:groupmode="layer"
     id="layer1"
     transform="translate(-51.478538,30.080343)"><g
       id="g657"
       transform="matrix(0.11741453,0,0,0.11741553,60.217629,-19.348854)"><path
         style="fill:#b2c8db;stroke-width:0.264583"
         d="m -18.071636,40.001987 c 0,-0.05494 0.208359,-0.2633 0.46302,-0.463021 0.419645,-0.329107 0.429004,-0.319749 0.0999,0.0999 -0.345643,0.44073 -0.562916,0.580888 -0.562916,0.363125 z m 1.587499,-1.852083 c 0,-0.05494 0.20836,-0.2633 0.463021,-0.463021 0.419645,-0.329107 0.429004,-0.319749 0.0999,0.0999 -0.345643,0.44073 -0.562917,0.580888 -0.562917,0.363125 z m 1.5875,-1.852083 c 0,-0.05494 0.20836,-0.2633 0.463021,-0.463021 0.419645,-0.329107 0.429004,-0.319749 0.0999,0.0999 -0.345643,0.44073 -0.562917,0.580887 -0.562917,0.363125 z m 1.5875,-1.852084 c 0,-0.05494 0.20836,-0.2633 0.463021,-0.46302 0.419645,-0.329108 0.429003,-0.319749 0.0999,0.0999 -0.345644,0.440729 -0.562917,0.580887 -0.562917,0.363124 z m -31.179056,-2.281353 c 0,-0.363802 0.06006,-0.512631 0.133453,-0.33073 0.0734,0.181901 0.0734,0.479558 0,0.661459 -0.0734,0.181901 -0.133453,0.03307 -0.133453,-0.330729 z m 33.138293,0.06614 c 0.307607,-0.363317 0.771594,-0.581271 1.190625,-0.559281 l 0.6865965,0.03603 -0.6614585,0.120385 c -0.363802,0.06621 -0.899583,0.317887 -1.190625,0.559282 -0.524899,0.435356 -0.525102,0.434096 -0.02514,-0.156417 z m 8.4785753,-0.04046 c -0.1382448,-0.131395 -0.4894791,-0.296177 -0.7805208,-0.366181 -0.5019463,-0.120734 -0.5002106,-0.12886 0.03375,-0.157974 0.3096021,-0.01688 0.7111338,0.147902 0.8922913,0.366183 0.3591719,0.432774 0.2585403,0.542015 -0.1455205,0.157972 z M 30.388886,31.8998 c 0,-0.363802 0.06006,-0.51263 0.133453,-0.330729 0.0734,0.181901 0.0734,0.479557 0,0.661458 -0.0734,0.181901 -0.133453,0.03307 -0.133453,-0.330729 z m -74.612496,-3.175 c 0,-0.363802 0.06005,-0.51263 0.133453,-0.330729 0.0734,0.181901 0.0734,0.479558 0,0.661459 -0.0734,0.181901 -0.133453,0.03307 -0.133453,-0.33073 z m 74.347913,-0.264583 c 0,-0.363802 0.06005,-0.51263 0.133453,-0.330729 0.0734,0.181901 0.0734,0.479557 0,0.661458 -0.0734,0.181901 -0.133453,0.03307 -0.133453,-0.330729 z m -74.08333,-3.175 c 0,-0.363802 0.06005,-0.51263 0.133453,-0.330729 0.0734,0.181901 0.0734,0.479557 0,0.661458 -0.0734,0.181901 -0.133453,0.03307 -0.133453,-0.330729 z M 29.85972,25.020634 c 0,-0.363802 0.06006,-0.51263 0.133453,-0.330729 0.0734,0.181901 0.0734,0.479557 0,0.661458 -0.0734,0.181901 -0.133453,0.03307 -0.133453,-0.330729 z m -73.554163,-3.175 c 0,-0.363802 0.06005,-0.51263 0.133453,-0.330729 0.0734,0.181901 0.0734,0.479557 0,0.661458 -0.0734,0.181901 -0.133453,0.03307 -0.133453,-0.330729 z m 73.289579,-0.264583 c 0,-0.363802 0.06005,-0.51263 0.133453,-0.330729 0.0734,0.181901 0.0734,0.479557 0,0.661458 -0.0734,0.181901 -0.133453,0.03307 -0.133453,-0.330729 z m 2.471767,-5.820833 c 0.568388,-0.582084 1.092967,-1.058334 1.165727,-1.058334 0.07276,0 -0.332755,0.47625 -0.901144,1.058334 -0.568388,0.582083 -1.092967,1.058333 -1.165728,1.058333 -0.07276,0 0.332756,-0.47625 0.901145,-1.058333 z M -46.415802,15.56178 c -0.329107,-0.419645 -0.319749,-0.429003 0.0999,-0.0999 0.254662,0.199721 0.463021,0.40808 0.463021,0.463021 0,0.217763 -0.217273,0.07761 -0.562917,-0.363125 z m -15.907395,-1.828874 c 0.181901,-0.0734 0.479557,-0.0734 0.661459,0 0.181901,0.0734 0.03307,0.133453 -0.33073,0.133453 -0.363802,0 -0.51263,-0.06005 -0.330729,-0.133453 z m 110.066661,0 c 0.181902,-0.0734 0.479558,-0.0734 0.661459,0 0.181901,0.0734 0.03307,0.133453 -0.330729,0.133453 -0.363802,0 -0.512631,-0.06005 -0.33073,-0.133453 z M -58.883614,13.468323 c 0.181901,-0.0734 0.479558,-0.0734 0.661459,0 0.181901,0.0734 0.03307,0.133453 -0.330729,0.133453 -0.363803,0 -0.512631,-0.06005 -0.33073,-0.133453 z m 103.187495,0 c 0.181901,-0.0734 0.479558,-0.0734 0.661459,0 0.181901,0.0734 0.03307,0.133453 -0.33073,0.133453 -0.363802,0 -0.51263,-0.06005 -0.330729,-0.133453 z M -55.44403,13.20374 c 0.181901,-0.0734 0.479557,-0.0734 0.661458,0 0.181901,0.0734 0.03307,0.133453 -0.330729,0.133453 -0.363802,0 -0.51263,-0.06005 -0.330729,-0.133453 z m 96.308328,0 c 0.181901,-0.0734 0.479557,-0.0734 0.661458,0 0.181901,0.0734 0.03307,0.133453 -0.330729,0.133453 -0.363802,0 -0.51263,-0.06005 -0.330729,-0.133453 z m -92.868745,-0.264584 c 0.181901,-0.0734 0.479557,-0.0734 0.661458,0 0.181901,0.0734 0.03307,0.133453 -0.330729,0.133453 -0.363802,0 -0.51263,-0.06006 -0.330729,-0.133453 z m 89.429162,0 c 0.181901,-0.0734 0.479557,-0.0734 0.661458,0 0.181901,0.0734 0.03307,0.133453 -0.330729,0.133453 -0.363802,0 -0.51263,-0.06006 -0.330729,-0.133453 z M -9.7983727,-0.03355177 c 0.2574317,-0.06708245 0.6146191,-0.06267185 0.79375,0.009816 0.1791308,0.07247731 -0.031493,0.12736248 -0.4680558,0.12197027 C -9.909241,0.092837 -10.055804,0.03354388 -9.7983727,-0.03353858 Z m 4.6251731,0.0081227 c 0.181901,-0.07339806 0.4795573,-0.07339806 0.6614583,0 0.181901,0.07339806 0.033073,0.13345318 -0.3307291,0.13345318 -0.3638021,0 -0.5126302,-0.06005512 -0.3307292,-0.13345318 z m -6.3334634,-0.27009459 c 0.190995,-0.0764302 0.419198,-0.0670322 0.507119,0.0208756 0.08792,0.0879184 -0.06835,0.15045266 -0.347266,0.13896446 -0.308226,-0.0127 -0.370919,-0.0753904 -0.159853,-0.15985066 z m -12.39345,-6.63227834 -1.712148,-1.7859374 1.785937,1.7121478 c 1.658856,1.5903177 1.906887,1.859727 1.712148,1.859727 -0.04058,0 -0.844256,-0.8036718 -1.785937,-1.7859374 z m 33.5986682,0.1322917 c 1.0964228,-1.1681857 1.3339738,-1.3782384 1.3339738,-1.179568 0,0.042463 -0.565547,0.6080098 -1.256771,1.2567707 l -1.2567708,1.179568 z M 60.211276,-9.5736352 c -0.329107,-0.419645 -0.319749,-0.4290038 0.0999,-0.099896 0.44073,0.3456437 0.580888,0.5629169 0.363125,0.5629169 -0.05494,0 -0.2633,-0.2083593 -0.463021,-0.4630208 z M -73.104967,-10.533427 c 0,-0.05494 0.208359,-0.2633 0.463021,-0.463021 0.419644,-0.329107 0.429002,-0.319749 0.0999,0.0999 -0.345644,0.44073 -0.562916,0.580888 -0.562916,0.363125 z m 131.46416,-0.627708 c -0.329107,-0.419645 -0.319749,-0.429003 0.0999,-0.0999 0.254661,0.199721 0.463021,0.40808 0.463021,0.463021 0,0.217762 -0.217273,0.07761 -0.562917,-0.363125 z m -129.612077,-0.959792 c 0,-0.05494 0.20836,-0.2633 0.463021,-0.463021 0.419644,-0.329107 0.429002,-0.319749 0.0999,0.0999 -0.345644,0.44073 -0.562916,0.580888 -0.562916,0.363125 z M 56.50711,-12.748635 c -0.329108,-0.419645 -0.319749,-0.429003 0.0999,-0.0999 0.440729,0.345644 0.580887,0.562917 0.363124,0.562917 -0.05494,0 -0.2633,-0.20836 -0.46302,-0.463021 z m -125.907911,-0.959792 c 0,-0.05494 0.20836,-0.2633 0.463021,-0.463021 0.419644,-0.329107 0.429002,-0.319749 0.0999,0.0999 -0.345643,0.44073 -0.562916,0.580888 -0.562916,0.363125 z m 124.055827,-0.627708 c -0.329107,-0.419645 -0.319749,-0.429003 0.0999,-0.0999 0.44073,0.345644 0.580888,0.562917 0.363125,0.562917 -0.05494,0 -0.2633,-0.20836 -0.463021,-0.463021 z m -122.203743,-0.959792 c 0,-0.05494 0.208359,-0.2633 0.46302,-0.463021 0.419644,-0.329107 0.429003,-0.319749 0.09989,0.0999 -0.345643,0.44073 -0.562915,0.580888 -0.562915,0.363125 z m 1.852083,-1.5875 c 0,-0.05494 0.208359,-0.2633 0.463021,-0.463021 0.419644,-0.329107 0.429002,-0.319749 0.09989,0.0999 -0.345643,0.440729 -0.562915,0.580887 -0.562915,0.363124 z m 1.852083,-1.5875 c 0,-0.05494 0.208359,-0.2633 0.463021,-0.46302 0.419644,-0.329108 0.429002,-0.319749 0.09989,0.0999 -0.345644,0.440729 -0.562916,0.580887 -0.562916,0.363124 z m 33.358387,-0.848193 c 0.0127,-0.308226 0.07539,-0.370919 0.159851,-0.159853 0.07643,0.190995 0.06703,0.4192 -0.02088,0.507119 -0.08792,0.08792 -0.150452,-0.06835 -0.138964,-0.347266 z m -31.993694,-0.903994 c 0,-0.363802 0.06005,-0.51263 0.133452,-0.330729 0.0734,0.181901 0.0734,0.479557 0,0.661458 -0.0734,0.181901 -0.133452,0.03307 -0.133452,-0.330729 z m 110.839524,0.110244 c 0.0127,-0.308226 0.07539,-0.370919 0.15985,-0.159853 0.07643,0.190995 0.06703,0.4192 -0.02088,0.507119 -0.08792,0.08792 -0.150453,-0.06835 -0.138965,-0.347266 z m -79.089527,-0.903994 c 0,-0.363802 0.06005,-0.51263 0.133453,-0.330729 0.0734,0.181901 0.0734,0.479557 0,0.661458 -0.0734,0.181901 -0.133453,0.03307 -0.133453,-0.330729 z m 47.37022,-0.396875 c 0.0054,-0.436562 0.06469,-0.583126 0.131773,-0.325694 0.06708,0.257432 0.06267,0.614619 -0.0098,0.79375 -0.07248,0.179131 -0.127362,-0.03149 -0.12197,-0.468056 z m -0.0098,-4.630208 c 0,-0.363802 0.06006,-0.51263 0.133453,-0.330729 0.0734,0.181901 0.0734,0.479557 0,0.661458 -0.0734,0.181901 -0.133453,0.03307 -0.133453,-0.330729 z m -47.360414,-0.264583 c 0,-0.363802 0.06005,-0.51263 0.133453,-0.330729 0.0734,0.181901 0.0734,0.479557 0,0.661458 -0.0734,0.181901 -0.133453,0.03307 -0.133453,-0.330729 z m -31.761071,-0.640625 c -0.01688,-0.279583 -0.234632,-0.755833 -0.483892,-1.058333 -0.436919,-0.530241 -0.431241,-0.529802 0.158054,0.01228 0.371388,0.34163 0.561274,0.756939 0.483892,1.058333 -0.121965,0.475031 -0.128663,0.474512 -0.158054,-0.01228 z M 48.359666,-27.13603 c -0.01148,-0.236842 0.18747,-0.59403 0.442132,-0.79375 0.402352,-0.315545 0.424341,-0.311124 0.167817,0.03375 -0.162362,0.218281 -0.36132,0.575469 -0.442132,0.79375 -0.122907,0.331986 -0.150344,0.326467 -0.167817,-0.03375 z m -78.581246,-2.237256 c 0.0127,-0.308226 0.07539,-0.370919 0.15985,-0.159853 0.07643,0.190994 0.06703,0.419197 -0.02088,0.507118 -0.08792,0.08792 -0.150453,-0.06835 -0.138965,-0.347265 z m -34.715053,-0.308682 c -0.329108,-0.419645 -0.319749,-0.429003 0.0999,-0.0999 0.254661,0.199721 0.46302,0.40808 0.46302,0.463021 0,0.217763 -0.217272,0.07761 -0.562915,-0.363125 z m -1.852083,-1.587499 c -0.329108,-0.419645 -0.31975,-0.429004 0.09989,-0.0999 0.254662,0.199721 0.463021,0.408081 0.463021,0.463021 0,0.217763 -0.217272,0.0776 -0.562915,-0.363124 z m -1.852084,-1.5875 c -0.329107,-0.419645 -0.319749,-0.429004 0.0999,-0.0999 0.254662,0.19972 0.463021,0.40808 0.463021,0.46302 0,0.217763 -0.217272,0.0776 -0.562916,-0.363124 z m -1.852083,-1.5875 c -0.329107,-0.419645 -0.319749,-0.429004 0.0999,-0.0999 0.254661,0.19972 0.463021,0.40808 0.463021,0.46302 0,0.217763 -0.217272,0.0776 -0.562916,-0.363124 z m -1.852083,-1.5875 c -0.329108,-0.419645 -0.319749,-0.429004 0.0999,-0.0999 0.440729,0.345643 0.580887,0.562917 0.363126,0.562917 -0.05494,0 -0.263302,-0.20836 -0.463021,-0.463021 z m -1.852083,-1.5875 c -0.329108,-0.419645 -0.319749,-0.429003 0.09989,-0.0999 0.254662,0.19972 0.463021,0.40808 0.463021,0.463021 0,0.217762 -0.217272,0.0776 -0.562915,-0.363125 z m 49.113955,-1.653646 c 0.26339,-0.291042 0.538421,-0.529167 0.611182,-0.529167 0.07276,0 -0.08321,0.238125 -0.346599,0.529167 -0.26339,0.291042 -0.538422,0.529167 -0.611182,0.529167 -0.07276,0 0.08321,-0.238125 0.346599,-0.529167 z m 34.783668,-1.256771 -1.4461701,-1.521354 1.5213541,1.44617 c 1.413386,1.343539 1.642557,1.596538 1.44617,1.596538 -0.04135,0 -0.725961,-0.684609 -1.521354,-1.521354 z m -32.402419,-1.124479 c 0.26339,-0.291041 0.538422,-0.529166 0.611183,-0.529166 0.07276,0 -0.08321,0.238125 -0.346599,0.529166 -0.26339,0.291042 -0.538422,0.529167 -0.611182,0.529167 -0.07276,0 0.08321,-0.238125 0.346598,-0.529167 z m 19.9264318,-5.472406 c 0.1909947,-0.07643 0.4192005,-0.06703 0.5071189,0.02088 0.087918,0.08792 -0.068353,0.150453 -0.3472656,0.138964 -0.3082264,-0.0127 -0.3709194,-0.07539 -0.1598533,-0.15985 z m -7.4248698,-0.259072 c 0.181901,-0.0734 0.4795576,-0.0734 0.6614586,0 0.1819011,0.0734 0.033073,0.133453 -0.3307291,0.133453 -0.3638025,0 -0.5126305,-0.06005 -0.3307295,-0.133453 z m 5.2916667,0 c 0.1819011,-0.0734 0.4795573,-0.0734 0.6614583,0 0.1819011,0.0734 0.033073,0.133453 -0.3307291,0.133453 -0.3638021,0 -0.5126302,-0.06005 -0.3307292,-0.133453 z M -52.533614,-60.350423 c 0.181901,-0.0734 0.479557,-0.0734 0.661458,0 0.181901,0.0734 0.03307,0.133453 -0.330729,0.133453 -0.363802,0 -0.51263,-0.06005 -0.330729,-0.133453 z m 90.487496,0 c 0.181901,-0.0734 0.479557,-0.0734 0.661458,0 0.181901,0.0734 0.03307,0.133453 -0.330729,0.133453 -0.363802,0 -0.51263,-0.06005 -0.330729,-0.133453 z m -93.927079,-0.264584 c 0.181901,-0.0734 0.479557,-0.0734 0.661458,0 0.181901,0.0734 0.03307,0.133453 -0.330729,0.133453 -0.363802,0 -0.51263,-0.06005 -0.330729,-0.133453 z m 97.366662,0 c 0.181901,-0.0734 0.479557,-0.0734 0.661458,0 0.181901,0.0734 0.03307,0.133453 -0.330729,0.133453 -0.363802,0 -0.51263,-0.06005 -0.330729,-0.133453 z M -59.41278,-60.87959 c 0.181901,-0.0734 0.479557,-0.0734 0.661458,0 0.181901,0.0734 0.03307,0.133453 -0.330729,0.133453 -0.363802,0 -0.51263,-0.06006 -0.330729,-0.133453 z m 104.245828,0 c 0.181901,-0.0734 0.479557,-0.0734 0.661458,0 0.181901,0.0734 0.03307,0.133453 -0.330729,0.133453 -0.363802,0 -0.51263,-0.06006 -0.330729,-0.133453 z m -107.685411,-0.264583 c 0.181901,-0.0734 0.479557,-0.0734 0.661458,0 0.181901,0.0734 0.03307,0.133453 -0.330729,0.133453 -0.363802,0 -0.51263,-0.06005 -0.330729,-0.133453 z m 111.124994,0 c 0.181901,-0.0734 0.479557,-0.0734 0.661458,0 0.181901,0.0734 0.03307,0.133453 -0.330729,0.133453 -0.363802,0 -0.51263,-0.06005 -0.330729,-0.133453 z m -94.654683,-1.809147 c 0.790422,-0.800365 1.496663,-1.455208 1.569424,-1.455208 0.07276,0 -0.514419,0.654843 -1.30484,1.455208 -0.790422,0.800364 -1.496664,1.455208 -1.569424,1.455208 -0.07276,0 0.514419,-0.654844 1.30484,-1.455208 z m 78.440673,-0.198438 -1.579218,-1.653645 1.653646,1.579218 c 1.536096,1.466959 1.774719,1.728073 1.579218,1.728073 -0.04094,0 -0.785077,-0.74414 -1.653646,-1.653646 z m -2.463485,-4.960937 c 0,-0.363802 0.06005,-0.51263 0.133453,-0.330729 0.0734,0.181901 0.0734,0.479557 0,0.661458 -0.0734,0.181901 -0.133453,0.03307 -0.133453,-0.330729 z m -73.289579,-0.264583 c 0,-0.363802 0.06005,-0.51263 0.133453,-0.330729 0.0734,0.181901 0.0734,0.479557 0,0.661458 -0.0734,0.181901 -0.133453,0.03307 -0.133453,-0.330729 z m -0.254778,-3.307292 c 0.0054,-0.436562 0.06469,-0.583124 0.131773,-0.325693 0.06708,0.257431 0.06267,0.614618 -0.0098,0.79375 -0.07249,0.179131 -0.127376,-0.03149 -0.121983,-0.468057 z m 73.808941,0.132292 c 0,-0.363802 0.06006,-0.51263 0.133453,-0.330729 0.0734,0.181901 0.0734,0.479557 0,0.661458 -0.0734,0.181901 -0.133453,0.03307 -0.133453,-0.330729 z m -74.073525,-3.571875 c 0.0054,-0.436562 0.06469,-0.583125 0.131773,-0.325693 0.06708,0.25743 0.06267,0.614618 -0.0098,0.79375 -0.07249,0.179131 -0.127376,-0.03149 -0.121984,-0.468057 z m 74.338108,0.132292 c 0,-0.363802 0.06005,-0.51263 0.133453,-0.330729 0.0734,0.181901 0.0734,0.479557 0,0.661458 -0.0734,0.181901 -0.133453,0.03307 -0.133453,-0.330729 z m -74.602691,-3.571875 c 0.0054,-0.436562 0.06469,-0.583125 0.131773,-0.325694 0.06708,0.257431 0.06267,0.614619 -0.0098,0.79375 -0.07249,0.179132 -0.127376,-0.03149 -0.121984,-0.468056 z m 74.867274,0.132292 c 0,-0.363802 0.06006,-0.51263 0.133453,-0.330729 0.0734,0.181901 0.0734,0.479557 0,0.661458 -0.0734,0.181901 -0.133453,0.03307 -0.133453,-0.330729 z m -41.101799,-0.709908 c 0.190995,-0.07643 0.419198,-0.06703 0.507119,0.02089 0.08792,0.08792 -0.06835,0.150453 -0.347266,0.138965 -0.308226,-0.01269 -0.370919,-0.07539 -0.159853,-0.159853 z m 41.209326,-2.652119 c -0.143584,-0.377083 -0.113194,-0.407474 0.148114,-0.148112 0.180821,0.179476 0.262114,0.39297 0.180652,0.474432 -0.08146,0.08146 -0.229407,-0.06538 -0.328766,-0.32632 z M 6.7991957,-90.702172 c 0,-0.05494 0.2083593,-0.263301 0.4630208,-0.463021 0.419645,-0.329107 0.4290033,-0.319749 0.099896,0.0999 -0.3456437,0.440729 -0.5629168,0.580887 -0.5629168,0.363126 z"
         id="path671" /><path
         style="fill:#95bcd9;stroke-width:0.264583"
         d="m -9.3899963,31.719061 c 0.1909948,-0.07643 0.4191979,-0.06703 0.507119,0.02088 0.087918,0.08792 -0.068352,0.150453 -0.3472657,0.138965 -0.3082263,-0.0127 -0.3709193,-0.07539 -0.1598533,-0.159851 z M -43.769969,17.94303 c -0.329107,-0.419645 -0.319749,-0.429003 0.0999,-0.0999 0.254662,0.199721 0.463021,0.40808 0.463021,0.463021 0,0.217763 -0.217273,0.0776 -0.562917,-0.363125 z m 32.974374,-2.209424 c -6.744152,-0.703543 -12.557217,-2.810669 -18.256249,-6.6175411 -13.677587,-9.13643513 -20.236319,-25.9160659 -16.402825,-41.9644119 3.45739,-14.473851 14.836023,-25.86874 29.249499,-29.291287 2.505921,-0.595045 6.8655028,-1.210561 8.5741475,-1.210561 h 0.6718855 v 7.9375 7.937499 h -1.4379098 c -2.8214552,0 -6.9107862,1.156944 -9.9032372,2.801803 -5.800622,3.188422 -10.061511,8.615224 -11.822543,15.057571 -0.675929,2.47273 -0.810054,7.775117 -0.26475,10.466308 1.93372,9.543306 9.257699,16.9291599 18.720931,18.87909666 1.121651,0.23112147 2.6396977,0.42021917 3.3734376,0.42021917 H -6.959137 V 8.0873014 16.024801 l -0.8598958,-0.03519 c -0.4729427,-0.01934 -1.8123957,-0.134556 -2.9765622,-0.256 z m -38.084422,-2.759927 c -0.282475,-0.213654 -0.38635,-0.388461 -0.230834,-0.388461 0.155515,0 0.430975,0.178594 0.612133,0.396875 0.412009,0.496443 0.2824,0.493583 -0.381299,-0.0084 z m -13.620729,-34.144882 c 0.0127,-0.308227 0.07539,-0.37092 0.159852,-0.159853 0.07643,0.190994 0.06703,0.4192 -0.02089,0.507118 -0.08792,0.08792 -0.150452,-0.06835 -0.138964,-0.347265 z"
         id="path669" /><path
         style="fill:#80a5c6;stroke-width:0.264583"
         d="m -8.4804911,31.717415 c 0.2546615,-0.06655 0.6713802,-0.06655 0.9260416,0 0.2546615,0.06655 0.046302,0.121002 -0.4630208,0.121002 -0.5093229,0 -0.7176822,-0.05445 -0.4630208,-0.121002 z M -9.671116,15.849573 c 0.181901,-0.0734 0.4795572,-0.0734 0.6614583,0 0.181901,0.0734 0.033073,0.133453 -0.3307292,0.133453 -0.363802,0 -0.5126302,-0.06006 -0.3307291,-0.133453 z m -2.629297,-0.270095 c 0.190995,-0.07643 0.419198,-0.06703 0.507119,0.02088 0.08792,0.08792 -0.06835,0.150452 -0.347265,0.138964 -0.308227,-0.0127 -0.37092,-0.07539 -0.159854,-0.15985 z M -6.959137,7.9924774 V 0.14980183 h 1.3340714 c 0.7337399,0 2.2517867,-0.1890977 3.3734374,-0.42021917 C 7.2226348,-2.2226268 14.533329,-9.5950823 16.469303,-19.149514 c 0.545304,-2.691191 0.411179,-7.993578 -0.26475,-10.466308 -1.200843,-4.393017 -3.180241,-7.71526 -6.6208481,-11.112499 -4.178649,-4.125979 -10.04632126,-6.746875 -15.1049321,-6.746875 H -6.959137 v -7.87505 -7.87505 l 2.9103557,0.1847 c 1.6006947,0.101585 3.88945151,0.384398 5.0861248,0.628473 4.9216546,1.003827 10.8037735,3.596846 15.0905225,6.652368 2.764692,1.970622 7.039433,6.245363 9.010055,9.010055 3.111103,4.364727 5.553839,9.972756 6.714042,15.414087 0.684038,3.208133 0.684038,12.137699 0,15.345832 C 29.201124,-3.5573994 21.403383,6.4514939 10.106487,11.921907 5.306451,14.246283 0.79361466,15.442334 -4.1148663,15.69104 L -6.959137,15.835156 Z M -32.657469,6.5659473 c -0.329108,-0.419645 -0.319749,-0.4290033 0.0999,-0.099896 0.254661,0.1997207 0.463021,0.4080801 0.463021,0.4630208 0,0.2177626 -0.217274,0.077605 -0.562917,-0.3631248 z m -4.7625,-4.7624997 c -0.329107,-0.419645 -0.319749,-0.4290034 0.0999,-0.099896 0.44073,0.3456437 0.580887,0.5629169 0.363125,0.5629169 -0.05494,0 -0.2633,-0.2083594 -0.463021,-0.4630208 z M -46.60486,-21.016864 c 0,-0.363802 0.06006,-0.51263 0.133453,-0.330729 0.0734,0.181901 0.0734,0.479557 0,0.661458 -0.0734,0.181901 -0.133453,0.03307 -0.133453,-0.330729 z m -15.874998,-1.058333 c 0,-0.363802 0.06005,-0.51263 0.133452,-0.330729 0.0734,0.181901 0.0734,0.479557 0,0.661458 -0.0734,0.181901 -0.133452,0.03307 -0.133452,-0.330729 z m 0.0098,-3.307292 c 0.0054,-0.436562 0.06469,-0.583125 0.131774,-0.325694 0.06708,0.257432 0.06267,0.614619 -0.0098,0.79375 -0.07248,0.179131 -0.127362,-0.03149 -0.12197,-0.468056 z m 15.865195,-0.926041 c 0,-0.363802 0.06006,-0.51263 0.133453,-0.330729 0.0734,0.181901 0.0734,0.479557 0,0.661458 -0.0734,0.181901 -0.133453,0.03307 -0.133453,-0.330729 z m 11.467599,-25.399999 c 0.26339,-0.291042 0.538422,-0.529167 0.611183,-0.529167 0.07276,0 -0.08321,0.238125 -0.346599,0.529167 -0.26339,0.291042 -0.538422,0.529167 -0.611182,0.529167 -0.07276,0 0.08321,-0.238125 0.346598,-0.529167 z m 22.572265,-11.293239 c 0.190995,-0.07643 0.419198,-0.06703 0.507119,0.02088 0.08792,0.08792 -0.06835,0.150452 -0.347266,0.138964 -0.308226,-0.0127 -0.370919,-0.07539 -0.159853,-0.159851 z m 2.364713,-0.259072 c 0.181901,-0.0734 0.4795576,-0.0734 0.6614586,0 0.1819011,0.0734 0.033073,0.133453 -0.3307291,0.133453 -0.3638025,0 -0.5126305,-0.06005 -0.3307295,-0.133453 z m 0.8102867,-15.880512 c 0.1909948,-0.07643 0.4191979,-0.06703 0.507119,0.02089 0.087918,0.08792 -0.068352,0.150453 -0.3472657,0.138965 -0.3082263,-0.01269 -0.3709193,-0.07539 -0.1598533,-0.159853 z"
         id="path667" /><path
         style="fill:#879fbb;stroke-width:0.264583"
         d="m 30.368,33.068377 c 0.0127,-0.308226 0.07539,-0.370919 0.159851,-0.159853 0.07643,0.190995 0.06703,0.419201 -0.02088,0.507119 -0.08792,0.08792 -0.150453,-0.06835 -0.138964,-0.347266 z m -35.6684562,-1.35193 c 0.2574316,-0.06708 0.6146191,-0.06267 0.7937499,0.0098 0.1791309,0.07248 -0.031493,0.127362 -0.4680558,0.12197 -0.4365625,-0.0054 -0.5831258,-0.06469 -0.3256941,-0.131773 z M 30.103417,29.628794 c 0.0127,-0.308226 0.07539,-0.370919 0.15985,-0.159853 0.07643,0.190995 0.06703,0.419201 -0.02088,0.507119 -0.08792,0.08792 -0.150453,-0.06835 -0.138965,-0.347266 z m -0.264584,-3.439583 c 0.0127,-0.308226 0.07539,-0.370919 0.159851,-0.159853 0.07643,0.190995 0.06703,0.4192 -0.02088,0.507119 -0.08792,0.08792 -0.150452,-0.06835 -0.138964,-0.347266 z M 29.57425,22.749628 c 0.0127,-0.308226 0.07539,-0.370919 0.159851,-0.159853 0.07643,0.190994 0.06703,0.4192 -0.02088,0.507119 -0.08792,0.08792 -0.150453,-0.06835 -0.138964,-0.347266 z m -0.285472,-4.443473 c 0,-0.05494 0.208359,-0.2633 0.463021,-0.463021 0.419645,-0.329107 0.429003,-0.319749 0.0999,0.0999 -0.345644,0.44073 -0.562917,0.580888 -0.562917,0.363125 z m 5.337749,-5.351245 c 0.237111,-0.237112 0.557977,-0.387528 0.713033,-0.334256 0.155057,0.05327 -0.03895,0.247271 -0.431114,0.431112 -0.658977,0.308916 -0.68035,0.301574 -0.281919,-0.09686 z m 4.137641,-0.02127 c 0.190995,-0.07643 0.419201,-0.06703 0.507119,0.02088 0.08792,0.08792 -0.06835,0.150452 -0.347266,0.138964 -0.308226,-0.0127 -0.370919,-0.07539 -0.159853,-0.159851 z m 9.616384,-34.215084 c 0,-0.363802 0.06005,-0.51263 0.133453,-0.330729 0.0734,0.181901 0.0734,0.479557 0,0.661458 -0.0734,0.181901 -0.133453,0.03307 -0.133453,-0.330729 z m 0,-4.7625 c 0,-0.363802 0.06005,-0.51263 0.133453,-0.330729 0.0734,0.181901 0.0734,0.479557 0,0.661458 -0.0734,0.181901 -0.133453,0.03307 -0.133453,-0.330729 z m -9.087217,-34.311988 c 0.190994,-0.07643 0.4192,-0.06703 0.507119,0.02088 0.08792,0.08792 -0.06835,0.150453 -0.347266,0.138964 -0.308226,-0.0127 -0.370919,-0.07539 -0.159853,-0.15985 z m 3.439583,-0.264583 c 0.190995,-0.07643 0.4192,-0.06703 0.507119,0.02088 0.08792,0.08792 -0.06835,0.150452 -0.347266,0.138964 -0.308226,-0.0127 -0.370919,-0.07539 -0.159853,-0.159851 z M 29.38008,-65.610564 c -0.08617,-0.224558 -0.09756,-0.467405 -0.02529,-0.539661 0.07225,-0.07226 0.194882,0.111472 0.2725,0.408286 0.164875,0.630483 -0.01831,0.72784 -0.2472,0.131375 z M -4.6440329,-79.135839 c 0.181901,-0.0734 0.4795572,-0.0734 0.6614583,0 0.181901,0.0734 0.033073,0.133452 -0.3307292,0.133452 -0.3638021,0 -0.5126302,-0.06005 -0.3307291,-0.133452 z"
         id="path665" /><path
         style="fill:#7ba0c3;stroke-width:0.264583"
         d="m -44.828302,16.884697 c -0.329107,-0.419645 -0.319749,-0.429003 0.0999,-0.0999 0.254661,0.19972 0.463021,0.40808 0.463021,0.463021 0,0.217762 -0.217273,0.07761 -0.562917,-0.363125 z m 34.379972,-1.040635 c 0.190995,-0.07643 0.419198,-0.06703 0.5071194,0.02088 0.087918,0.08792 -0.068352,0.150453 -0.3472654,0.138965 -0.308227,-0.0127 -0.37092,-0.07539 -0.159854,-0.159851 z m 3.9552989,-0.0064 c 0.3291178,-0.06329 0.8053678,-0.06088 1.0583332,0.0053 0.2529655,0.06622 -0.016325,0.118004 -0.5983975,0.115067 -0.5820833,-0.0029 -0.7890536,-0.05712 -0.4599357,-0.120406 z M 19.10232,5.9706349 c 0.26339,-0.2910417 0.538422,-0.5291667 0.611182,-0.5291667 0.07276,0 -0.08321,0.238125 -0.346599,0.5291667 -0.26339,0.2910416 -0.538421,0.5291666 -0.611182,0.5291666 -0.07276,0 0.08321,-0.238125 0.346599,-0.5291666 z m -54.38091,-1.7859374 -1.446171,-1.5213541 1.521355,1.4461701 c 1.413385,1.3435382 1.642557,1.5965381 1.44617,1.5965381 -0.04135,0 -0.725961,-0.6846094 -1.521354,-1.5213541 z M 22.409612,2.695739 c 0,-0.054941 0.208359,-0.2633001 0.46302,-0.4630209 0.419645,-0.3291072 0.429004,-0.3197489 0.0999,0.099896 -0.345643,0.4407297 -0.562916,0.5808874 -0.562916,0.3631248 z M -46.625746,-20.11287 c 0.0127,-0.308226 0.07539,-0.370919 0.15985,-0.159853 0.07643,0.190995 0.06703,0.4192 -0.02087,0.507119 -0.08792,0.08792 -0.150453,-0.06835 -0.138965,-0.347266 z m 79.181972,-3.549827 c 0,-1.236927 0.04558,-1.742943 0.101282,-1.124479 0.0557,0.618463 0.0557,1.630495 0,2.248958 -0.05571,0.618464 -0.101282,0.112448 -0.101282,-1.124479 z m -95.005797,0 c 0,-0.654844 0.0516,-0.922734 0.114662,-0.595312 0.06306,0.327421 0.06306,0.863203 0,1.190624 -0.06306,0.327422 -0.114662,0.05953 -0.114662,-0.595312 z m 15.823825,-3.593923 c 0.0127,-0.308226 0.07539,-0.370919 0.15985,-0.159853 0.07643,0.190995 0.06703,0.419198 -0.02087,0.507119 -0.08792,0.08792 -0.150453,-0.06835 -0.138965,-0.347266 z m 69.407094,-22.401388 -0.504028,-0.595313 0.595312,0.504029 c 0.559446,0.473662 0.715762,0.686596 0.504029,0.686596 -0.05021,0 -0.318098,-0.26789 -0.595313,-0.595312 z m -58.976942,-0.992188 c 0.26339,-0.291041 0.538422,-0.529166 0.611182,-0.529166 0.07276,0 -0.08321,0.238125 -0.346599,0.529166 -0.26339,0.291042 -0.538421,0.529167 -0.611182,0.529167 -0.07276,0 0.08321,-0.238125 0.346599,-0.529167 z m 2.116667,-2.116666 c 0.26339,-0.291042 0.538421,-0.529167 0.611182,-0.529167 0.07276,0 -0.08321,0.238125 -0.346599,0.529167 -0.26339,0.291041 -0.538422,0.529166 -0.611182,0.529166 -0.07276,0 0.08321,-0.238125 0.346599,-0.529166 z m 53.015205,-0.727604 c -0.329107,-0.419645 -0.319749,-0.429004 0.0999,-0.0999 0.254662,0.19972 0.463021,0.40808 0.463021,0.46302 0,0.217763 -0.217273,0.0776 -0.562917,-0.363124 z m -29.913774,-9.771885 c 0.190995,-0.07643 0.419198,-0.06703 0.507119,0.02088 0.08792,0.08792 -0.06835,0.150453 -0.347266,0.138965 -0.308226,-0.0127 -0.370919,-0.07539 -0.159853,-0.159851 z m 4.7459631,-0.006 c 0.3274219,-0.06307 0.8632031,-0.06307 1.190625,0 0.3274218,0.06306 0.059531,0.114663 -0.5953125,0.114663 -0.6548437,0 -0.9227343,-0.0516 -0.5953125,-0.114663 z m -2.3812499,-15.863503 c 0.1819011,-0.0734 0.4795573,-0.0734 0.6614583,0 0.1819011,0.0734 0.033073,0.133452 -0.3307291,0.133452 -0.3638021,0 -0.5126302,-0.06005 -0.3307292,-0.133452 z"
         id="path663" /><path
         style="fill:#6b8fb6;stroke-width:0.264583"
         d="m -25.479969,42.883807 c -5.817547,-1.695963 -10.06036,-3.469182 -15.399229,-6.435878 l -3.62527,-2.014484 0.122955,-1.068385 c 0.06762,-0.58761 0.366178,-4.195556 0.663453,-8.017658 l 0.540501,-6.94927 -2.898264,-2.884514 -2.898268,-2.884514 -8.011521,0.636487 c -4.406337,0.35007 -8.035509,0.608087 -8.064828,0.573371 -0.411041,-0.486693 -3.627237,-6.407769 -4.488487,-8.2633818 -1.966682,-4.2373362 -4.910726,-12.9298773 -4.880681,-14.4106311 0.0046,-0.224319 2.739264,-2.7295741 6.077141,-5.5672301 l 6.068866,-5.159375 0.0083,-4.031165 0.0083,-4.031167 -6.085416,-5.218266 c -3.534572,-3.030908 -6.085417,-5.408086 -6.085417,-5.671111 0,-0.725053 1.740716,-6.570574 2.800537,-9.404521 1.372184,-3.669199 2.761273,-6.613702 4.815118,-10.206783 l 1.777053,-3.108849 1.190625,0.134654 c 0.654844,0.07406 4.252069,0.373484 7.993834,0.665385 l 6.80321,0.530731 2.890367,-2.890367 2.890366,-2.890367 -0.625398,-8.011776 c -0.343971,-4.406478 -0.598424,-8.037661 -0.565451,-8.069297 0.366799,-0.351949 5.957784,-3.397972 7.997446,-4.357088 4.309819,-2.026618 13.101623,-5.030325 14.639387,-5.001525 0.244827,0.0046 2.742552,2.723964 5.601237,6.098304 l 5.159375,6.090028 2.0505203,-0.101424 2.0505207,-0.101425 v 7.893745 7.893745 h -1.8257916 c -2.5194924,0 -7.3520934,0.866124 -10.3530524,1.855531 -13.626179,4.492503 -23.66275,15.643679 -26.741061,29.710765 -0.687969,3.143858 -0.953219,9.751347 -0.52251,13.015993 2.487277,18.85272352 17.993836,33.55396 36.5981443,34.697444 l 2.8442707,0.174818 v 7.747857 7.747857 l 0.7276041,0.09947 c 0.4001823,0.0547 -0.4770067,0.04617 -1.9493096,-0.01897 l -2.6769165,-0.118433 -5.2496,6.121958 c -3.75942,4.384146 -5.402932,6.11696 -5.789753,6.10435 -0.297082,-0.0097 -1.909368,-0.416769 -3.582857,-0.904634 z M 30.082528,17.512405 c 0,-0.05494 0.208359,-0.2633 0.463021,-0.463021 0.419645,-0.329107 0.429003,-0.319749 0.0999,0.0999 -0.345644,0.44073 -0.562917,0.580888 -0.562917,0.363125 z M -4.7763246,15.842416 c 0.2546614,-0.06655 0.6713802,-0.06655 0.9260416,0 0.2546615,0.06655 0.046302,0.121002 -0.4630208,0.121002 -0.5093229,0 -0.7176823,-0.05445 -0.4630208,-0.121002 z M -1.71708,15.579478 c 0.1909948,-0.07643 0.4192006,-0.06703 0.5071189,0.02088 0.087918,0.08792 -0.068352,0.150452 -0.3472656,0.138964 -0.3082263,-0.0127 -0.3709193,-0.07539 -0.1598533,-0.15985 z m 35.239191,-1.506656 c 0,-0.05494 0.208359,-0.2633 0.463021,-0.463021 0.419645,-0.329107 0.429003,-0.319749 0.0999,0.0999 -0.345644,0.44073 -0.562917,0.580887 -0.562917,0.363125 z M 21.086695,4.2508433 c 0.493654,-0.5093229 0.957085,-0.9260416 1.029846,-0.9260416 0.07276,0 -0.271608,0.4167187 -0.765263,0.9260416 -0.493654,0.5093229 -0.957085,0.9260416 -1.029845,0.9260416 -0.07276,0 0.271608,-0.4167187 0.765262,-0.9260416 z M 23.203362,1.901989 c 0,-0.054941 0.208359,-0.2633001 0.46302,-0.4630208 0.419645,-0.3291073 0.429004,-0.319749 0.0999,0.099896 -0.345643,0.4407296 -0.562916,0.5808873 -0.562916,0.3631247 z M 31.9555,-16.673287 c 0.0127,-0.308226 0.07539,-0.370919 0.159851,-0.159853 0.07643,0.190995 0.06703,0.4192 -0.02088,0.507119 -0.08792,0.08792 -0.150453,-0.06835 -0.138964,-0.347266 z m 0.264583,-1.5875 c 0.0127,-0.308226 0.07539,-0.370919 0.159851,-0.159853 0.07643,0.190995 0.06703,0.419201 -0.02088,0.507119 -0.08792,0.08792 -0.150452,-0.06835 -0.138964,-0.347266 z m 0.305078,-2.491493 c 0,-0.509323 0.05445,-0.717683 0.121002,-0.463021 0.06655,0.254661 0.06655,0.67138 0,0.926041 -0.06655,0.254662 -0.121002,0.0463 -0.121002,-0.46302 z m 15.902572,-2.910417 c 0,-1.091406 0.0467,-1.537891 0.103785,-0.992187 0.05708,0.545703 0.05708,1.438671 0,1.984374 -0.05708,0.545704 -0.103785,0.09922 -0.103785,-0.992187 z m -15.902572,-2.910417 c 0,-0.509322 0.05445,-0.717682 0.121002,-0.46302 0.06655,0.254661 0.06655,0.67138 0,0.926041 -0.06655,0.254662 -0.121002,0.0463 -0.121002,-0.463021 z m -0.305078,-2.535589 c 0.0127,-0.308226 0.07539,-0.370919 0.159851,-0.159853 0.07643,0.190995 0.06703,0.419198 -0.02088,0.507119 -0.08792,0.08792 -0.150452,-0.06835 -0.138964,-0.347266 z m -11.275625,-22.665972 -1.312971,-1.389062 1.389062,1.312971 c 0.763984,0.722132 1.389063,1.34721 1.389063,1.389062 0,0.19743 -0.245118,-0.02223 -1.465154,-1.312971 z m -2.80193,-2.513541 c -0.329107,-0.419645 -0.319749,-0.429004 0.0999,-0.0999 0.254662,0.19972 0.463021,0.40808 0.463021,0.46302 0,0.217763 -0.217273,0.0776 -0.562917,-0.363124 z m -19.8761444,-8.708041 c 0.181901,-0.0734 0.4795572,-0.0734 0.6614583,0 0.18190101,0.0734 0.033073,0.133454 -0.3307292,0.133454 -0.363802,0 -0.5126302,-0.06006 -0.3307291,-0.133454 z m -2.5135416,-0.27174 c 0.2546615,-0.06655 0.6713802,-0.06655 0.9260417,0 0.2546614,0.06655 0.046302,0.121002 -0.4630209,0.121002 -0.5093228,0 -0.7176822,-0.05445 -0.4630208,-0.121002 z m -1.4552082,-15.867842 c 0.181901,-0.0734 0.4795572,-0.0734 0.6614583,0 0.181901,0.0734 0.033073,0.133452 -0.3307292,0.133452 -0.363802,0 -0.5126302,-0.06005 -0.3307291,-0.133452 z"
         id="path661" /><path
         style="fill:#5779a0;stroke-width:0.264583"
         d="M 2.2204199,37.720633 -2.9978458,31.635217 H -4.9784927 -6.959137 v -7.805208 -7.805208 l 1.2567708,-7.94e-4 C -1.9599516,16.021891 3.5238394,14.873035 7.6461136,13.227745 20.229035,8.2056284 29.409047,-2.905691 32.113141,-16.386703 c 0.726022,-3.619519 0.659588,-11.49355 -0.127664,-15.1311 -2.310331,-10.675024 -8.420099,-19.629476 -17.381073,-25.473635 -5.5178115,-3.598597 -12.357367,-5.88937 -18.7192703,-6.269643 l -2.8442707,-0.170013 v -7.872054 -7.872056 l 2.0505207,0.122325 2.0505208,0.122326 5.1593747,-6.092194 c 2.8593943,-3.376375 5.3563517,-6.095883 5.6012368,-6.100469 0.6903879,-0.01293 6.515811,1.716455 9.393536,2.788646 4.083119,1.5213 10.039328,4.46057 12.979018,6.404884 0.254593,0.168388 0.18972,1.945733 -0.300016,8.219593 l -0.62485,8.004748 2.898007,2.898006 2.898005,2.898008 6.927011,-0.525196 c 3.809854,-0.288856 7.406312,-0.580874 7.992123,-0.648925 l 1.065117,-0.123727 1.770271,3.095654 c 2.046677,3.579008 3.436652,6.525731 4.808334,10.193591 1.059823,2.833995 2.800538,8.679516 2.800538,9.404569 0,0.263025 -2.550845,2.640203 -6.085417,5.671111 l -6.085416,5.218266 0.0078,4.031167 0.0078,4.031165 6.07582,5.159375 c 3.341701,2.837656 6.076625,5.3429111 6.077611,5.5672301 0.003,0.6901048 -1.781153,6.705941 -2.799495,9.43920843 -1.286256,3.45234407 -3.152277,7.38731977 -5.010814,10.56654547 -0.837612,1.432827 -1.538734,2.627809 -1.558049,2.655516 -0.01931,0.02771 -3.644918,-0.231841 -8.056901,-0.576773 l -8.021788,-0.627147 -2.895766,2.895769 -2.895769,2.895767 0.53585,6.94142 c 0.294716,3.817781 0.590936,7.421488 0.658265,8.008236 l 0.122414,1.066816 -3.095886,1.760117 c -3.567854,2.028446 -6.695231,3.503231 -10.260632,4.838628 -2.662756,0.997318 -8.6687599,2.776998 -9.3717207,2.776998 -0.2303621,0 -2.76706,-2.738438 -5.6371064,-6.085417 z"
         id="path659" /></g></g></svg>
