<?xml version="1.0" encoding="UTF-8" standalone="no"?>
<!-- Created with Inkscape (http://www.inkscape.org/) -->

<svg
   width="11.11574mm"
   height="6.6146121mm"
   viewBox="0 0 11.11574 6.6146119"
   version="1.1"
   id="svg5"
   xml:space="preserve"
   sodipodi:docname="view.svg"
   inkscape:version="1.2 (dc2aedaf03, 2022-05-15)"
   xmlns:inkscape="http://www.inkscape.org/namespaces/inkscape"
   xmlns:sodipodi="http://sodipodi.sourceforge.net/DTD/sodipodi-0.dtd"
   xmlns="http://www.w3.org/2000/svg"
   xmlns:svg="http://www.w3.org/2000/svg"><sodipodi:namedview
     id="namedview7"
     pagecolor="#ffffff"
     bordercolor="#666666"
     borderopacity="1.0"
     inkscape:showpageshadow="2"
     inkscape:pageopacity="0.0"
     inkscape:pagecheckerboard="0"
     inkscape:deskcolor="#d1d1d1"
     inkscape:document-units="mm"
     showgrid="false"
     inkscape:zoom="1"
     inkscape:cx="113"
     inkscape:cy="218"
     inkscape:window-width="1600"
     inkscape:window-height="831"
     inkscape:window-x="1920"
     inkscape:window-y="107"
     inkscape:window-maximized="1"
     inkscape:current-layer="layer1" /><defs
     id="defs2" /><g
     inkscape:label="Layer 1"
     inkscape:groupmode="layer"
     id="layer1"
     transform="translate(177.87746,129.85286)"><path
       style="fill:#b3ff80;stroke-width:0.0217049"
       d="m -172.65948,-123.24884 c -1.12201,-0.0647 -2.22236,-0.46339 -3.2308,-1.17073 -0.60246,-0.42257 -1.19787,-0.99049 -1.71386,-1.63472 -0.36379,-0.45419 -0.36407,-0.53395 -0.003,-0.98291 1.388,-1.72825 3.11647,-2.70551 4.96347,-2.80631 1.02903,-0.0562 1.98108,0.1402 2.93976,0.60633 0.99032,0.48152 1.88381,1.21713 2.66887,2.19729 0.36378,0.45419 0.36406,0.53396 0.003,0.98291 -1.00105,1.24643 -2.17258,2.09972 -3.46523,2.52394 -0.46305,0.15196 -0.94842,0.24925 -1.36678,0.27394 -0.42543,0.0251 -0.51715,0.0263 -0.79543,0.0102 z m 0.54583,-0.97568 c 0.39203,-0.0362 0.77206,-0.17184 1.09876,-0.39189 0.19118,-0.12877 0.47454,-0.40906 0.60646,-0.59989 0.96286,-1.39284 0.18752,-3.29824 -1.47489,-3.6245 -0.23319,-0.0457 -0.66712,-0.0447 -0.88636,0.002 -0.94514,0.20189 -1.63873,0.89541 -1.84196,1.84178 -0.0418,0.19496 -0.0481,0.67453 -0.0111,0.85138 0.1621,0.77404 0.604,1.359 1.27902,1.69307 0.22308,0.1104 0.41074,0.17075 0.63317,0.20361 0.0895,0.0132 0.18721,0.0277 0.21705,0.032 0.0959,0.0141 0.15845,0.0128 0.37983,-0.008 z m -0.47518,-1.09786 c -0.24637,-0.0553 -0.41481,-0.15052 -0.61092,-0.34567 -0.27255,-0.27121 -0.36571,-0.49817 -0.36526,-0.88989 2.4e-4,-0.2028 0.009,-0.2608 0.0557,-0.38508 0.15064,-0.39814 0.42542,-0.66757 0.81783,-0.80192 0.20797,-0.0712 0.53799,-0.0703 0.75865,0.002 0.38408,0.12581 0.69381,0.43637 0.813,0.81518 0.0691,0.21968 0.0671,0.54993 -0.005,0.76057 -0.21045,0.6182 -0.84422,0.98387 -1.46434,0.84488 z"
       id="path545" /></g></svg>
